<svg width="1440" height="444" preserveAspectRatio="none"  viewBox="0 0 1440 444" fill="none" xmlns="http://www.w3.org/2000/svg">
<g opacity="0.25">
<path style="mix-blend-mode:multiply" d="M1460.34 278.961C1405.27 299.206 1330 284.577 1280.42 259.913C1230.84 235.249 1196.07 201.948 1147.01 176.961C1097.95 151.965 1023.72 136.312 967.442 155.424C924.617 169.963 906.106 199.353 882.345 224.534C849.452 259.406 795.855 291.081 727.717 296.867C672.799 301.531 618.533 288.881 565.021 280.246C511.509 271.611 449.145 267.769 404.929 287.072C348.853 311.548 349.043 360.026 312.458 394.672C284.228 421.404 232.098 439.201 177.824 440.616C123.55 442.039 11.7951 436.603 -60.1479 394.377" stroke="url(#paint0_linear_7014_93037)" stroke-width="2.58926" stroke-miterlimit="10"/>
<path style="mix-blend-mode:multiply" opacity="0.95" d="M1463.01 273.08C1432.39 285.19 1394 286.033 1357.62 279.719C1330.07 274.949 1303.69 266.123 1282.15 255.362C1276.18 252.379 1270.43 249.274 1264.86 246.064C1237.49 230.305 1214.6 212.11 1189.14 195.277C1176.31 186.786 1163.04 178.574 1148.51 171.087C1135.78 164.524 1121.38 158.597 1105.94 153.728C1061.78 139.828 1009.77 134.815 967.276 148.54C952.18 153.425 939.877 160.06 929.229 167.715C909.103 182.142 894.881 200.139 878.732 216.555C862.994 232.56 843.292 248.057 820.236 260.874C795.006 274.897 765.724 285.695 732.458 290.298C730.056 290.626 727.64 290.928 725.209 291.195C693.995 294.611 662.548 292.409 631.013 288.033C607.833 284.823 584.747 280.42 561.826 276.807C546.423 274.384 530.352 272.379 514.203 271.33C473.595 268.671 433.372 271.858 401.244 285.674C371.974 298.26 356.522 316.316 343.56 335.121C331.329 352.772 321.269 371.11 303.208 386.278C302.706 386.698 302.204 387.117 301.687 387.537C285.468 400.657 262.386 411.03 235.42 418.389C214.184 424.191 190.961 428.35 167.835 429.39C115.397 431.746 -2.99314 417.747 -48.8998 388.991" stroke="url(#paint1_linear_7014_93037)" stroke-width="2.58926" stroke-miterlimit="10"/>
<path style="mix-blend-mode:multiply" opacity="0.91" d="M1465.75 267.213C1435.87 279.903 1397.02 281.366 1360.26 275.245C1332.36 270.614 1305.71 261.736 1283.94 250.825C1277.91 247.807 1272.13 244.658 1266.53 241.404C1239.01 225.391 1216.54 206.785 1190.92 189.759C1177.98 181.153 1164.67 172.819 1150.08 165.226C1137.28 158.558 1122.85 152.526 1107.26 147.569C1062.86 133.467 1010.42 128.383 967.174 141.668C951.821 146.386 939.138 152.854 928.094 160.333C907.148 174.461 891.97 192.201 875.198 208.59C858.853 224.567 838.953 240.195 816.125 253.346C791.167 267.711 762.644 279.106 729.923 284.464C727.567 284.854 725.181 285.208 722.78 285.527C692.006 289.663 660.557 288.328 628.688 284.311C605.264 281.363 581.889 276.943 558.694 273.373C543.079 270.975 526.841 269.023 510.57 268.184C469.702 266.033 430.237 270.466 397.653 284.263C368.019 296.822 351.125 313.955 336.904 331.356C323.536 347.707 312.461 364.334 294.054 377.871C293.537 378.247 293.019 378.623 292.502 378.998C276.027 390.725 252.933 399.678 225.572 406.598C204.018 412.049 180.703 416.69 157.925 418.16C107.355 421.413 -7.40129 404.185 -37.4783 382.759" stroke="url(#paint2_linear_7014_93037)" stroke-width="2.58926" stroke-miterlimit="10"/>
<path style="mix-blend-mode:multiply" opacity="0.86" d="M1468.43 261.328C1439.29 274.588 1399.98 276.682 1362.83 270.753C1334.56 266.27 1307.64 257.321 1285.66 246.27C1279.59 243.216 1273.76 240.024 1268.14 236.717C1240.47 220.458 1218.43 201.432 1192.63 184.213C1179.58 175.494 1166.24 167.045 1151.59 159.339C1138.73 152.565 1124.25 146.437 1108.51 141.392C1063.85 127.088 1011 121.942 967.011 134.778C951.4 139.338 938.353 145.621 926.884 152.941C905.103 166.769 888.968 184.254 871.573 200.614C854.62 216.555 834.507 232.323 811.936 245.808C787.252 260.523 759.487 272.508 727.297 278.62C724.971 279.063 722.631 279.478 720.26 279.859C689.925 284.723 658.475 284.256 626.271 280.597C602.588 277.912 578.94 273.464 555.487 269.938C539.674 267.566 523.268 265.675 506.86 265.046C465.749 263.411 427.026 269.081 393.971 282.869C363.988 295.4 345.621 311.593 330.142 327.598C315.606 342.641 303.547 357.557 284.808 369.481C284.291 369.813 283.758 370.145 283.226 370.477C266.495 380.801 243.403 388.352 215.648 394.824C193.791 399.924 170.384 405.038 147.925 406.937C99.2522 411.062 2.63494 396.946 -26.2146 377.381" stroke="url(#paint3_linear_7014_93037)" stroke-width="2.58926" stroke-miterlimit="10"/>
<path style="mix-blend-mode:multiply" opacity="0.82" d="M1471.15 255.451C1442.76 269.292 1402.99 271.998 1365.46 266.27C1336.84 261.926 1309.64 252.924 1287.43 241.723C1281.32 238.635 1275.44 235.398 1269.8 232.048C1241.97 215.535 1220.36 196.107 1194.39 178.686C1181.23 169.852 1167.85 161.281 1153.15 153.469C1140.23 146.599 1125.7 140.356 1109.82 135.224C1064.9 120.718 1011.64 115.509 966.907 127.897C951.037 132.299 937.611 138.406 925.732 145.55C903.116 159.078 886.039 176.307 868.022 192.64C850.461 208.553 830.15 224.443 807.807 238.279C783.395 253.346 756.405 265.918 724.744 272.795C722.464 273.289 720.154 273.758 717.814 274.2C687.918 279.792 656.451 280.183 623.943 276.884C600.017 274.461 576.079 269.995 552.353 266.512C536.328 264.166 519.77 262.336 503.224 261.908C461.854 260.79 423.873 267.688 390.363 281.466C360.015 293.962 340.176 309.231 323.468 323.831C307.749 337.566 294.675 350.746 275.635 361.083C275.103 361.371 274.571 361.659 274.038 361.938C257.067 370.869 233.947 377 205.813 383.033C183.637 387.781 160.184 393.351 138.028 395.707C91.2833 400.668 10.0855 389.559 -17.5365 371.854" stroke="url(#paint4_linear_7014_93037)" stroke-width="2.58926" stroke-miterlimit="10"/>
<path style="mix-blend-mode:multiply" opacity="0.77" d="M1473.86 249.567C1446.22 263.979 1405.99 267.315 1368.06 261.779C1339.1 257.584 1311.63 248.511 1289.21 237.161C1283.03 234.037 1277.12 230.757 1271.45 227.363C1243.47 210.604 1222.28 190.756 1196.13 173.15C1182.87 164.211 1169.44 155.517 1154.68 147.592C1141.71 140.616 1127.13 134.277 1111.11 129.048C1065.93 114.34 1012.26 109.061 966.769 121.009C950.641 125.253 936.85 131.175 924.547 138.16C901.095 151.38 883.077 168.361 864.421 184.667C846.253 200.552 825.744 216.573 803.628 230.742C779.49 246.16 753.258 259.322 722.143 266.952C719.894 267.509 717.629 268.03 715.319 268.525C685.878 274.844 654.394 276.104 621.551 273.154C597.381 270.993 573.155 266.501 549.155 263.07C532.932 260.758 516.192 258.972 499.525 258.763C457.895 258.152 420.672 266.297 386.706 280.065C355.993 292.534 334.667 306.879 316.746 320.075C299.86 332.511 285.786 343.962 266.414 352.694C265.882 352.939 265.335 353.183 264.787 353.418C247.56 360.946 224.442 365.675 195.899 371.269C173.42 375.675 149.92 381.692 128.037 384.495C83.2358 390.249 19.5292 381.841 -6.85013 366.005" stroke="url(#paint5_linear_7014_93037)" stroke-width="2.58926" stroke-miterlimit="10"/>
<path style="mix-blend-mode:multiply" opacity="0.73" d="M1476.57 243.688C1449.66 258.68 1408.97 262.637 1370.67 257.301C1341.34 253.246 1313.6 244.12 1290.96 232.621C1284.74 229.462 1278.79 226.138 1273.1 222.691C1244.97 205.677 1224.21 185.419 1197.89 167.62C1184.52 158.567 1171.06 149.759 1156.25 141.711C1143.21 134.63 1128.59 128.195 1112.42 122.869C1066.98 107.958 1012.9 102.617 966.662 114.117C950.276 118.202 936.136 123.957 923.408 130.758C899.167 143.704 880.161 160.403 860.883 176.681C842.106 192.53 821.4 208.691 799.512 223.193C775.646 238.953 750.173 252.712 719.588 261.098C717.384 261.707 715.15 262.289 712.87 262.837C683.868 269.876 652.383 272.003 619.205 269.42C594.777 267.522 570.277 263.012 546.019 259.615C529.583 257.329 512.691 255.604 495.871 255.605C453.998 255.511 417.517 264.884 383.08 278.651C352.018 291.092 329.189 304.506 310.04 316.297C291.955 327.425 276.927 337.156 257.209 344.285C256.662 344.485 256.114 344.685 255.552 344.877C238.069 351.002 214.938 354.32 186.016 359.475C163.218 363.53 139.703 369.976 118.092 373.262C75.2495 379.765 27.565 374.93 2.41319 360.946" stroke="url(#paint6_linear_7014_93037)" stroke-width="2.58926" stroke-miterlimit="10"/>
<path style="mix-blend-mode:multiply" opacity="0.68" d="M1479.27 237.82C1453.13 253.391 1411.96 257.97 1373.29 252.826C1343.61 248.919 1315.59 239.731 1292.73 228.083C1286.46 224.889 1280.46 221.521 1274.74 218.03C1246.46 200.771 1226.13 180.093 1199.64 162.101C1186.15 152.934 1172.66 144.004 1157.78 135.85C1144.68 128.664 1130.02 122.124 1113.7 116.719C1068 101.606 1013.51 96.2031 966.515 107.254C949.872 111.181 935.352 116.76 922.213 123.393C897.153 136.049 877.19 152.491 857.274 168.732C837.89 184.554 816.986 200.846 795.324 215.681C771.731 231.792 747.017 246.14 716.979 255.28C714.805 255.941 712.616 256.577 710.381 257.186C681.819 264.953 650.333 267.947 616.82 265.715C592.148 264.079 567.36 259.542 542.828 256.197C526.179 253.937 509.12 252.29 492.179 252.475C450.046 252.942 414.323 263.507 379.43 277.256C348.003 289.67 323.687 302.152 303.325 312.539C284.057 322.367 268.06 330.37 247.995 335.894C247.432 336.05 246.885 336.198 246.323 336.355C228.599 341.086 205.456 342.993 176.124 347.7C153.008 351.404 129.492 358.27 108.123 362.039C67.2548 369.247 2.46723 359.134 -21.4571 347.01" stroke="url(#paint7_linear_7014_93037)" stroke-width="2.58926" stroke-miterlimit="10"/>
<path style="mix-blend-mode:multiply" opacity="0.64" d="M1481.99 231.922C1456.59 248.064 1414.96 253.273 1375.89 248.321C1345.86 244.553 1317.56 235.304 1294.5 223.514C1288.17 220.286 1282.14 216.873 1276.39 213.339C1247.96 195.826 1228.03 174.737 1201.38 156.561C1187.79 147.279 1174.25 138.235 1159.33 129.967C1146.17 122.676 1131.46 116.039 1115 110.538C1069.05 95.2232 1014.15 89.7489 966.405 100.36C949.503 104.129 934.619 109.532 921.055 115.998C895.159 128.353 874.256 144.54 853.716 160.754C833.725 176.539 812.608 192.97 791.204 208.148C767.899 224.61 743.944 239.546 714.436 249.45C712.307 250.164 710.134 250.861 707.945 251.522C679.822 260.018 648.319 263.871 614.501 261.997C589.57 260.623 564.509 256.068 539.703 252.767C522.857 250.533 505.63 248.947 488.552 249.342C446.175 250.325 411.195 262.128 375.831 275.866C344.055 288.245 318.221 299.812 296.661 308.786C276.195 317.305 259.259 323.598 238.832 327.509C238.27 327.613 237.707 327.725 237.13 327.829C219.15 331.158 196.009 331.663 166.283 335.923C142.864 339.275 119.332 346.544 98.2202 350.822C59.3262 358.682 11.856 351.307 -10.8409 341.043" stroke="url(#paint8_linear_7014_93037)" stroke-width="2.58926" stroke-miterlimit="10"/>
<path style="mix-blend-mode:multiply" opacity="0.59" d="M1484.67 226.057C1460.02 242.78 1417.93 248.609 1378.48 243.85C1348.09 240.23 1319.53 230.919 1296.24 218.971C1289.86 215.707 1283.79 212.251 1278.02 208.664C1249.45 190.905 1229.94 169.396 1203.13 151.028C1189.42 141.641 1175.86 132.465 1160.86 124.092C1147.64 116.696 1132.88 109.962 1116.27 104.364C1070.08 88.8477 1014.75 83.3112 966.266 93.4741C949.122 97.0847 933.843 102.303 919.885 108.601C893.153 120.657 871.293 136.588 850.131 152.774C829.531 168.531 808.217 185.094 787.04 200.605C764.008 217.418 740.811 232.943 711.834 243.601C709.736 244.376 707.608 245.126 705.449 245.849C677.765 255.072 646.261 259.793 612.108 258.278C586.934 257.166 561.584 252.584 536.52 249.326C519.461 247.119 502.082 245.594 484.867 246.198C442.231 247.689 407.993 260.729 372.173 274.458C340.032 286.81 312.696 297.445 289.923 305.022C268.244 312.243 250.384 316.807 229.61 319.113C229.033 319.174 228.455 319.242 227.878 319.303C209.642 321.237 186.489 320.323 156.368 324.144C132.631 327.154 109.113 334.8 88.2286 339.595C51.3087 348.072 15.3072 343.758 -6.14699 335.355" stroke="url(#paint9_linear_7014_93037)" stroke-width="2.58926" stroke-miterlimit="10"/>
<path style="mix-blend-mode:multiply" opacity="0.55" d="M1487.42 220.188C1463.51 237.481 1420.97 243.941 1381.12 239.382C1350.38 235.902 1321.53 226.529 1298.03 214.441C1291.61 211.133 1285.49 207.642 1279.69 204.011C1250.96 185.998 1231.89 164.087 1204.89 145.516C1191.08 136.016 1177.46 126.726 1162.42 118.239C1149.14 110.737 1134.34 103.899 1117.58 98.2125C1071.12 82.5029 1015.39 76.8867 966.145 86.6099C948.742 90.0534 933.084 95.1041 918.716 101.235C891.149 112.992 868.347 128.666 846.562 144.815C825.37 160.537 803.843 177.23 782.894 193.083C760.135 210.239 737.696 226.36 709.265 237.773C707.212 238.602 705.114 239.404 702.986 240.188C675.741 250.131 644.235 255.719 609.748 254.563C584.33 253.722 558.692 249.114 533.354 245.899C516.098 243.717 498.537 242.253 481.184 243.059C438.304 245.066 404.808 259.343 368.533 273.062C336.027 285.387 307.173 295.081 283.217 301.263C260.326 307.175 241.541 310.029 220.406 310.722C219.828 310.738 219.236 310.763 218.659 310.78C200.182 311.312 177.016 308.995 146.501 312.368C122.46 315.027 98.9268 323.041 78.2999 328.38C43.339 337.414 9.40145 334.514 -10.8252 327.971" stroke="url(#paint10_linear_7014_93037)" stroke-width="2.58926" stroke-miterlimit="10"/>
<path style="mix-blend-mode:multiply" opacity="0.5" d="M1490.12 214.299C1466.94 232.172 1423.93 239.253 1383.72 234.886C1352.63 231.554 1323.5 222.119 1299.78 209.882C1293.3 206.539 1287.15 203.004 1281.32 199.329C1252.44 181.07 1233.79 158.74 1206.62 139.985C1192.71 130.37 1179.05 120.966 1163.95 112.365C1150.6 104.759 1135.76 97.8233 1118.84 92.0406C1072.13 76.129 1015.99 70.4506 965.999 79.7166C948.339 83.0019 932.316 87.8677 917.523 93.8315C889.137 105.288 865.378 120.706 842.97 136.828C821.17 152.522 799.445 169.346 778.723 185.542C756.237 203.048 734.573 219.758 706.671 231.935C704.649 232.815 702.596 233.679 700.498 234.516C673.709 245.187 642.186 251.643 607.364 250.836C581.687 250.258 555.775 245.622 530.164 242.46C512.695 240.304 494.982 238.892 477.492 239.917C434.353 242.44 401.615 257.954 364.868 271.655C332.013 283.944 301.626 292.706 276.488 297.492C252.368 302.087 232.675 303.248 211.177 302.311C210.585 302.283 209.992 302.264 209.4 302.237C190.668 301.375 167.489 297.639 136.595 300.573C112.235 302.881 88.7166 311.237 68.3166 317.136C35.2844 326.691 3.44107 325.233 -15.5581 320.55" stroke="url(#paint11_linear_7014_93037)" stroke-width="2.58926" stroke-miterlimit="10"/>
<path style="mix-blend-mode:multiply" opacity="0.45" d="M1492.82 208.419C1470.4 226.863 1426.93 234.574 1386.33 230.399C1354.86 227.207 1325.47 217.71 1301.54 205.332C1295.01 201.954 1288.82 198.375 1282.98 194.656C1253.95 176.152 1235.72 153.402 1208.38 134.454C1194.35 124.725 1180.65 115.199 1165.5 106.493C1152.1 98.7806 1137.21 91.7401 1120.15 85.8783C1073.19 69.7647 1016.63 64.0242 965.885 72.8417C947.966 75.9687 931.564 80.6585 916.376 86.4549C887.154 97.6119 862.454 112.774 839.408 128.868C817.001 144.534 795.078 161.489 774.583 178.018C752.37 195.875 731.464 213.174 704.093 226.105C702.117 227.048 700.094 227.964 698.026 228.853C671.676 240.253 640.152 247.567 604.995 247.119C579.075 246.803 552.874 242.15 527.005 239.021C509.323 236.9 491.458 235.541 473.831 236.775C430.448 239.807 398.452 256.558 361.234 270.257C328.015 282.519 296.095 290.332 269.774 293.74C244.44 297.018 223.839 296.486 201.964 293.926C201.372 293.855 200.764 293.792 200.157 293.721C181.169 291.457 157.992 286.319 126.689 288.805C102.026 290.762 78.4763 299.433 58.3488 305.92C27.2302 315.952 -2.50374 315.988 -20.2754 313.165" stroke="url(#paint12_linear_7014_93037)" stroke-width="2.58926" stroke-miterlimit="10"/>
<path style="mix-blend-mode:multiply" opacity="0.41" d="M1495.53 202.546C1473.85 221.57 1429.92 229.902 1388.94 225.919C1357.13 222.875 1327.45 213.316 1303.3 200.78C1296.73 197.367 1290.49 193.744 1284.62 189.973C1255.43 171.214 1237.64 148.053 1210.12 128.912C1195.99 119.078 1182.26 109.429 1167.04 100.609C1153.57 92.7918 1138.63 85.6549 1121.43 79.6964C1074.21 63.3809 1017.24 57.5695 965.75 65.9473C947.573 68.916 930.792 73.421 915.193 79.05C885.137 89.8986 859.495 104.813 835.826 120.88C812.811 136.51 790.675 153.604 770.438 170.467C748.498 188.675 728.351 206.562 701.526 220.248C699.579 221.243 697.602 222.212 695.565 223.163C669.654 235.29 638.113 243.463 602.651 243.382C576.473 243.329 549.998 238.657 523.856 235.572C505.976 233.477 487.928 232.179 470.18 233.615C426.538 237.154 395.299 255.15 357.626 268.84C324.042 281.075 290.604 287.938 263.1 289.959C236.538 291.912 215.013 289.695 192.792 285.514C192.184 285.399 191.577 285.284 190.969 285.168C171.74 281.502 148.551 274.953 116.854 277C91.8725 278.614 68.2917 287.575 48.4519 294.676C19.2165 305.141 -8.3778 306.714 -24.9068 305.752" stroke="url(#paint13_linear_7014_93037)" stroke-width="2.58926" stroke-miterlimit="10"/>
<path style="mix-blend-mode:multiply" opacity="0.36" d="M1498.24 196.676C1477.3 216.279 1432.92 225.232 1391.54 221.442C1359.38 218.537 1329.43 208.916 1305.05 196.24C1298.42 192.792 1292.15 189.125 1286.24 185.31C1256.91 166.305 1239.52 142.725 1211.84 123.4C1197.61 113.451 1183.83 103.679 1168.56 94.7541C1155.03 86.8315 1140.05 79.5982 1122.7 73.543C1075.21 57.0254 1017.84 51.1519 965.603 59.0813C947.168 61.8917 930.023 66.212 913.999 71.6824C883.108 82.2313 856.509 96.8986 832.217 112.929C808.594 128.531 786.261 145.757 766.251 162.952C744.584 181.512 725.211 199.988 698.916 214.437C697.015 215.484 695.068 216.514 693.076 217.518C667.605 230.365 636.063 239.414 600.266 239.683C573.844 239.892 547.081 235.194 520.664 232.161C502.572 230.091 484.373 228.828 466.487 230.5C422.586 234.503 392.089 253.78 353.96 267.46C320.027 279.659 285.056 285.573 256.354 286.216C228.579 286.834 206.13 282.951 183.547 277.139C182.924 276.98 182.317 276.821 181.694 276.662C162.21 271.602 139.007 263.642 106.916 265.242C81.6314 266.505 57.9743 275.736 38.4372 283.469C11.0244 294.332 -14.3695 297.479 -29.671 298.376" stroke="url(#paint14_linear_7014_93037)" stroke-width="2.58926" stroke-miterlimit="10"/>
<path style="mix-blend-mode:multiply" opacity="0.32" d="M1500.95 190.795C1480.77 210.969 1435.91 220.552 1394.15 216.962C1361.63 214.198 1331.41 204.524 1306.83 191.698C1300.15 188.214 1293.84 184.504 1287.92 180.645C1258.43 161.386 1241.47 137.394 1213.63 117.876C1199.29 107.814 1185.46 97.9278 1170.13 88.8799C1156.53 80.852 1141.52 73.5135 1124.03 67.3704C1076.3 50.6508 1018.5 44.7151 965.506 52.196C946.813 54.8482 929.273 58.9749 912.87 64.2955C881.097 74.5096 853.603 88.956 828.688 104.959C804.458 120.524 781.926 137.89 762.144 155.428C740.75 174.329 722.135 193.403 696.371 208.606C694.5 209.707 692.599 210.798 690.637 211.863C665.605 225.438 634.061 235.346 597.93 235.974C571.264 236.445 544.213 231.729 517.538 228.73C499.248 226.687 480.866 225.484 462.843 227.366C418.683 231.886 388.944 252.4 350.359 266.07C316.061 278.242 279.573 283.198 249.688 282.463C220.7 281.755 197.311 276.196 174.397 268.754C173.774 268.551 173.137 268.348 172.514 268.146C152.774 261.682 129.574 252.312 97.0878 253.473C71.485 254.385 47.7211 263.853 28.5475 272.261C2.92697 283.495 -20.2363 288.241 -34.3103 290.999" stroke="url(#paint15_linear_7014_93037)" stroke-width="2.58926" stroke-miterlimit="10"/>
<path style="mix-blend-mode:multiply" opacity="0.27" d="M1503.67 184.895C1484.23 205.649 1438.9 215.853 1396.78 212.456C1363.9 209.839 1333.41 200.094 1308.61 187.119C1301.88 183.6 1295.52 179.846 1289.57 175.934C1259.93 156.43 1243.4 132.028 1215.39 112.307C1200.92 102.131 1187.08 92.1311 1171.69 82.9692C1158.03 74.8448 1142.97 67.4011 1125.33 61.1701C1077.35 44.2485 1019.14 38.2418 965.399 45.2831C946.449 47.777 928.529 51.7189 911.716 56.8722C879.108 66.7779 850.672 80.977 825.119 96.952C800.281 112.49 777.552 129.978 757.997 147.858C736.876 167.11 719.02 186.773 693.801 202.731C691.976 203.892 690.105 205.028 688.174 206.154C663.581 220.457 632.036 231.233 595.569 232.219C568.645 232.953 541.32 228.21 514.371 225.263C495.869 223.245 477.335 222.104 459.175 224.187C414.77 229.215 385.774 250.975 346.718 264.626C312.056 276.771 274.065 280.769 242.982 278.664C212.796 276.622 188.453 269.396 165.192 260.324C164.555 260.077 163.917 259.83 163.294 259.584C143.313 251.727 120.085 240.946 87.2204 241.659C61.2991 242.219 37.3829 251.906 18.6032 260.999C-5.3011 272.578 -26.1577 278.941 -39.0042 283.559" stroke="url(#paint16_linear_7014_93037)" stroke-width="2.58926" stroke-miterlimit="10"/>
<path style="mix-blend-mode:multiply" opacity="0.23" d="M1506.37 179.03C1487.68 200.356 1441.9 211.181 1399.38 207.984C1366.15 205.507 1335.37 195.709 1310.36 182.585C1303.57 179.031 1297.18 175.232 1291.2 171.277C1261.41 151.518 1245.3 126.705 1217.11 106.8C1202.54 96.5098 1188.65 86.3871 1173.2 77.12C1159.48 68.8903 1144.38 61.3501 1126.58 55.0225C1078.34 37.8988 1019.72 31.8301 965.223 38.4228C946.029 40.7586 927.714 44.5244 910.491 49.5104C877.064 59.1164 847.671 73.0594 821.495 89.0068C796.05 104.509 773.123 122.136 753.795 140.35C732.946 159.953 715.864 180.204 691.176 196.925C689.381 198.14 687.541 199.336 685.655 200.516C661.502 215.547 629.955 227.181 593.154 228.526C565.986 229.522 538.372 224.761 511.15 221.858C492.435 219.866 473.733 218.776 455.452 221.079C410.788 226.622 382.549 249.611 343.022 263.261C308.011 275.37 268.502 278.41 236.206 274.935C204.807 271.551 179.525 262.658 155.917 251.963C155.28 251.673 154.627 251.382 153.989 251.083C133.752 241.824 110.527 229.632 77.2522 229.906C51.0277 230.124 26.8833 240.003 8.57329 249.807C-13.6602 261.714 -32.1646 269.72 -43.7685 276.199" stroke="url(#paint17_linear_7014_93037)" stroke-width="2.58926" stroke-miterlimit="10"/>
<path style="mix-blend-mode:multiply" opacity="0.18" d="M1509.06 173.16C1491.1 195.065 1444.87 206.512 1401.96 203.507C1368.38 201.178 1337.34 191.31 1312.09 178.044C1305.26 174.455 1298.83 170.613 1292.83 166.614C1262.89 146.609 1247.21 121.376 1218.84 101.279C1204.17 90.8826 1190.24 80.6371 1174.74 71.2559C1160.96 62.921 1145.81 55.2755 1127.88 48.8599C1079.38 31.5342 1020.35 25.4032 965.109 31.5476C945.658 33.7163 926.979 37.3061 909.331 42.1248C875.068 51.4313 844.733 65.1182 817.92 81.0381C791.866 96.5126 768.726 114.271 749.657 132.827C729.096 152.781 712.758 173.621 688.6 191.097C686.851 192.364 685.04 193.622 683.185 194.854C659.486 210.605 627.907 223.115 590.802 224.81C563.375 226.069 535.488 221.28 508.007 218.42C489.095 216.454 470.226 215.426 451.807 217.938C406.884 223.999 379.403 248.224 339.42 261.856C304.044 273.938 263.033 276.019 229.539 271.167C196.957 266.448 170.645 255.915 146.751 243.563C146.098 243.229 145.446 242.895 144.793 242.552C124.3 231.898 101.077 218.296 67.4083 218.122C40.8652 217.989 16.4318 228.043 -1.3476 238.575C-21.9864 250.809 -38.0626 260.459 -48.439 268.798" stroke="url(#paint18_linear_7014_93037)" stroke-width="2.58926" stroke-miterlimit="10"/>
<path style="mix-blend-mode:multiply" opacity="0.14" d="M1511.78 167.273C1494.57 189.758 1447.88 201.826 1404.58 199.021C1370.64 196.832 1339.31 186.91 1313.87 173.496C1306.98 169.872 1300.52 165.985 1294.49 161.933C1264.4 141.674 1249.14 116.03 1220.6 95.7393C1205.82 85.2292 1191.86 74.8609 1176.28 65.3744C1162.44 56.9342 1147.25 49.1922 1129.16 42.6799C1080.4 25.152 1020.96 18.9501 964.98 24.6548C945.27 26.6653 926.211 30.0704 908.168 34.7305C873.071 43.7374 841.795 57.1684 814.358 73.052C787.697 88.4903 764.359 106.389 745.517 125.278C725.229 145.575 709.649 167.012 686.037 185.243C684.318 186.571 682.554 187.882 680.728 189.166C657.469 205.646 625.889 219.015 588.448 221.068C560.778 222.589 532.602 217.783 504.848 214.966C485.723 213.035 466.702 212.058 448.131 214.772C402.964 221.34 376.21 246.803 335.771 260.434C300.046 272.489 257.532 273.603 222.825 267.39C189.045 261.337 161.778 249.119 137.538 235.155C136.87 234.776 136.218 234.39 135.55 234.011C114.816 221.956 91.5652 206.942 57.5022 206.33C30.6559 205.846 5.85756 216.056 -11.3154 227.343C-30.4202 239.896 -44.0075 251.199 -53.1564 261.397" stroke="url(#paint19_linear_7014_93037)" stroke-width="2.58926" stroke-miterlimit="10"/>
<path style="mix-blend-mode:multiply" opacity="0.09" d="M1514.5 161.4C1498.04 184.457 1450.88 197.154 1407.21 194.542C1372.92 192.501 1341.32 182.509 1315.65 168.944C1308.71 165.276 1302.2 161.355 1296.14 157.259C1265.9 136.755 1251.07 110.69 1222.36 90.2151C1207.47 79.5908 1193.47 69.1084 1177.85 59.5079C1163.95 50.9623 1148.7 43.1238 1130.47 36.5148C1081.45 18.7847 1021.6 12.5206 964.86 17.777C944.892 19.6292 925.469 22.8583 907.001 27.3424C871.068 36.0497 838.835 49.2247 810.791 65.0808C783.522 80.4916 759.987 98.5213 741.372 117.744C721.357 138.392 706.535 160.418 683.469 179.412C681.796 180.793 680.061 182.157 678.281 183.503C655.461 200.71 623.88 214.947 586.104 217.359C558.19 219.142 529.726 214.309 501.698 211.544C482.375 209.638 463.172 208.714 444.479 211.647C399.053 218.732 373.056 245.431 332.162 259.044C296.072 271.072 252.086 271.194 216.136 263.637C181.188 256.214 152.936 242.356 128.365 226.77C127.697 226.348 127.029 225.917 126.361 225.495C105.372 212.037 82.1233 195.621 47.666 194.561C20.5012 193.726 -4.72277 204.076 -21.2286 216.126C-38.8601 229.006 -49.8978 241.953 -57.8192 254.003" stroke="url(#paint20_linear_7014_93037)" stroke-width="2.58926" stroke-miterlimit="10"/>
<path style="mix-blend-mode:multiply" opacity="0.05" d="M1517.23 155.539C1501.51 179.175 1453.89 192.494 1409.83 190.074C1375.18 188.172 1343.3 178.127 1317.42 164.413C1310.44 160.71 1303.88 156.745 1297.81 152.605C1267.41 131.846 1253 105.371 1224.12 84.7021C1209.13 73.9637 1195.07 63.3673 1179.4 53.6526C1165.43 45.0018 1150.15 37.058 1131.77 30.3698C1082.5 12.4376 1022.24 6.10253 964.753 10.9193C944.527 12.6133 924.725 15.6575 905.847 19.9831C869.094 28.382 835.904 41.3186 807.222 57.1385C779.346 72.5218 755.612 90.6826 737.225 110.239C717.483 131.238 703.435 153.852 680.884 173.602C679.241 175.035 677.552 176.46 675.802 177.868C653.422 195.803 621.839 210.899 583.728 213.669C555.556 215.724 526.818 210.864 498.532 208.134C478.996 206.254 459.641 205.391 440.811 208.533C395.141 216.126 369.887 244.071 328.521 257.675C292.066 269.667 246.578 268.847 209.43 259.904C173.284 251.164 144.078 235.604 119.16 218.396C118.477 217.93 117.809 217.456 117.126 216.99C95.8809 202.138 72.6197 184.302 37.7681 182.803C10.3001 181.626 -15.456 192.106 -31.1882 204.929C-47.4225 218.154 -55.8345 232.727 -62.5132 246.638" stroke="url(#paint21_linear_7014_93037)" stroke-width="2.58926" stroke-miterlimit="10"/>
</g>
<defs>
<linearGradient id="paint0_linear_7014_93037" x1="744.647" y1="147.259" x2="745.958" y2="439.011" gradientUnits="userSpaceOnUse">
<stop stop-color="#C79FFC"/>
<stop offset="1" stop-color="#A86DF5"/>
</linearGradient>
<linearGradient id="paint1_linear_7014_93037" x1="743.631" y1="140.768" x2="744.922" y2="427.881" gradientUnits="userSpaceOnUse">
<stop stop-color="#C69EFC"/>
<stop offset="1" stop-color="#E5D0F7"/>
</linearGradient>
<linearGradient id="paint2_linear_7014_93037" x1="742.714" y1="134.284" x2="743.986" y2="416.848" gradientUnits="userSpaceOnUse">
<stop stop-color="#9D5BF4"/>
<stop offset="1" stop-color="#BF91FC"/>
</linearGradient>
<linearGradient id="paint3_linear_7014_93037" x1="741.706" y1="127.786" x2="742.96" y2="405.882" gradientUnits="userSpaceOnUse">
<stop stop-color="#E4C5E9"/>
<stop offset="1" stop-color="#B17DF7"/>
</linearGradient>
<linearGradient id="paint4_linear_7014_93037" x1="740.767" y1="121.284" x2="742.003" y2="395" gradientUnits="userSpaceOnUse">
<stop stop-color="#C39AF9"/>
<stop offset="1" stop-color="#BF90FB"/>
</linearGradient>
<linearGradient id="paint5_linear_7014_93037" x1="739.817" y1="114.77" x2="741.025" y2="384.184" gradientUnits="userSpaceOnUse">
<stop stop-color="#B583F9"/>
<stop offset="1" stop-color="#4E3C86"/>
</linearGradient>
<linearGradient id="paint6_linear_7014_93037" x1="738.843" y1="108.257" x2="740.037" y2="373.47" gradientUnits="userSpaceOnUse">
<stop stop-color="#9C5BF3"/>
<stop offset="1" stop-color="#9E5BF7"/>
</linearGradient>
<linearGradient id="paint7_linear_7014_93037" x1="737.902" y1="101.746" x2="739.077" y2="362.849" gradientUnits="userSpaceOnUse">
<stop stop-color="#E2C7EC"/>
<stop offset="1" stop-color="#A161F7"/>
</linearGradient>
<linearGradient id="paint8_linear_7014_93037" x1="736.964" y1="95.2039" x2="738.121" y2="352.323" gradientUnits="userSpaceOnUse">
<stop stop-color="#BF92FB"/>
<stop offset="1" stop-color="#E5D2FA"/>
</linearGradient>
<linearGradient id="paint9_linear_7014_93037" x1="736.009" y1="88.6836" x2="737.148" y2="341.964" gradientUnits="userSpaceOnUse">
<stop stop-color="#D0A7E8"/>
<stop offset="1" stop-color="#C093FC"/>
</linearGradient>
<linearGradient id="paint10_linear_7014_93037" x1="735.117" y1="82.1583" x2="736.241" y2="331.794" gradientUnits="userSpaceOnUse">
<stop stop-color="#E5D0F7"/>
<stop offset="1" stop-color="#BB8DF9"/>
</linearGradient>
<linearGradient id="paint11_linear_7014_93037" x1="734.197" y1="75.6002" x2="735.305" y2="321.862" gradientUnits="userSpaceOnUse">
<stop stop-color="#C89FFE"/>
<stop offset="0.930555" stop-color="#DADCE9"/>
<stop offset="1" stop-color="#976CD1"/>
</linearGradient>
<linearGradient id="paint12_linear_7014_93037" x1="733.319" y1="69.0413" x2="734.415" y2="312.351" gradientUnits="userSpaceOnUse">
<stop stop-color="#E5CFF6"/>
<stop offset="0.9999" stop-color="#9E5EF3"/>
<stop offset="1" stop-color="#D9DDE8"/>
</linearGradient>
<linearGradient id="paint13_linear_7014_93037" x1="732.45" y1="62.4852" x2="733.534" y2="303.516" gradientUnits="userSpaceOnUse">
<stop stop-color="#DBC2FC"/>
<stop offset="0.081597" stop-color="#FAF7FF"/>
<stop offset="1" stop-color="#C79EFC"/>
</linearGradient>
<linearGradient id="paint14_linear_7014_93037" x1="731.489" y1="55.9366" x2="732.571" y2="295.836" gradientUnits="userSpaceOnUse">
<stop stop-color="#B07AF8"/>
<stop offset="1" stop-color="#A365F5"/>
</linearGradient>
<linearGradient id="paint15_linear_7014_93037" x1="730.341" y1="49.3557" x2="731.418" y2="288.384" gradientUnits="userSpaceOnUse">
<stop stop-color="#C59CFB"/>
<stop offset="1" stop-color="#A76AF8"/>
</linearGradient>
<linearGradient id="paint16_linear_7014_93037" x1="729.195" y1="42.7473" x2="730.266" y2="280.861" gradientUnits="userSpaceOnUse">
<stop stop-color="#7C64C6"/>
<stop offset="1" stop-color="#C79FFD"/>
</linearGradient>
<linearGradient id="paint17_linear_7014_93037" x1="728.096" y1="36.1599" x2="729.17" y2="275.045" gradientUnits="userSpaceOnUse">
<stop stop-color="#A294C9"/>
<stop offset="1" stop-color="#4E3C86"/>
</linearGradient>
<linearGradient id="paint18_linear_7014_93037" x1="726.984" y1="29.5622" x2="728.079" y2="272.384" gradientUnits="userSpaceOnUse">
<stop stop-color="#E5CBF2"/>
<stop offset="1" stop-color="#9C5BF3"/>
</linearGradient>
<linearGradient id="paint19_linear_7014_93037" x1="725.957" y1="22.9347" x2="727.071" y2="269.91" gradientUnits="userSpaceOnUse">
<stop stop-color="#C397FD"/>
<stop offset="1" stop-color="#C79EFC"/>
</linearGradient>
<linearGradient id="paint20_linear_7014_93037" x1="724.936" y1="16.3096" x2="726.069" y2="267.6" gradientUnits="userSpaceOnUse">
<stop stop-color="#C79EFC"/>
<stop offset="1" stop-color="#9C5BF4"/>
</linearGradient>
<linearGradient id="paint21_linear_7014_93037" x1="723.955" y1="9.68348" x2="725.103" y2="265.453" gradientUnits="userSpaceOnUse">
<stop stop-color="#E5D0F8"/>
<stop offset="1" stop-color="#9E5BF6"/>
</linearGradient>
</defs>
</svg>
