<svg width="1440" height="1321" preserveAspectRatio="none" viewBox="0 0 1440 1321" fill="none" xmlns="http://www.w3.org/2000/svg">
<path d="M-114.922 324.122C-70.1818 356.911 -15.7756 390.597 17.9175 434.58C70.4909 503.22 1.2969 601.692 75.0854 666.82C134.212 719.013 133.534 775.641 126.855 851.752C121.633 911.469 119.097 1009.55 186.685 1023.96C258.515 1039.27 306.494 994.972 358.941 942.304C427.533 873.427 543.275 827.755 631.324 865.401C677.018 884.937 724.846 885.122 776.34 882.376C813.372 880.396 854.823 871.5 888.567 886.204C930.093 904.288 937.223 958.092 946.764 1000.38C961.903 1067.57 1014.05 1148.91 1070.54 1181.99C1159.47 1234.05 1244.91 1093.92 1328.16 1079.82C1397.05 1068.15 1469.23 1130.59 1531.92 1074.36" stroke="#9A8EC2" stroke-width="0.75" stroke-miterlimit="10"/>
<path d="M-114.922 324.122C-69.4537 356.805 -15.8761 389.277 20.5537 431.834C76.3658 497.068 8.55272 594.405 79.1778 658.584C138.254 712.255 144.53 756.739 137.651 836.652C132.479 896.712 125.751 996.055 195.145 1011.53C267.503 1027.66 315.457 980.373 369.687 930.53C446.011 860.359 543.726 812.839 641.467 855.528C688.09 875.882 733.684 879.499 785.002 878.126C821.808 877.149 861.753 869.335 895.722 883.485C941.265 902.44 943.651 960.124 953.944 1004.24C968.481 1066.6 1020.63 1145.48 1074.08 1174.76C1164.79 1224.41 1246.91 1087.72 1331.62 1076.63C1398.93 1067.84 1469.86 1129.43 1531.9 1074.36" stroke="#9A8EC2" stroke-width="0.75" stroke-miterlimit="10"/>
<path d="M-114.922 324.122C-68.7507 356.7 -15.8761 388.063 23.1146 429.115C82.0148 491.128 15.0804 588.888 83.2199 650.426C141.794 703.332 154.422 742.219 148.221 822.026C143.526 882.324 132.153 982.696 203.004 999.487C276.089 1016.81 325.298 965.51 381.663 918.465C415.005 890.613 455.1 862.392 494.291 841.747C553.141 810.753 593.99 818.568 651.56 846.103C697.329 868.015 742.446 874.113 793.613 874.008C830.168 873.928 868.431 867.355 902.727 880.792C948.973 898.929 950.756 956.085 959.669 999.672C972.222 1060.87 1024.24 1139.91 1077.57 1167.18C1170.34 1214.62 1252.29 1077.31 1335.04 1073.54C1395.82 1070.77 1473.63 1125.68 1531.85 1074.36" stroke="#9A8EC2" stroke-width="0.75" stroke-miterlimit="10"/>
<path d="M-114.922 324.122C-68.0728 356.568 -15.8258 386.98 25.6253 426.369C87.8145 485.479 22.6376 583.291 87.3374 642.189C144.129 693.907 163.386 729.177 158.465 808.087C154.699 868.384 138.655 969.523 210.31 987.739C284.048 1006.48 334.99 953.788 394.091 906.796C429.064 878.971 466.122 847.212 505.514 825.828C564.54 793.831 605.539 808.034 661.703 837.312C706.593 860.728 751.133 868.965 802.225 869.995C838.429 870.734 875.16 865.454 909.631 878.232C956.631 895.629 958.037 951.782 965.644 995.184C976.239 1055.61 1027.86 1133.81 1081.08 1159.42C1175.64 1204.88 1250.66 1074.65 1338.53 1070.66C1403.08 1067.73 1471.34 1127.16 1531.9 1074.36" stroke="#9A8EC2" stroke-width="0.75" stroke-miterlimit="10"/>
<path d="M-114.922 324.122C-67.4201 356.409 -15.4995 385.951 28.0857 423.65C93.363 480.12 30.1445 577.034 91.5554 633.794C146.263 684.35 171.269 718.116 168.206 795.098C165.821 854.973 143.175 950.7 217.089 976.36C289.998 1001.68 353.87 936.866 406.393 894.996C441.417 867.091 476.566 830.844 516.31 809.301C575.311 777.304 617.766 799.005 671.846 829.365C715.933 854.128 759.719 864.028 810.761 866.114C846.463 867.566 881.938 863.764 916.309 875.829C964.113 892.593 965.318 947.188 971.72 990.775C980.582 1050.89 1031.25 1127.18 1084.55 1151.45C1180.33 1195.03 1252.61 1068.07 1341.92 1067.84C1405.36 1067.68 1471.92 1126 1531.87 1074.33" stroke="#9A8EC2" stroke-width="0.75" stroke-miterlimit="10"/>
<path d="M-114.922 324.122C-66.7924 356.224 -14.9722 384.974 30.4709 420.957C98.9618 475.13 38.3794 570.54 95.9992 625.135C147.468 673.896 178.098 709.377 177.395 783.139C176.818 842.116 150.606 938.239 223.541 965.193C295.447 991.804 368.206 925.092 418.595 882.535C452.363 853.996 486.659 813.314 526.83 792.352C585.63 761.676 630.621 791.481 682.14 822.29C725.574 848.268 768.331 859.171 819.322 862.233C854.396 864.345 888.843 862.26 922.862 873.532C967.452 888.316 973.151 936.021 977.595 977.733C984.449 1042.07 1029.87 1118.08 1088.11 1143.37C1184.45 1185.18 1255.07 1061.5 1345.33 1065.17C1407.65 1067.7 1472.57 1124.89 1531.9 1074.36" stroke="#9A8EC2" stroke-width="0.75" stroke-miterlimit="10"/>
<path d="M-114.922 324.122C-66.1647 356.013 -14.2943 384.05 32.8058 418.264C104.661 470.457 47.1919 560.93 100.77 616.053C147.543 664.154 183.998 702.988 185.906 772.236C187.488 829.761 158.716 926.253 229.742 954.184C300.945 982.195 382.542 913.317 430.47 869.124C462.306 839.767 496.375 794.491 537.023 775.377C595.522 747.868 643.902 785.752 692.509 816.112C767.628 863.052 846.99 845.733 929.139 871.394C974.406 885.518 980.658 931.084 984.248 973.588C989.696 1037.95 1035.34 1116.23 1091.68 1135.13C1184.78 1166.39 1255.4 1055.06 1348.65 1062.56C1409.55 1067.44 1473.18 1123.75 1531.9 1074.36" stroke="#9A8EC2" stroke-width="0.75" stroke-miterlimit="10"/>
<path d="M-114.922 324.122C-65.5873 355.776 -13.6667 383.284 35.0905 415.572C110.109 465.283 58.741 550.396 105.992 606.417C145.359 653.066 189.195 698.606 193.74 762.336C197.681 817.617 167.679 914.848 235.994 943.149C307.247 972.664 396.375 901.015 442.044 854.472C471.57 824.402 505.966 775.113 547.066 758.824C605.112 735.804 657.133 780.895 703.028 810.832C775.587 858.141 854.195 845.548 935.215 869.414C981.034 882.904 988.265 926.068 991.052 969.523C995.195 1033.99 1038.2 1108.57 1095.32 1126.87C1187.14 1156.28 1260.42 1048.75 1351.94 1060.05C1411.61 1067.41 1473.8 1122.62 1531.9 1074.36" stroke="#9A8EC2" stroke-width="0.75" stroke-miterlimit="10"/>
<path d="M-114.922 324.122C-65.0349 355.512 -12.8884 382.228 37.2999 412.905C114.578 460.161 70.2147 538.675 112.218 596.148C142.547 637.675 196.25 695.491 200.82 753.28C205.238 809.433 177.044 903.338 242.547 931.903C314.754 963.372 408.904 888.237 453.317 838.526C481.135 807.374 515.004 756.237 557.108 743.222C614.653 725.402 670.264 777.014 713.774 806.318C783.395 853.204 861.953 845.918 941.115 867.566C992.182 881.532 995.019 927.177 997.956 973.879C1001.8 1034.7 1045.91 1102.16 1099.14 1118.55C1144.65 1132.57 1184.72 1120.5 1230.82 1099.49C1269.43 1081.88 1311.99 1050.41 1355.25 1057.62C1413.62 1067.33 1474.51 1121.48 1531.95 1074.36" stroke="#9A8EC2" stroke-width="0.75" stroke-miterlimit="10"/>
<path d="M-114.922 324.122C-64.5077 355.248 -11.9594 381.304 39.4339 410.239C117.817 454.38 82.5923 523.548 119.725 585.64C147.016 631.312 197.681 691.504 207.021 745.387C216.034 797.448 186.609 892.276 249.702 920.313C325.173 953.841 419.976 874.984 464.214 821.366C490.802 789.158 523.767 738.734 567.226 729.256C624.419 716.796 682.642 773.529 724.645 802.49C791.002 848.241 869.737 846.235 946.739 865.903C998.433 879.103 1002.83 921.95 1004.89 969.892C1007.52 1030.88 1049.07 1094.37 1103 1110.26C1148.62 1123.7 1188.99 1112.32 1235.36 1092.49C1273.5 1076.18 1317.76 1045.53 1358.46 1055.3C1412.14 1068.18 1477.19 1118.89 1531.95 1074.41" stroke="#9A8EC2" stroke-width="0.75" stroke-miterlimit="10"/>
<path d="M-114.922 324.122C-64.0055 354.957 -11.0556 380.38 41.5178 407.599C119.825 448.123 97.0788 506.071 128.286 575.133C153.217 630.256 195.045 683.716 211.691 738.76C226.654 788.181 194.618 882.984 257.561 909.278C339.082 943.334 428.713 862.339 474.834 803.071C501.371 768.936 532.102 723.448 577.696 717.772C635.265 710.618 693.613 769.728 735.642 799.111C798.559 843.12 877.369 845.443 952.061 864.345C1004.71 877.677 1010.61 915.403 1011.92 965.906C1013.47 1026.97 1052.34 1086.47 1106.97 1101.92C1152.64 1114.83 1193.31 1104.11 1239.88 1085.52C1277.59 1070.48 1321.81 1041.78 1361.55 1052.92C1414.15 1067.65 1477.52 1117.86 1531.87 1074.33" stroke="#9A8EC2" stroke-width="0.75" stroke-miterlimit="10"/>
<path d="M-114.922 324.122C-63.5034 354.64 -10.1266 379.456 43.5514 404.959C120.252 441.417 113.976 495.088 137.601 564.758C157.686 623.947 189.019 676.905 214.754 733.137C237.074 781.872 202.477 874.192 265.771 899.352C352.715 933.909 437.274 847.66 485.253 783.984C512.393 747.921 541.216 709.562 588.818 708.427C647.166 707.028 703.832 765.794 746.865 796.048C806.543 837.998 885.127 846.182 957.233 863.052C1005.26 874.272 1018.47 904.077 1019.62 952.917C1021.15 1018.23 1049.3 1077.16 1111.16 1093.73C1161.22 1107.15 1204.86 1093.29 1255.95 1074.2C1290.15 1061.42 1328.36 1040.12 1364.71 1050.76C1418.24 1066.44 1476.62 1118.05 1531.9 1074.41" stroke="#9A8EC2" stroke-width="0.75" stroke-miterlimit="10"/>
<path d="M-114.922 324.122C-63.0264 354.35 -6.56149 377.45 45.5097 402.319C116.762 436.348 127.282 480.04 147.543 554.119C164.917 617.611 182.492 670.807 216.336 728.227C244.204 775.509 212.243 866.8 274.257 890.455C365.821 925.382 446.79 829.26 495.597 764.448C523.516 727.408 551.911 697.629 600.769 701.457C659.82 706.104 713.674 761.623 758.238 792.828C815.18 832.692 892.584 846.789 962.129 861.784C1010.48 872.212 1026.15 898.929 1026.98 949.168C1028.03 1014.19 1052.79 1069.34 1115.46 1085.5C1165.42 1098.38 1209.38 1085.42 1260.57 1067.86C1294.42 1056.25 1332.4 1036.63 1367.78 1048.51C1419.87 1066.01 1477.19 1116.89 1531.87 1074.36" stroke="#9A8EC2" stroke-width="0.75" stroke-miterlimit="10"/>
<path d="M-114.922 324.122C-62.5494 354.007 -5.80829 376.5 47.4179 399.705C115.884 429.537 139.735 469.216 158.063 543.031C174.734 610.14 175.939 663.996 216.637 723.844C247.593 769.384 223.767 861.204 282.944 882.535C378.022 916.828 457.535 812.68 505.991 745.07C582.265 638.625 696.526 739.077 769.762 789.264C824.77 826.936 898.86 847.37 966.824 860.728C1015.38 870.285 1033.78 893.913 1034.41 945.552C1035.19 1010.02 1056.73 1061.66 1119.97 1077.42C1169.76 1089.8 1214.07 1077.76 1265.29 1061.74C1298.78 1051.26 1336.44 1033.33 1370.87 1046.4C1421.51 1065.62 1477.82 1115.81 1531.92 1074.38" stroke="#9A8EC2" stroke-width="0.75" stroke-miterlimit="10"/>
<path d="M-114.922 324.122C-62.0974 353.69 -5.02998 375.549 49.2757 397.092C114.654 423.043 151.284 459.396 169.009 531.388C185.906 600.002 170.064 657.871 215.884 719.779C247.97 763.128 236.446 856.98 291.781 875.38C388.843 907.641 464.314 791.27 516.586 726.484C592.032 632.976 713.146 738.919 781.386 784.908C835.541 821.419 903.605 847.792 971.293 859.831C1026.15 869.572 1041.01 894.732 1041.24 950.99C1041.49 1010.89 1067.88 1055.72 1124.62 1069.42C1174.13 1081.38 1218.84 1070.19 1269.96 1055.72C1303.13 1046.32 1340.36 1030.11 1373.85 1044.29C1423.01 1065.09 1478.4 1114.67 1531.9 1074.36" stroke="#9A8EC2" stroke-width="0.75" stroke-miterlimit="10"/>
<path d="M-114.922 324.122C-61.6706 353.347 -4.20147 374.572 51.0583 394.478C113.323 416.918 161.076 450.42 180.232 519.112C199.338 587.673 165.67 651.535 214.427 715.74C233.86 741.321 245.61 763.629 254.498 794.808C263.385 825.96 265.645 857.956 300.794 868.596C399.012 898.375 471.495 768.117 528.085 710.064C604.46 631.708 726.428 735.328 792.659 778.783C848.245 815.268 906.417 847.898 975.561 859.039C1030.65 867.909 1048.37 889.663 1048.75 947.452C1049.12 1006.43 1072.85 1048.3 1129.49 1061.55C1178.72 1073.09 1223.72 1062.77 1274.68 1049.83C1307.6 1041.49 1344.23 1027.02 1376.79 1042.2C1424.44 1064.43 1478.92 1113.56 1531.87 1074.33" stroke="#9A8EC2" stroke-width="0.75" stroke-miterlimit="10"/>
<path d="M-114.922 324.122C-61.2187 353.004 -3.32273 373.596 52.7907 391.891C112.494 411.348 168.909 442.209 191.505 506.256C215.306 573.655 163.612 644.961 212.62 711.568C230.646 736.094 249.1 758.349 260.373 787.495C272.348 818.462 272.7 851.99 310.008 861.837C409.807 888.184 475.336 747.789 540.036 696.23C620.804 631.893 738.454 729.072 803.505 771.444C861.702 809.328 907.623 847.951 979.654 858.432C1034.74 866.431 1055.55 884.884 1056.3 944.047C1057.03 1001.81 1078.4 1041.09 1134.59 1053.87C1183.52 1064.99 1228.74 1055.56 1279.48 1044.16C1312.14 1036.82 1348.65 1023.88 1379.78 1040.25C1424.74 1063.85 1480.26 1112.06 1531.92 1074.38" stroke="#9A8EC2" stroke-width="0.75" stroke-miterlimit="10"/>
<path d="M-114.922 324.122C-60.817 352.634 -2.444 372.619 54.4728 389.33C112.796 406.437 173.729 434.632 202.627 492.897C234.864 557.92 164.817 638.15 210.887 707.001C227.634 732.028 250.129 753.36 264.189 780.736C279.454 810.463 282.366 847.528 319.449 854.498C416.662 872.767 479.202 730.154 552.238 684.614C635.366 632.817 749.225 718.591 813.95 762.89C873.051 803.308 908.326 848.241 983.595 857.904C1031.6 864.081 1060.97 875.38 1064.34 930.424C1068.03 991.039 1075.94 1032.38 1139.86 1046.24C1183.24 1055.64 1224.92 1051.15 1270.49 1041.62C1306.54 1034.07 1348.67 1019 1382.69 1038.22C1426.38 1062.87 1480.66 1111.08 1531.92 1074.36" stroke="#9A8EC2" stroke-width="0.75" stroke-miterlimit="10"/>
<path d="M-114.922 324.122C-60.3902 352.291 -1.56526 371.616 56.1048 386.743C114.754 402.134 176.315 428.508 213.323 479.143C256.029 537.592 169.738 632.606 209.732 701.748C225.324 728.676 248.949 748.66 266.197 774.4C284.349 801.487 293.589 842.38 329.165 845.654C425.223 854.445 483.37 710.433 564.691 675.11C650.279 637.939 758.288 705.47 822.963 753.65C879.804 795.969 908.451 848.452 987.336 857.508C1035.06 862.999 1067.33 871.473 1071.69 927.177C1076.31 986.155 1082.09 1025.52 1145.31 1038.8C1188.44 1047.85 1230.12 1044 1275.36 1035.73C1311.21 1029.19 1352.31 1016.09 1385.55 1036.26C1427.98 1062 1481.06 1110.13 1531.92 1074.38" stroke="#9A8EC2" stroke-width="0.75" stroke-miterlimit="10"/>
<path d="M-114.922 324.122C-59.9885 351.921 -0.661426 370.612 57.6865 384.182C118.168 398.253 176.14 424.521 223.29 465.283C275.512 510.453 181.663 633.028 209.682 695.623C224.144 727.936 252.037 749.875 273.754 776.565C292.007 799.005 307.071 834.724 338.956 834.46C435.868 833.721 487.965 693.775 577.319 667.533C664.69 641.846 767.879 691.821 831.273 744.146C886.734 789.95 908.049 848.664 990.977 857.138C1038.5 861.996 1073.18 867.83 1078.8 923.983C1084.5 981.007 1088.72 1018.89 1150.93 1031.46C1193.84 1040.14 1235.39 1036.92 1280.21 1029.93C1315.88 1024.36 1355.9 1013.24 1388.37 1034.31C1429.51 1061 1481.41 1109.18 1531.92 1074.38" stroke="#9A8EC2" stroke-width="0.75" stroke-miterlimit="10"/>
<path d="M-114.922 324.122C-59.5868 351.552 0.242415 369.609 59.218 381.621C121.658 394.346 177.671 423.861 232.203 451.581C287.965 479.935 200.418 640.579 211.389 688.416C220.654 728.781 304.134 824.164 348.849 821.208C443.199 814.977 493.789 682.08 590.299 661.488C677.52 642.902 779.579 680.02 839.383 734.299C893.789 783.64 907.246 848.98 994.517 856.9C1041.92 861.204 1078.55 864.556 1085.63 920.868C1092.56 976.044 1095.8 1012.37 1156.76 1024.28C1199.36 1032.59 1240.71 1030.03 1285.08 1024.22C1320.6 1019.58 1359.44 1010.44 1391.13 1032.35C1431 1059.92 1481.76 1108.2 1531.9 1074.36" stroke="#9A8EC2" stroke-width="0.75" stroke-miterlimit="10"/>
<path d="M-114.922 324.122C-59.2102 351.182 1.17137 368.606 60.6993 379.087C122.688 389.99 178.575 425.472 239.685 438.408C303.958 452.004 217.516 645.067 216.16 678.859C214.227 726.168 307.749 812.68 357.912 805.79C400.87 799.876 435.391 760.91 467.729 732.372C508.502 696.362 550.43 666.319 602.953 655.706C688.542 638.414 790.876 668.959 847.743 723.844C872.323 747.552 883.47 794.86 908.074 822.132C931.449 848.03 965.619 854.128 998.007 856.689C1053.44 861.072 1084.7 865.243 1092.61 927.758C1098.94 977.733 1110.74 1007.2 1162.76 1017.23C1204.84 1025.33 1246.11 1023.25 1289.92 1018.6C1325.35 1014.85 1362.91 1007.72 1393.86 1030.43C1432.45 1058.73 1482.11 1107.23 1531.87 1074.36" stroke="#9A8EC2" stroke-width="0.75" stroke-miterlimit="10"/>
<path d="M-114.922 324.122C-58.8336 350.786 2.07521 367.603 62.1304 376.552C124.294 385.819 188.593 423.782 245.359 426.158C318.871 429.247 234.94 632.58 226.303 663.283C208.326 727.171 311.816 801.936 364.59 790.267C408.351 780.604 442.999 743.46 478.073 715.74C521.206 681.657 563.008 661.672 615.08 649.713C699.313 630.362 802.626 657.607 856.706 712.704C881.813 738.259 888.391 789.264 912.091 819.465C934.361 847.819 968.255 854.208 1001.45 856.557C1056.33 860.438 1089.67 862.286 1099.46 924.643C1107.09 973.298 1117.82 1000.75 1168.93 1010.34C1210.53 1018.15 1251.53 1016.59 1294.77 1013.08C1330.12 1010.21 1366.35 1005.03 1396.6 1028.53C1433.91 1057.49 1482.49 1106.27 1531.9 1074.38" stroke="#9A8EC2" stroke-width="0.75" stroke-miterlimit="10"/>
<path d="M-114.922 324.122C-58.457 350.416 2.97903 366.6 63.5363 374.018C125.675 381.621 187.588 411.532 249.702 413.565C347.844 416.786 254.523 593.428 241.141 642.136C228.437 688.442 233.483 717.376 272.825 747.604C300.468 768.856 335.818 784.644 369.963 775.166C414.779 762.732 450.782 727.118 488.969 700.586C533.156 669.883 576.465 656.709 626.578 643.087C708.853 620.7 808.853 646.096 866.548 700.771C881.788 715.212 893.01 737.15 900.04 759.247C905.388 778.308 910.987 797.263 916.862 816.165C937.876 847.291 970.414 854.181 1004.96 856.399C1058.97 859.857 1094.37 859.963 1106.22 921.475C1115.3 968.599 1124.77 994.814 1175.36 1003.55C1238.96 1014.51 1344.38 981.588 1399.34 1026.6C1435.36 1056.11 1482.92 1105.3 1531.95 1074.38" stroke="#9A8EC2" stroke-width="0.75" stroke-miterlimit="10"/>
<path d="M-114.922 324.122C-58.0804 350.02 3.90799 365.596 64.8921 371.484C127.157 377.476 189.647 403.269 252.564 401.58C282.115 400.788 300.192 397.936 311.515 428.56C328.261 473.942 273.152 576.004 259.996 616.132C244.329 663.943 229.768 703.912 273.554 738.523C302.05 761.042 340.588 771.18 374.909 760.435C421.055 745.994 459.192 711.832 500.618 686.779C544.756 660.062 589.898 651.271 637.324 635.616C716.636 609.427 828.813 634.612 877.419 688.099C906.166 719.726 904.032 768.196 922.812 811.783C938.202 847.502 974.607 854.234 1008.43 856.214C1061.3 859.303 1098.81 858.405 1112.72 918.333C1123.31 963.979 1131.5 989.191 1181.76 997.084C1245.46 1007.09 1347.84 978.024 1401.97 1024.65C1436.87 1054.72 1482.94 1104.06 1531.92 1074.36" stroke="#9A8EC2" stroke-width="0.75" stroke-miterlimit="10"/>
<path d="M-114.922 324.122C-57.7289 349.624 4.81182 364.62 66.1976 368.976C128.537 373.384 191.154 394.874 254.171 390.175C277.872 388.406 310.661 380.856 325.575 404.985C349.702 444.004 294.292 551.769 282.115 586.142C267.202 628.276 235.015 684.72 270.993 723.369C298.083 752.462 345.183 757.557 380.131 745.968C427.809 730.154 468.532 697.418 513.096 674.028C556.405 651.324 602.777 644.829 647.317 627.062C723.741 596.57 842.722 623.472 889.445 674.688C916.661 704.52 917.791 746.997 927.457 792.643C937.751 841.219 966.221 853.336 1012.04 856.029C1064.06 859.065 1103.2 857.296 1119.07 915.244C1131.2 959.491 1138.3 984.096 1188.16 991.065C1251.73 999.936 1351.48 974.697 1404.61 1022.77C1438.18 1053.13 1483.29 1103.11 1531.92 1074.41" stroke="#9A8EC2" stroke-width="0.75" stroke-miterlimit="10"/>
<path d="M-114.922 324.122C-57.3774 349.255 5.71567 363.669 67.5032 366.468C129.768 369.292 191.982 386.215 254.799 379.298C276.039 376.948 318.846 366.784 336.797 384.446C369.687 416.812 317.54 523.204 306.72 553.221C292.107 593.824 247.192 669.249 277.018 711.41C300.368 744.41 353.87 742.456 386.257 731.58C440.563 713.311 487.688 677.512 540.764 655.812C578.675 640.315 619.398 634.85 656.656 617.426C729.692 583.238 858.765 612.7 902.651 660.669C951.961 714.525 905.94 849.931 1015.86 855.712C1066.8 858.379 1107.52 856.452 1125.22 912.129C1138.85 955.029 1144.98 979.264 1194.44 985.363C1258.29 993.256 1354.75 971.08 1407.2 1020.79C1439.43 1051.34 1483.62 1102.02 1531.92 1074.36" stroke="#9A8EC2" stroke-width="0.75" stroke-miterlimit="10"/>
<path d="M-114.922 324.122C-57.0259 348.859 6.61952 362.719 68.7585 363.96C130.797 365.2 192.283 377.397 254.573 368.976C277.872 365.834 322.286 354.561 344.028 368.791C386.835 396.775 344.48 485.162 332.755 518.796C318.796 558.924 263.109 653.145 285.881 697.84C304.636 734.668 363.913 727.197 393.689 717.244C449.451 698.632 499.338 665.025 554.748 645.331C591.931 632.104 630.068 625.188 665.418 606.76C734.286 570.856 868.933 601.982 916.912 646.202C976.716 701.325 901.722 849.35 1020.28 854.92C1069.41 857.244 1111.76 855.712 1131.2 909.014C1146.36 950.647 1151.41 974.618 1200.59 980.056C1265.22 987.184 1357.63 967.147 1409.78 1018.84C1440.71 1049.49 1483.97 1100.99 1531.92 1074.36" stroke="#9A8EC2" stroke-width="0.75" stroke-miterlimit="10"/>
<path d="M-114.922 324.122C-56.6744 348.463 7.52335 361.795 69.9887 361.452C131.626 361.108 192.183 368.474 253.77 359.102C281.789 354.825 320.905 345.48 348.497 356.198C401.321 376.737 371.696 445.456 359.218 485.188C346.162 526.742 278.023 641.556 300.819 687.808C317.917 722.524 376.441 711.542 402.677 702.645C493.011 671.995 587.086 632.184 675.311 595.646C746.865 565.999 881.261 586.908 932.102 631.471C994.416 686.092 903.354 845.892 1025.15 853.759C1073 856.848 1115.93 855.132 1136.92 905.925C1153.62 946.317 1157.48 970.262 1206.52 975.146C1272.1 981.667 1360.4 963.213 1412.27 1016.88C1441.97 1047.59 1484.27 1099.94 1531.87 1074.36" stroke="#9A8EC2" stroke-width="0.75" stroke-miterlimit="10"/>
<path d="M-114.922 324.122C-56.348 348.067 8.42719 360.871 71.219 358.944C132.329 357.069 191.856 359.498 252.64 349.624C283.621 344.582 320.126 337.48 351.234 345.268C407.924 359.472 397.129 407.52 385.153 454.327C376.114 489.65 360.9 526.531 347.242 562.329C338.053 586.432 309.255 638.784 317.515 666.715C329.717 708.031 382.768 697.603 413.498 687.65C505.539 657.897 596.526 616 689.144 585.376C725.172 573.47 760.322 573.655 797.48 578.196C844.906 584.004 912.694 583.766 948.019 616.74C1015.51 679.756 905.614 841.72 1030.54 852.175C1068.28 855.343 1116.13 853.389 1139.51 890.877C1164.89 931.56 1152.24 965.378 1212.32 970.552C1277.72 976.176 1364.36 960.019 1414.83 1014.88C1443.07 1045.58 1484.67 1098.83 1531.92 1074.33" stroke="#9A8EC2" stroke-width="0.75" stroke-miterlimit="10"/>
<path d="M-114.922 324.122C-55.9965 347.671 9.45656 359.973 72.399 356.462C132.831 353.083 191.379 350.496 251.334 340.464C283.772 335.052 319.8 329.508 352.514 335.844C405.966 346.166 417.44 378.004 409.481 427.372C404.133 460.504 389.923 496.382 376.868 530.412C365.595 559.821 336.772 608.001 339.559 641.212C343.777 691.188 387.864 683.611 426.001 671.995C519.448 643.536 611.489 603.091 706.142 575.74C774.858 555.888 910.886 557.841 964.288 602.431C1035.89 662.2 910.46 836.889 1036.42 850.274C1072.82 854.128 1120.35 853.046 1144.18 888.079C1170.87 927.309 1158.64 961.629 1217.84 966.381C1283.67 971.661 1367.15 956.692 1417.34 1012.92C1444.68 1043.57 1485.05 1097.77 1531.92 1074.36" stroke="#9A8EC2" stroke-width="0.75" stroke-miterlimit="10"/>
<path d="M-114.922 324.122C-55.6701 347.275 10.6868 359.076 73.6041 353.954C133.207 349.096 190.978 341.414 250.154 331.514C319.8 319.872 432.027 324.465 431.249 405.223C430.621 469.269 376.491 541.579 365.896 613.44C357.661 669.381 398.233 667.322 440.136 655.363C535.265 628.25 629.215 592.214 725.674 566.395C803.832 545.46 920.276 551.479 980.532 588.756C1056.33 635.642 916.184 830.289 1042.82 847.898C1078.22 852.808 1124.47 852.597 1148.52 885.492C1176.21 923.349 1165.17 958.039 1223.11 962.5C1289.49 967.622 1369.54 953.577 1419.8 1010.92C1446.54 1041.41 1485.43 1096.64 1531.92 1074.36" stroke="#9A8EC2" stroke-width="0.75" stroke-miterlimit="10"/>
<path d="M-114.922 324.122C-55.3186 346.879 11.9421 358.178 74.759 351.472C133.634 345.163 190.727 332.28 249.275 322.644C309.582 312.717 436.044 311.529 449.476 388.538C459.945 448.572 418.068 513.304 399.338 572.757C381.738 628.672 397.656 653.647 455.577 637.543C552.539 610.562 649.325 582.499 747.015 557.181C825.398 536.853 931.876 541.869 996.224 576.216C1079.6 620.726 924.871 823.082 1049.68 845.1C1083.97 851.145 1128.56 852.043 1152.69 883.01C1181.13 919.548 1171.54 954.607 1228.08 958.91C1294.77 963.979 1372.57 951.808 1422.13 1009.02C1447.92 1038.8 1485.83 1095.48 1531.87 1074.36" stroke="#9A8EC2" stroke-width="0.75" stroke-miterlimit="10"/>
<path d="M-114.922 324.122C-54.9672 346.483 13.2477 357.28 75.939 348.964C134.262 341.229 190.802 323.013 248.999 313.694C319.198 302.474 427.683 311.397 463.41 378.004C489.069 425.868 446.99 495.696 431.148 545.539C416.109 592.9 413.322 633.424 474.407 619.221C570.942 596.755 671.971 573.153 769.536 547.836C845.986 528.009 939.332 532.893 1010.28 565.154C1108.38 609.744 934.863 814.212 1057.11 841.852C1090.35 849.376 1132.83 851.304 1156.81 880.608C1185.7 915.931 1177.8 951.333 1232.83 955.61C1299.59 960.811 1375.54 950.383 1424.47 1007.25C1449.45 1036.26 1486.38 1094.29 1531.9 1074.36" stroke="#9A8EC2" stroke-width="0.75" stroke-miterlimit="10"/>
<path d="M-114.922 324.122C-54.6157 346.113 14.5532 356.356 77.0939 346.483C135.166 337.322 191.354 313.615 249.501 304.56C330.018 292.02 418.093 315.964 474.156 372.698C520.704 419.796 395.346 619.855 497.907 601.058C593.438 583.555 696.024 563.86 792.534 538.358C866.724 518.743 955.25 523.363 1023.21 554.647C1121 599.632 953.969 810.648 1065.04 838.262C1096.27 846.024 1137.25 850.459 1160.87 878.258C1189.95 912.472 1183.85 948.192 1237.27 952.574C1303.83 958.012 1378.45 949.353 1426.7 1005.56C1450.96 1033.81 1486.93 1093.02 1531.9 1074.36" stroke="#9A8EC2" stroke-width="0.75" stroke-miterlimit="10"/>
<path d="M-114.922 324.122C-54.2642 345.717 15.8839 355.432 78.274 344.001C136.496 333.336 192.61 304.032 251.058 295.029C333.157 282.357 418.268 318.71 481.914 368.844C524.093 402.081 509.054 452.109 495.748 497.623C485.529 532.629 466.825 590.868 524.796 584.056C618.896 572.995 720.427 554.304 815.255 528.511C888.315 508.632 971.243 506.916 1035.52 544.351C1127.96 598.207 972.599 801.672 1073.43 834.249C1108.63 845.628 1146.16 851.779 1171.22 884.673C1195.75 916.855 1193.81 945.736 1241.42 949.776C1307.85 955.399 1381.06 948.561 1428.89 1004C1452.29 1031.14 1487.94 1092.49 1531.87 1074.41" stroke="#9A8EC2" stroke-width="0.75" stroke-miterlimit="10"/>
<path d="M-114.922 324.122C-53.9127 345.348 17.2396 354.482 79.4539 341.493C138.354 329.217 194.618 294.237 253.92 284.865C335.718 271.929 427.131 319.845 486.935 365.834C527.583 397.092 534.839 425.577 525.599 480.384C519.9 514.281 499.212 570.328 554.045 568.903C647.442 566.448 744.505 543.928 837.198 518.215C910.334 497.913 984.926 493.372 1047.22 534.292C1134.96 591.95 990.776 792.722 1082.39 829.761C1115.36 843.093 1151.18 850.591 1175.49 881.875C1199.91 913.344 1199.09 942.7 1245.38 947.056C1311.29 953.26 1383.72 947.769 1431.12 1002.39C1453.97 1028.71 1488.67 1091.2 1531.92 1074.36" stroke="#9A8EC2" stroke-width="0.75" stroke-miterlimit="10"/>
<path d="M-114.922 324.122C-53.511 344.952 18.5954 353.505 80.6591 339.012C140.915 324.94 197.506 284.416 258.314 273.988C338.228 260.26 428.161 321.429 489.396 363.273C528.512 389.99 553.418 414.278 552.639 467.236C552.137 501.688 533.382 552.35 584.349 556.072C675.988 562.778 768.481 532.312 857.535 507.523C931.85 486.852 994.241 479.671 1058.11 524.683C1146.81 587.198 1004.38 779.733 1091.73 824.983C1122.39 840.876 1156.35 849.271 1179.68 879.156C1203.76 909.991 1204.08 939.849 1249.02 944.601C1314.33 951.518 1386.28 947.188 1433.26 1000.94C1455.58 1026.47 1489.39 1089.99 1531.9 1074.41" stroke="#9A8EC2" stroke-width="0.75" stroke-miterlimit="10"/>
<path d="M-114.922 324.122C-53.1093 344.582 19.8507 352.423 81.8642 336.504C143.903 320.584 200.493 275.15 263.611 263.27C342.798 248.38 427.809 320.901 489.747 360.633C526.604 384.261 566.423 409.394 575.938 457.891C582.767 492.712 567.452 537.487 614.678 545.46C702.953 560.376 792.659 517.502 875.737 496.303C902.877 489.386 930.846 486.825 958.438 479.354C1003.2 467.236 1034.76 487.802 1068.38 515.469C1111.56 551.004 1098.53 605.836 1090.22 660.062C1084.32 698.5 1061.43 792.854 1101.55 819.756C1129.59 838.579 1161.78 847.66 1183.97 876.304C1207.47 906.612 1208.95 936.919 1252.44 942.146C1317.09 949.908 1388.82 946.528 1435.39 999.408C1457.16 1024.14 1490.22 1088.64 1531.9 1074.36" stroke="#9A8EC2" stroke-width="0.75" stroke-miterlimit="10"/>
<path d="M-114.922 324.122C-52.7075 344.239 21.2065 351.367 83.0944 333.996C146.79 316.123 203.983 265.963 269.336 253.291C350.606 237.53 424.018 316.968 488.442 357.597C526.152 381.384 574.959 407.203 594.492 451.872C608.979 485.03 601.723 525.924 643.877 536.748C726.252 557.894 816.033 500.368 891.102 484.66C917.238 479.196 941.617 473.282 967.879 464.992C1011.82 451.106 1046.69 478.43 1076.87 506.81C1115.61 543.268 1107.12 596.57 1100.54 650.136C1095.6 690.528 1075.79 782.796 1111.79 814.238C1136.75 836.044 1167.48 845.865 1188.37 873.4C1211.06 903.285 1213.65 934.041 1255.65 939.797C1319.62 948.561 1391.3 945.868 1437.5 997.929C1458.74 1021.9 1491.1 1087.29 1531.87 1074.36" stroke="#9A8EC2" stroke-width="0.75" stroke-miterlimit="10"/>
<path d="M-114.922 324.122C-52.2556 343.869 22.5623 350.258 84.3749 331.488C149.702 311.635 207.699 256.987 275.487 243.972C360.749 227.63 420.302 311.292 486.157 353.928C529.893 382.255 584.148 409.288 613.598 456.254C631.374 484.608 635.767 518.426 670.892 529.303C748.095 553.248 833.834 485.03 903.053 472.701C928.536 468.16 949.827 458.392 974.733 450.129C1018.97 435.477 1057.26 469.322 1084.85 498.758C1118.82 534.979 1113.77 589.917 1109.56 641.16C1105.86 685.802 1091.55 772.394 1122.46 808.404C1140.11 828.969 1167.63 839.476 1185.73 860.992C1211.16 891.247 1214.5 930.635 1258.74 937.447C1322.23 947.188 1393.84 945.129 1439.66 996.477C1460.37 1019.68 1492.13 1085.95 1531.92 1074.36" stroke="#9A8EC2" stroke-width="0.75" stroke-miterlimit="10"/>
<path d="M-114.922 324.122C-51.7786 343.526 23.8929 349.123 85.6804 328.98C152.665 307.147 211.59 248.248 281.989 235.286C371.62 218.786 418.168 303.979 483.521 349.36C526.328 379.113 578.022 404.484 616.184 443.107C641.793 469.032 659.267 512.565 694.617 522.016C768.883 541.816 839.433 474.866 911.84 460.452C936.47 455.541 956.103 441.972 979.277 434.923C1025.3 420.904 1066.6 459.739 1092.78 491.26C1156.91 568.454 1080.26 717.218 1133.46 802.279C1147.19 824.244 1173.95 836.599 1190.8 857.904C1214.65 888.052 1219.32 927.573 1261.68 935.044C1324.44 946.106 1396.3 944.284 1441.82 994.999C1462.03 1017.49 1493.19 1084.6 1531.95 1074.36" stroke="#9A8EC2" stroke-width="0.75" stroke-miterlimit="10"/>
<path d="M-114.922 324.122C-51.2765 343.183 25.1231 347.856 87.0111 326.472C155.879 302.659 215.482 239.748 288.793 227.128C381.864 211.104 418.494 293.63 481.387 343.79C523.641 377.503 575.763 402.266 619.222 437.299C649.074 461.349 677.947 506.968 714.025 513.463C783.47 525.976 850.354 465.283 917.263 447.067C940.487 440.731 965.694 422.013 989.571 417.288C1033.81 408.496 1078.77 454.01 1100.94 484.264C1156.58 560.164 1105.89 708.796 1144.73 795.916C1154.97 818.884 1180.43 833.457 1196.1 854.63C1218.29 884.62 1224.07 923.692 1264.49 932.589C1327.48 946.423 1397.81 942.357 1443.95 993.547C1463.63 1015.38 1494.21 1083.28 1531.92 1074.41" stroke="#9A8EC2" stroke-width="0.75" stroke-miterlimit="10"/>
<path d="M-114.922 324.122C-50.7241 342.84 26.4287 346.615 88.417 323.937C159.117 298.065 219.599 231.59 295.899 219.42C389.471 204.477 423.767 281.592 480.684 337.164C521.633 377.133 579.83 403.296 628.311 437.774C658.74 459.396 691.278 497.491 728.235 502.005C792.935 509.925 859.769 454.802 919.724 432.652C942.496 424.231 969.812 407.256 994.015 403.85C1041.82 397.118 1086.93 443.661 1109.66 477.717C1135.89 517.053 1125.7 584.162 1129.41 633.847C1133.31 685.881 1141.97 742.932 1156.25 789.316C1163.59 813.156 1187.11 829.867 1201.62 851.092C1222.03 880.977 1228.64 920.234 1267.23 929.896C1329.77 945.578 1400.06 941.09 1446.09 991.989C1465.29 1013.21 1495.27 1081.93 1531.9 1074.41" stroke="#9A8EC2" stroke-width="0.75" stroke-miterlimit="10"/>
<path d="M-114.922 324.122C-50.1216 342.523 27.7091 345.321 89.8481 321.376C162.532 293.392 223.717 223.855 303.179 212.028C393.764 198.537 434.387 267.283 482.441 329.402C515.933 372.724 576.566 399.441 624.746 429.854C658.69 451.264 695.647 484.74 736.219 488.647C794.843 494.296 867.904 440.44 920.326 417.657C1003 381.727 1069.51 389.779 1119.12 471.487C1143.73 511.984 1127.73 578.354 1134.08 628.171C1140.79 680.786 1158.61 733.665 1168.03 782.479C1172.77 807.057 1194.04 825.722 1207.47 847.317C1226 877.123 1233.23 916.485 1270.01 926.939C1332.1 944.575 1402.42 939.664 1448.29 990.326C1469.51 1013.74 1494.06 1076.5 1531.9 1074.33" stroke="#9A8EC2" stroke-width="0.75" stroke-miterlimit="10"/>
<path d="M-114.922 324.122C-47.2845 342.813 28.6632 341.916 91.3796 318.842C164.917 291.782 227.935 216.357 310.636 204.9C398.409 192.729 447.342 248.143 487.814 320.743C513.875 367.497 573.553 394.61 618.318 420.852C654.999 442.341 694.894 471.276 737.575 474.708C768.306 477.163 792.86 462.933 819.548 448.862C852.764 431.332 886.884 416.918 920.075 402.715C1004.01 366.837 1082.44 383.258 1129.47 465.705C1153.44 507.734 1129.26 572.52 1137.78 623.445C1146.49 675.48 1174.53 724.98 1179.98 775.615C1182.72 801.091 1201.17 821.26 1213.57 843.41C1229.99 872.767 1238.35 912.736 1272.87 923.798C1334.08 943.387 1404.78 938.001 1450.5 988.742C1471.37 1011.87 1495.04 1075.02 1531.87 1074.38" stroke="#9A8EC2" stroke-width="0.75" stroke-miterlimit="10"/>
<path d="M-114.922 324.122C-46.5564 342.496 29.9185 340.464 92.9613 316.281C168.708 287.241 232.379 209.176 318.143 197.851C405.288 186.367 464.816 234.23 496.727 311.107C525.273 379.905 662.431 455.99 733.96 460.161C765.167 461.983 789.646 446.644 816.837 432.679C850.706 415.255 885.478 400.418 919.749 387.984C1006.27 356.594 1094.57 374.942 1140.69 460.161C1164.69 504.487 1130.85 567.081 1140.69 619.432C1150.45 671.282 1189.12 715.581 1192.06 768.592C1194.24 807.77 1239.13 907.43 1275.91 920.234C1336.17 941.222 1407.37 936.444 1452.81 987.026C1473.3 1009.84 1496.12 1073.49 1531.92 1074.36" stroke="#9A8EC2" stroke-width="0.75" stroke-miterlimit="10"/>
<path d="M-114.922 324.122C-45.753 342.206 31.1738 338.959 94.5933 313.694C172.575 282.648 236.973 202.286 325.575 190.749C408.226 179.978 475.085 217.228 506.543 300.52C536.772 380.512 646.739 442.5 726.88 445.166C789.37 447.252 861.125 390.703 919.95 373.807C1009.83 347.988 1106.79 368.184 1152.59 454.908C1177.29 501.662 1132.75 562.25 1142.97 616.132C1152.89 668.563 1202.8 709.087 1204.11 761.57C1205.06 800.193 1241.34 901.807 1279.08 916.248C1338.65 939.057 1410.16 934.939 1455.07 985.257C1475.23 1007.86 1497.13 1072.01 1531.87 1074.38" stroke="#9A8EC2" stroke-width="0.75" stroke-miterlimit="10"/>
<path d="M-114.922 324.122C-44.9245 341.916 32.4041 337.401 96.3256 311.107C176.642 278.107 241.216 196.452 332.906 183.436C414.076 171.926 486.96 203.87 517.139 288.799C546.89 372.592 632.077 428.798 717.891 429.696C785.328 430.408 855.325 374.176 921.356 360.264C1015.48 340.437 1118.64 363.326 1165.22 449.812C1191.55 498.705 1135.42 557.841 1145.03 613.281C1154.25 666.53 1215.23 704.493 1216.21 754.495C1216.96 793.092 1243.75 894.283 1282.59 911.68C1339.58 937.183 1413.5 933.645 1457.46 983.356C1477.32 1005.82 1498.16 1070.45 1531.92 1074.33" stroke="#9A8EC2" stroke-width="0.75" stroke-miterlimit="10"/>
<path d="M-114.922 324.122C-44.347 341.731 33.9858 336.028 98.1584 308.493C180.533 273.17 245.359 191.858 340.036 175.728C419.524 162.184 499.79 191.145 528.336 275.968C540.513 312.084 546.94 341.81 576.717 366.256C610.987 394.399 665.494 414.463 708.326 413.908C780.733 412.984 851.986 356.99 924.293 347.46C1015.73 335.395 1131.05 353.241 1178.22 444.955C1206.44 499.814 1138.91 554.092 1147.12 610.852C1154.92 664.84 1226.08 699.372 1227.68 747.895C1228.96 787.204 1246.84 886.521 1286.43 906.585C1340.46 933.962 1416.81 932.193 1459.84 981.429C1479.45 1003.87 1499.09 1068.95 1531.9 1074.33" stroke="#9A8EC2" stroke-width="0.75" stroke-miterlimit="10"/>
<path d="M-114.922 324.122C-43.393 341.467 35.6177 334.471 100.092 305.88C184.124 268.576 250.506 187.528 346.79 167.438C423.717 151.413 512.243 178.236 539.96 262.029C551.811 297.854 556.179 333.784 584.801 359.313C613.598 385.027 662.883 399.045 699.438 397.804C776.817 395.191 850.229 340.912 929.089 335.263C1023.97 328.478 1140.36 349.809 1191.35 440.176C1223.77 497.596 1143.45 551.056 1149.7 608.476C1155.68 663.468 1235.67 693.986 1238.65 741.559C1241.14 781.132 1249.25 877.941 1290.95 900.804C1344.5 930.16 1420.1 930.398 1462.3 979.396C1481.69 1001.92 1500.01 1067.44 1531.9 1074.33" stroke="#9A8EC2" stroke-width="0.75" stroke-miterlimit="10"/>
<path d="M-114.922 324.122C-42.3887 341.203 37.4003 332.94 102.1 303.24C187.488 264.062 255.753 183.093 353.041 158.383C427.332 139.507 523.867 165.036 551.811 247.192C578.549 325.812 597.404 386.98 692.308 381.621C774.482 376.975 851.534 325.204 935.742 323.647C1032.2 321.878 1147.32 344.978 1204.01 435.556C1241.64 495.669 1151.16 548.812 1154.27 605.493C1157.41 663.072 1243.9 688.389 1249.1 735.566C1253.47 775.324 1252.26 870.312 1295.65 894.89C1347.87 924.484 1423.99 929.078 1464.79 977.337C1484 1000.07 1500.84 1065.96 1531.9 1074.38" stroke="#9A8EC2" stroke-width="0.75" stroke-miterlimit="10"/>
</svg>
