<svg width="1440" height="579" preserveAspectRatio="none" viewBox="0 0 1440 579" fill="none" xmlns="http://www.w3.org/2000/svg">
<g opacity="0.85">
<path style="mix-blend-mode:multiply" d="M-3.65207 363.036C51.3984 389.531 126.627 370.453 176.167 338.245C225.708 306.036 260.437 262.53 309.461 229.899C358.484 197.257 432.662 176.841 488.925 201.855C531.738 220.884 550.256 259.309 574.02 292.236C606.917 337.836 660.506 379.27 728.613 386.872C783.506 393.002 837.737 376.499 891.217 365.243C944.698 353.988 1007.03 349.003 1051.23 374.259C1107.3 406.284 1107.13 469.649 1143.72 514.955C1171.95 549.912 1224.07 573.205 1278.31 575.086C1332.56 576.979 1444.26 569.939 1516.14 514.789" stroke="url(#paint0_linear_8023_90951)" stroke-width="2.58926" stroke-miterlimit="10"/>
<path style="mix-blend-mode:multiply" opacity="0.95" d="M-6.33709 355.348C24.2755 371.195 62.6525 372.318 99.0084 364.088C126.545 357.869 152.903 346.349 174.427 332.296C180.388 328.401 186.136 324.345 191.702 320.153C219.046 299.571 241.92 275.802 267.348 253.815C280.176 242.724 293.429 231.998 307.945 222.221C320.671 213.65 335.054 205.911 350.487 199.557C394.615 181.414 446.601 174.892 489.077 192.856C504.168 199.251 516.469 207.931 527.117 217.943C547.241 236.812 561.467 260.344 577.617 281.81C593.356 302.738 613.058 323.006 636.109 339.773C661.335 358.116 690.608 372.247 723.861 378.284C726.261 378.714 728.677 379.11 731.107 379.46C762.307 383.943 793.737 381.083 825.253 375.383C848.419 371.2 871.492 365.46 894.399 360.75C909.792 357.592 925.855 354.981 941.995 353.619C982.581 350.168 1022.79 354.357 1054.91 372.434C1084.17 388.902 1099.62 412.512 1112.59 437.1C1124.82 460.178 1134.89 484.153 1152.95 503.989C1153.45 504.538 1153.95 505.087 1154.47 505.635C1170.69 522.794 1193.77 536.366 1220.72 546C1241.95 553.596 1265.17 559.046 1288.28 560.419C1340.69 563.529 1459.02 545.302 1504.88 507.742" stroke="url(#paint1_linear_8023_90951)" stroke-width="2.58926" stroke-miterlimit="10"/>
<path style="mix-blend-mode:multiply" opacity="0.91" d="M-9.07081 347.678C20.799 364.282 59.633 366.218 96.369 358.239C124.255 352.202 150.886 340.613 172.638 326.365C178.659 322.423 184.438 318.311 190.034 314.061C217.529 293.147 239.977 268.841 265.572 246.601C278.506 235.361 291.804 224.475 306.381 214.56C319.167 205.851 333.595 197.975 349.164 191.506C393.536 173.099 445.946 166.485 489.181 183.875C504.53 190.051 517.21 198.513 528.252 208.294C549.196 226.773 564.377 249.97 581.15 271.4C597.497 292.293 617.396 312.732 640.22 329.935C665.174 348.726 693.689 363.637 726.397 370.66C728.752 371.17 731.137 371.635 733.537 372.054C764.298 377.477 795.73 375.751 827.581 370.52C850.991 366.68 874.352 360.916 897.533 356.264C913.139 353.139 929.368 350.597 945.63 349.509C986.476 346.722 1025.92 352.539 1058.5 370.593C1088.13 387.025 1105.02 409.429 1119.25 432.182C1132.62 453.562 1143.7 475.302 1162.1 493.006C1162.62 493.498 1163.14 493.989 1163.65 494.481C1180.13 509.818 1203.21 521.534 1230.57 530.595C1252.11 537.732 1275.42 543.812 1298.19 545.746C1348.73 550.029 1463.42 527.578 1493.47 499.591" stroke="url(#paint2_linear_8023_90951)" stroke-width="2.58926" stroke-miterlimit="10"/>
<path style="mix-blend-mode:multiply" opacity="0.86" d="M-11.7591 339.983C17.3678 357.333 56.6589 360.093 93.7901 352.365C122.041 346.522 148.945 334.841 170.909 320.409C176.976 316.422 182.8 312.252 188.412 307.934C216.058 286.698 238.08 261.843 263.856 239.351C276.896 227.962 290.225 216.927 304.862 206.863C317.709 198.017 332.182 190.015 347.903 183.431C392.532 164.76 445.352 158.065 489.33 174.869C504.937 180.839 517.981 189.059 529.448 198.633C551.226 216.72 567.364 239.584 584.759 260.978C601.713 281.824 621.825 302.446 644.392 320.084C669.073 339.333 696.831 355.014 729.009 363.023C731.333 363.602 733.673 364.147 736.043 364.646C766.365 371.021 797.799 370.429 829.985 365.666C853.654 362.17 877.288 356.371 900.727 351.775C916.53 348.684 932.927 346.222 949.326 345.41C990.416 343.297 1029.12 350.731 1062.17 368.772C1092.14 385.17 1110.51 406.345 1125.99 427.274C1140.53 446.945 1152.59 466.449 1171.33 482.045C1171.85 482.479 1172.38 482.913 1172.91 483.347C1189.64 496.852 1212.72 506.735 1240.47 515.211C1262.32 521.889 1285.72 528.587 1308.16 531.084C1356.82 536.504 1453.38 518.11 1482.2 492.554" stroke="url(#paint3_linear_8023_90951)" stroke-width="2.58926" stroke-miterlimit="10"/>
<path style="mix-blend-mode:multiply" opacity="0.82" d="M-14.4736 332.301C13.9106 350.408 53.6587 353.969 91.1701 346.503C119.771 340.843 146.948 329.093 169.139 314.466C175.252 310.433 181.122 306.206 186.763 301.83C214.561 280.262 236.156 254.881 262.099 232.125C275.245 220.587 288.619 209.392 303.301 199.19C316.209 190.218 330.727 182.067 346.6 175.368C391.487 156.433 444.717 149.657 489.438 165.876C505.302 171.638 518.725 179.629 530.602 188.973C553.215 206.669 570.293 229.198 588.311 250.557C605.873 271.367 626.183 292.149 648.523 310.246C672.931 329.954 699.915 346.403 731.564 355.409C733.843 356.058 736.152 356.671 738.492 357.251C768.375 364.577 799.827 365.108 832.317 360.814C856.229 357.66 880.152 351.838 903.865 347.299C919.881 344.242 936.429 341.86 952.966 341.311C994.315 339.874 1032.28 348.913 1065.78 366.941C1096.12 383.292 1115.96 403.261 1132.67 422.355C1148.39 440.317 1161.46 457.551 1180.5 471.073C1181.03 471.45 1181.56 471.827 1182.1 472.192C1199.06 483.875 1222.18 491.902 1250.3 499.805C1272.47 506.024 1295.91 513.318 1318.06 516.411C1364.78 522.923 1445.93 508.45 1473.53 485.324" stroke="url(#paint4_linear_8023_90951)" stroke-width="2.58926" stroke-miterlimit="10"/>
<path style="mix-blend-mode:multiply" opacity="0.77" d="M-17.1938 324.608C10.4476 343.462 50.6526 347.846 88.5593 340.632C117.509 335.166 144.96 323.323 167.363 308.501C173.537 304.422 179.437 300.138 185.108 295.705C213.058 273.816 234.227 247.886 260.352 224.89C273.603 213.213 287.023 201.858 301.766 191.507C314.733 182.397 329.297 174.121 345.307 167.295C390.451 148.097 444.091 141.228 489.57 156.872C505.692 162.428 519.479 170.177 531.781 179.315C555.228 196.608 573.248 218.814 591.903 240.137C610.072 260.912 630.58 281.865 652.693 300.397C676.829 320.564 703.055 337.782 734.158 347.775C736.407 348.503 738.671 349.186 740.98 349.834C770.41 358.112 801.879 359.776 834.704 355.94C858.86 353.13 883.071 347.273 907.057 342.802C923.27 339.79 940.001 337.465 956.66 337.202C998.268 336.428 1035.48 347.095 1069.43 365.111C1100.14 381.427 1121.46 400.19 1139.38 417.449C1156.27 433.713 1170.34 448.689 1189.71 460.114C1190.24 460.434 1190.79 460.754 1191.34 461.062C1208.56 470.911 1231.67 477.106 1260.2 484.435C1282.67 490.207 1306.16 498.084 1328.04 501.762C1372.82 509.309 1436.49 498.356 1462.84 477.673" stroke="url(#paint5_linear_8023_90951)" stroke-width="2.58926" stroke-miterlimit="10"/>
<path style="mix-blend-mode:multiply" opacity="0.73" d="M-19.8993 316.923C6.99936 336.533 47.6766 341.73 85.9482 334.778C115.263 329.495 142.987 317.583 165.603 302.566C171.822 298.441 177.767 294.099 183.454 289.597C211.554 267.376 232.297 240.909 258.588 217.66C271.946 205.835 285.396 194.33 300.199 183.819C313.227 174.572 327.837 166.169 343.997 159.217C389.4 139.755 443.449 132.805 489.672 147.864C506.052 153.213 520.188 160.744 532.914 169.64C557.151 186.576 576.157 208.414 595.435 229.701C614.211 250.429 634.916 271.564 656.803 290.533C680.666 311.146 706.134 329.145 736.708 340.124C738.911 340.921 741.145 341.684 743.424 342.401C772.415 351.619 803.885 354.417 837.046 351.061C861.46 348.594 885.945 342.714 910.189 338.288C926.615 335.31 943.498 333.065 960.309 333.076C1002.16 332.978 1038.63 345.25 1073.06 363.265C1104.11 379.546 1126.94 397.092 1146.08 412.515C1164.16 427.07 1179.19 439.799 1198.9 449.128C1199.45 449.39 1200 449.652 1200.56 449.903C1218.04 457.919 1241.16 462.27 1270.07 469.025C1292.86 474.338 1316.37 482.777 1337.97 487.085C1380.79 495.61 1428.45 489.318 1453.58 471.055" stroke="url(#paint6_linear_8023_90951)" stroke-width="2.58926" stroke-miterlimit="10"/>
<path style="mix-blend-mode:multiply" opacity="0.68" d="M-22.6086 309.251C3.53205 329.619 44.6816 335.628 83.3332 328.928C112.998 323.838 140.994 311.845 163.838 296.633C170.102 292.463 176.093 288.064 181.81 283.505C210.062 260.962 230.378 233.947 256.836 210.446C270.316 198.472 283.795 186.807 298.659 176.158C311.748 166.774 326.402 158.233 342.715 151.178C388.375 131.452 442.834 124.422 489.815 138.894C506.452 144.037 520.968 151.337 534.104 160.015C559.16 176.571 579.122 198.075 599.038 219.315C618.421 240.006 639.324 261.313 660.983 280.717C684.574 301.789 709.284 320.557 739.313 332.521C741.486 333.387 743.674 334.219 745.908 335.016C774.46 345.185 805.933 349.118 839.428 346.219C864.086 344.095 888.859 338.18 913.377 333.823C930.015 330.879 947.065 328.736 963.998 328.988C1006.11 329.622 1041.82 343.454 1076.71 361.444C1108.12 377.69 1132.43 394.018 1152.79 407.606C1172.06 420.464 1188.05 430.934 1208.11 438.166C1208.67 438.371 1209.22 438.564 1209.78 438.769C1227.5 444.964 1250.63 447.47 1279.95 453.64C1303.06 458.495 1326.56 467.483 1347.93 472.422C1388.78 481.867 1453.53 468.687 1477.43 452.855" stroke="url(#paint7_linear_8023_90951)" stroke-width="2.58926" stroke-miterlimit="10"/>
<path style="mix-blend-mode:multiply" opacity="0.64" d="M-25.3183 301.54C0.0795889 322.654 41.686 329.486 80.733 323.038C110.747 318.131 139.032 306.057 162.073 290.661C168.398 286.445 174.419 281.988 180.166 277.372C208.569 254.497 228.475 226.944 255.099 203.203C268.685 191.08 282.21 179.266 297.118 168.468C310.268 158.946 324.968 150.28 341.417 143.098C387.334 123.108 442.204 115.985 489.927 129.883C506.823 134.819 521.702 141.89 535.263 150.349C561.153 166.514 582.056 187.684 602.595 208.888C622.586 229.532 643.702 251.022 665.103 270.873C688.406 292.404 712.359 311.94 741.858 324.902C743.985 325.837 746.158 326.749 748.347 327.615C776.46 338.736 807.95 343.791 841.75 341.361C866.667 339.581 891.713 333.642 916.504 329.341C933.34 326.431 950.557 324.368 967.627 324.894C1009.98 326.204 1044.95 341.652 1080.31 359.63C1112.08 375.829 1137.9 390.963 1159.46 402.705C1179.92 413.853 1196.85 422.088 1217.27 427.211C1217.83 427.348 1218.39 427.495 1218.97 427.631C1236.94 431.993 1260.07 432.666 1289.79 438.252C1313.19 442.648 1336.72 452.163 1357.82 457.766C1396.7 468.063 1444.14 458.451 1466.82 445.049" stroke="url(#paint8_linear_8023_90951)" stroke-width="2.58926" stroke-miterlimit="10"/>
<path style="mix-blend-mode:multiply" opacity="0.59" d="M-28.0123 293.873C-3.35724 315.745 38.7062 323.389 78.1332 317.191C108.512 312.479 137.055 300.324 160.323 284.722C166.694 280.46 172.76 275.946 178.523 271.261C207.077 248.065 226.556 219.963 253.348 195.97C267.039 183.709 280.594 171.723 295.578 160.788C308.788 151.128 323.534 142.336 340.134 135.028C386.294 114.774 441.589 107.57 490.055 120.883C507.194 125.612 522.467 132.441 536.423 140.682C563.148 156.456 585.007 177.291 606.168 198.46C626.766 219.068 648.08 240.729 669.254 261.016C692.285 283.005 715.479 303.311 744.448 317.259C746.546 318.274 748.673 319.255 750.831 320.201C778.506 332.273 809.998 338.462 844.132 336.502C869.293 335.064 894.628 329.09 919.677 324.846C936.726 321.97 954.095 319.987 971.302 320.788C1013.92 322.762 1048.15 339.826 1083.96 357.791C1116.09 373.955 1143.42 387.872 1166.18 397.79C1187.85 407.24 1205.71 413.217 1226.47 416.243C1227.05 416.322 1227.63 416.413 1228.21 416.492C1246.43 419.031 1269.57 417.85 1299.68 422.861C1323.41 426.81 1346.92 436.818 1367.8 443.097C1404.7 454.2 1440.68 448.582 1462.12 437.611" stroke="url(#paint9_linear_8023_90951)" stroke-width="2.58926" stroke-miterlimit="10"/>
<path style="mix-blend-mode:multiply" opacity="0.55" d="M-30.7564 286.2C-6.8441 308.818 35.6765 317.286 75.4988 311.351C106.227 306.82 135.059 294.586 158.539 278.8C164.955 274.48 171.067 269.92 176.859 265.178C205.565 241.65 224.618 213.022 251.591 188.765C265.389 176.355 278.989 164.22 294.019 153.136C307.289 143.339 322.08 134.409 338.832 126.987C385.25 106.48 440.954 99.1726 490.179 111.911C507.575 116.422 523.228 123.033 537.593 131.055C565.152 146.437 587.952 166.938 609.736 188.06C630.926 208.621 652.453 230.453 673.4 251.187C696.158 273.624 718.595 294.709 747.019 309.643C749.071 310.727 751.168 311.777 753.296 312.803C780.533 325.816 812.026 333.138 846.495 331.647C871.9 330.564 897.523 324.555 922.846 320.368C940.092 317.526 957.644 315.623 974.988 316.686C1017.85 319.335 1051.33 338.016 1087.6 355.969C1120.1 372.098 1148.94 384.786 1172.89 392.88C1195.77 400.621 1214.55 404.362 1235.67 405.281C1236.25 405.302 1236.84 405.336 1237.42 405.357C1255.89 406.064 1279.04 403.049 1309.54 407.476C1333.57 410.966 1357.1 421.455 1377.72 428.445C1412.67 440.273 1446.59 436.503 1466.8 427.963" stroke="url(#paint10_linear_8023_90951)" stroke-width="2.58926" stroke-miterlimit="10"/>
<path style="mix-blend-mode:multiply" opacity="0.5" d="M-33.4617 278.501C-10.2922 301.876 32.7003 311.156 72.8875 305.473C103.966 301.136 133.07 288.821 156.778 272.84C163.255 268.474 169.397 263.857 175.22 259.057C204.076 235.209 222.704 206.032 249.843 181.534C263.747 168.975 277.392 156.692 292.483 145.459C305.814 135.524 320.649 126.468 337.553 118.919C384.229 98.1492 440.343 90.7602 490.311 102.901C507.965 107.205 523.982 113.575 538.772 121.379C567.15 136.37 590.906 156.537 613.312 177.622C635.11 198.148 656.834 220.151 677.555 241.332C700.04 264.227 721.704 286.082 749.598 302.014C751.62 303.166 753.672 304.296 755.77 305.391C782.552 319.355 814.063 327.812 848.867 326.778C874.53 326.037 900.426 319.994 926.023 315.875C943.482 313.067 961.185 311.232 978.667 312.582C1021.79 315.906 1054.52 336.203 1091.25 354.132C1124.1 370.214 1154.47 381.685 1179.6 387.956C1203.71 393.976 1223.4 395.505 1244.88 394.292C1245.48 394.257 1246.07 394.232 1246.66 394.197C1265.38 393.082 1288.55 388.212 1319.43 392.065C1343.78 395.096 1367.29 406.031 1387.68 413.755C1420.7 426.263 1452.53 424.376 1471.52 418.266" stroke="url(#paint11_linear_8023_90951)" stroke-width="2.58926" stroke-miterlimit="10"/>
<path style="mix-blend-mode:multiply" opacity="0.45" d="M-36.1591 270.814C-13.7324 294.935 29.7173 305.039 70.2997 299.606C101.743 295.452 131.121 283.056 155.025 266.891C161.547 262.48 167.735 257.805 173.573 252.949C202.581 228.779 220.782 199.054 248.103 174.304C262.113 161.596 275.804 149.152 290.939 137.781C304.331 127.709 319.212 118.515 336.252 110.864C383.185 89.8295 439.709 82.3597 490.436 93.9146C508.347 98.0124 524.744 104.152 539.928 111.737C569.141 126.337 593.838 146.17 616.882 167.22C639.287 187.71 661.209 209.884 681.703 231.501C703.915 254.854 724.821 277.478 752.185 294.395C754.162 295.628 756.184 296.827 758.251 297.991C784.595 312.906 816.107 322.485 851.246 321.92C877.153 321.523 903.338 315.456 929.193 311.382C946.864 308.62 964.72 306.853 982.338 308.478C1025.7 312.466 1057.69 334.379 1094.9 352.307C1128.11 368.354 1160.02 378.585 1186.33 383.054C1211.65 387.354 1232.24 386.671 1254.1 383.338C1254.69 383.245 1255.3 383.164 1255.91 383.071C1274.89 380.123 1298.05 373.42 1329.34 376.689C1353.99 379.261 1377.53 390.608 1397.65 399.1C1428.76 412.23 1458.48 412.295 1476.24 408.616" stroke="url(#paint12_linear_8023_90951)" stroke-width="2.58926" stroke-miterlimit="10"/>
<path style="mix-blend-mode:multiply" opacity="0.41" d="M-38.883 263.136C-17.1991 288.014 26.7076 298.93 67.6701 293.749C99.4625 289.789 129.114 277.312 153.246 260.941C159.813 256.484 166.047 251.752 171.915 246.826C201.074 222.324 218.849 192.062 246.337 167.06C260.452 154.214 274.174 141.61 289.385 130.09C302.837 119.881 317.763 110.561 334.955 102.783C382.146 81.485 439.08 73.9227 490.549 84.9034C508.719 88.7944 525.494 94.6927 541.088 102.059C571.136 116.257 596.774 135.767 620.44 156.781C643.453 177.224 665.588 199.581 685.824 221.633C707.764 245.445 727.912 268.837 754.731 286.741C756.677 288.043 758.654 289.31 760.691 290.554C786.596 306.421 818.125 317.122 853.569 317.038C879.735 316.984 906.193 310.893 932.321 306.876C950.19 304.148 968.228 302.461 985.968 304.349C1029.59 309 1060.82 332.542 1098.49 350.457C1132.06 366.469 1165.49 375.459 1192.98 378.117C1219.53 380.685 1241.04 377.8 1263.25 372.348C1263.85 372.198 1264.46 372.048 1265.07 371.898C1284.29 367.116 1307.46 358.57 1339.14 361.265C1364.11 363.39 1387.69 375.115 1407.52 384.409C1436.75 398.104 1464.33 400.177 1480.85 398.929" stroke="url(#paint13_linear_8023_90951)" stroke-width="2.58926" stroke-miterlimit="10"/>
<path style="mix-blend-mode:multiply" opacity="0.36" d="M-41.5867 255.461C-20.6456 281.096 23.7181 292.825 65.0759 287.894C97.2179 284.117 127.142 271.56 151.502 255.005C158.13 250.501 164.394 245.712 170.292 240.729C199.603 215.906 216.967 185.095 244.621 159.852C258.843 146.857 272.609 134.093 287.865 122.436C301.378 112.088 316.35 102.643 333.693 94.7383C381.142 73.1766 438.486 65.5333 490.698 75.9283C509.125 79.6126 526.265 85.2696 542.283 92.4293C573.166 106.236 599.76 125.423 624.049 146.39C647.669 166.797 670.001 189.325 690.011 211.813C711.678 236.084 731.052 260.245 757.342 279.146C759.243 280.517 761.189 281.864 763.181 283.177C788.647 299.984 820.179 311.831 855.958 312.203C882.366 312.493 909.113 306.367 935.515 302.418C953.596 299.724 971.786 298.083 989.664 300.279C1033.55 305.537 1064.04 330.752 1102.16 348.655C1136.08 364.62 1171.04 372.371 1199.72 373.228C1227.48 374.052 1249.92 368.989 1272.49 361.407C1273.11 361.199 1273.72 360.992 1274.34 360.784C1293.81 354.181 1317 343.791 1349.07 345.901C1374.35 347.567 1398 359.647 1417.53 369.766C1444.93 383.98 1470.32 388.108 1485.61 389.291" stroke="url(#paint14_linear_8023_90951)" stroke-width="2.58926" stroke-miterlimit="10"/>
<path style="mix-blend-mode:multiply" opacity="0.32" d="M-44.2946 247.773C-24.1115 274.154 20.7246 286.706 62.4625 282.039C94.9693 278.444 125.167 265.817 149.724 249.067C156.397 244.518 162.706 239.672 168.62 234.631C198.082 209.476 215.019 178.127 242.841 152.632C257.168 139.488 270.98 126.575 286.297 114.757C299.885 104.272 314.887 94.6892 332.367 86.67C380.058 64.8444 437.827 57.1201 490.797 66.9294C509.482 70.407 527.016 75.8112 543.414 82.7754C575.176 96.1446 602.666 115.043 627.578 135.975C651.805 156.335 674.335 179.046 694.117 201.981C715.513 226.699 734.129 251.64 759.889 271.528C761.759 272.967 763.66 274.395 765.622 275.788C790.649 293.546 822.183 306.515 858.297 307.357C884.949 307.989 911.984 301.84 938.644 297.937C956.923 295.276 975.295 293.715 993.31 296.186C1037.45 302.119 1067.19 328.95 1105.76 346.841C1140.05 362.771 1176.52 369.27 1206.39 368.326C1235.36 367.419 1258.74 360.166 1281.64 350.452C1282.26 350.188 1282.89 349.923 1283.52 349.658C1303.24 341.222 1326.43 328.988 1358.9 330.524C1384.49 331.731 1408.24 344.121 1427.41 355.122C1453.03 369.821 1476.18 376.039 1490.25 379.652" stroke="url(#paint15_linear_8023_90951)" stroke-width="2.58926" stroke-miterlimit="10"/>
<path style="mix-blend-mode:multiply" opacity="0.27" d="M-47.0156 240.06C-27.5753 267.198 17.7327 280.563 59.8356 276.146C92.692 272.746 123.163 260.027 147.947 243.082C154.666 238.486 161.02 233.583 166.964 228.474C196.577 202.998 213.089 171.112 241.077 145.352C255.525 132.059 269.352 118.997 284.729 107.031C298.378 96.4197 313.425 86.699 331.057 78.5651C379.006 56.4756 437.184 48.6588 490.898 57.8938C509.841 61.1648 527.754 66.3276 544.562 73.0733C577.158 86.04 605.589 104.616 631.138 125.511C655.973 145.836 678.701 168.707 698.256 192.089C719.379 217.266 737.237 242.976 762.452 263.849C764.277 265.369 766.148 266.854 768.079 268.327C792.668 287.037 824.204 301.14 860.652 302.451C887.563 303.426 914.872 297.242 941.805 293.407C960.297 290.78 978.821 289.299 996.973 292.033C1041.36 298.63 1070.35 327.089 1109.4 344.956C1144.05 360.85 1182.02 366.098 1213.09 363.365C1243.26 360.714 1267.59 351.284 1290.83 339.439C1291.47 339.117 1292.1 338.795 1292.73 338.473C1312.69 328.215 1335.9 314.137 1368.75 315.088C1394.66 315.837 1418.57 328.512 1437.34 340.408C1461.24 355.557 1482.09 363.886 1494.94 369.93" stroke="url(#paint16_linear_8023_90951)" stroke-width="2.58926" stroke-miterlimit="10"/>
<path style="mix-blend-mode:multiply" opacity="0.23" d="M-49.7197 232.393C-31.0221 260.277 14.743 274.454 57.2411 270.3C90.4471 267.082 121.206 254.294 146.203 237.154C152.983 232.513 159.367 227.551 165.341 222.385C195.106 196.577 211.191 164.153 239.361 138.153C253.915 124.711 267.787 111.488 283.225 99.3846C296.934 88.636 312.027 78.7893 329.81 70.529C378.016 48.1756 436.605 40.2778 491.077 48.9272C510.262 51.9914 528.57 56.9244 545.787 63.4516C579.203 76.0271 608.59 94.2689 634.762 115.129C660.204 135.406 683.13 158.46 702.458 182.277C723.308 207.913 740.393 234.392 765.079 256.263C766.873 257.851 768.714 259.417 770.599 260.959C794.749 280.62 826.287 295.845 863.071 297.625C890.225 298.943 917.823 292.736 945.029 288.957C963.734 286.364 982.425 284.951 1000.7 287.972C1045.34 295.244 1073.58 325.308 1113.1 343.174C1148.1 359.022 1187.59 363.018 1219.87 358.496C1251.25 354.09 1276.51 342.482 1300.1 328.517C1300.74 328.138 1301.39 327.758 1302.03 327.368C1322.25 315.277 1345.46 299.355 1378.71 299.733C1404.92 300.034 1429.06 312.961 1447.37 325.785C1469.6 341.361 1488.1 351.837 1499.7 360.312" stroke="url(#paint17_linear_8023_90951)" stroke-width="2.58926" stroke-miterlimit="10"/>
<path style="mix-blend-mode:multiply" opacity="0.18" d="M-52.412 224.718C-34.4572 253.36 11.7649 268.349 54.6431 264.447C88.2139 261.422 119.231 248.542 144.455 231.218C151.28 226.531 157.71 221.513 163.699 216.289C193.615 190.159 209.275 157.187 237.611 130.935C252.272 117.355 266.189 103.972 281.672 91.7188C295.441 80.8325 310.579 70.8483 328.499 62.4732C376.963 39.8557 435.962 31.8769 491.177 39.9406C510.62 42.7867 529.292 47.4899 546.934 53.7986C581.184 65.9831 611.512 83.8908 638.321 104.715C664.371 124.957 687.51 148.182 706.58 172.447C727.143 198.541 743.485 225.789 767.641 248.646C769.39 250.303 771.2 251.949 773.056 253.56C796.752 274.162 828.322 290.532 865.41 292.769C892.824 294.43 920.694 288.188 948.159 284.466C967.061 281.908 985.919 280.574 1004.33 283.869C1049.23 291.817 1076.72 323.497 1116.69 341.34C1152.05 357.152 1193.04 359.897 1226.52 353.574C1259.08 347.425 1285.37 333.673 1309.25 317.543C1309.9 317.106 1310.55 316.67 1311.2 316.221C1331.68 302.309 1354.88 284.543 1388.54 284.336C1415.07 284.178 1439.49 297.333 1457.27 311.109C1477.9 327.113 1493.98 339.736 1504.35 350.641" stroke="url(#paint18_linear_8023_90951)" stroke-width="2.58926" stroke-miterlimit="10"/>
<path style="mix-blend-mode:multiply" opacity="0.14" d="M-55.1327 217.021C-37.9207 246.421 8.75844 262.222 52.032 258.582C85.9524 255.741 117.258 242.791 142.679 225.272C149.565 220.539 156.025 215.463 162.045 210.171C192.112 183.708 207.345 150.198 235.863 123.694C250.63 109.965 264.577 96.4209 280.136 84.0305C293.966 73.0066 309.149 62.8962 327.221 54.3948C375.942 31.5133 435.351 23.4419 491.309 30.9315C511.01 33.5709 530.061 38.0328 548.097 44.1346C583.182 55.9279 614.451 73.5017 641.883 94.2789C668.54 114.474 691.876 137.882 710.72 162.583C731.01 189.124 746.594 217.153 770.205 240.996C771.924 242.733 773.689 244.448 775.514 246.128C798.771 267.681 830.343 285.174 867.766 287.88C895.424 289.884 923.582 283.618 951.321 279.953C970.435 277.44 989.446 276.175 1008.01 279.733C1053.16 288.344 1079.91 321.642 1120.34 339.483C1156.05 355.261 1198.55 356.742 1233.23 348.642C1266.99 340.749 1294.24 324.796 1318.46 306.557C1319.12 306.064 1319.78 305.558 1320.44 305.064C1341.16 289.319 1364.39 269.709 1398.44 268.928C1425.27 268.311 1450.06 281.672 1467.23 296.435C1486.33 312.854 1499.92 327.635 1509.07 340.971" stroke="url(#paint19_linear_8023_90951)" stroke-width="2.58926" stroke-miterlimit="10"/>
<path style="mix-blend-mode:multiply" opacity="0.09" d="M-57.864 209.344C-41.3948 239.49 5.74142 256.115 49.3951 252.726C83.6651 250.078 115.244 237.036 140.892 219.322C147.824 214.532 154.33 209.41 160.379 204.06C190.598 177.277 205.404 143.218 234.089 116.472C248.962 102.594 262.955 88.9011 278.559 76.3616C292.449 65.2002 307.678 54.9637 325.901 46.3359C374.881 23.1904 434.699 15.0379 491.415 21.9418C511.374 24.3746 530.789 28.6066 549.25 34.4785C585.17 45.8808 617.395 63.1205 645.434 83.8621C672.698 104.021 696.233 127.601 714.849 152.738C734.867 179.738 749.693 208.536 772.759 233.377C774.433 235.183 776.167 236.966 777.947 238.726C800.766 261.231 832.34 279.858 870.098 283.033C897.998 285.38 926.446 279.079 954.458 275.482C973.77 273.003 992.963 271.807 1011.65 275.651C1057.06 284.937 1083.05 319.851 1123.94 337.669C1160.02 353.411 1203.98 353.596 1239.91 343.74C1274.83 334.059 1303.06 315.961 1327.61 295.603C1328.28 295.052 1328.95 294.489 1329.61 293.938C1350.58 276.36 1373.81 254.917 1408.25 253.551C1435.4 252.476 1460.62 266.019 1477.12 281.779C1494.75 298.625 1505.79 315.554 1513.72 331.309" stroke="url(#paint20_linear_8023_90951)" stroke-width="2.58926" stroke-miterlimit="10"/>
<path style="mix-blend-mode:multiply" opacity="0.05" d="M-60.5849 201.681C-44.8584 232.585 2.75001 250.022 46.7837 246.884C81.4186 244.419 113.271 231.308 139.131 213.398C146.108 208.562 152.659 203.383 158.724 197.976C189.094 170.86 203.49 136.263 232.341 109.265C247.32 95.2377 261.358 81.3958 277.022 68.7073C290.974 57.4082 306.247 47.0341 324.607 38.3029C373.844 14.8933 434.072 6.6484 491.532 12.9781C511.748 15.2042 531.543 19.1949 550.414 24.8598C587.153 35.8596 620.334 52.7881 649.011 73.4827C676.882 93.6063 700.614 117.358 719.004 142.93C738.749 170.389 752.802 199.956 775.353 225.783C776.997 227.658 778.686 229.522 780.435 231.362C802.815 254.818 834.391 274.568 872.484 278.212C900.644 280.914 929.364 274.578 957.634 271.026C977.159 268.581 996.504 267.464 1015.33 271.583C1060.98 281.533 1086.24 318.075 1127.59 335.88C1164.03 351.577 1209.5 350.532 1246.62 338.864C1282.74 327.462 1311.93 307.141 1336.82 284.663C1337.5 284.055 1338.17 283.435 1338.85 282.827C1360.08 263.426 1383.32 240.128 1418.15 238.189C1445.6 236.666 1471.35 250.38 1487.09 267.15C1503.32 284.446 1511.74 303.498 1518.42 321.684" stroke="url(#paint21_linear_8023_90951)" stroke-width="2.58926" stroke-miterlimit="10"/>
</g>
<defs>
<linearGradient id="paint0_linear_8023_90951" x1="711.603" y1="191.314" x2="709.138" y2="572.646" gradientUnits="userSpaceOnUse">
<stop stop-color="#C79FFC"/>
<stop offset="1" stop-color="#A86DF5"/>
</linearGradient>
<linearGradient id="paint1_linear_8023_90951" x1="712.605" y1="182.83" x2="710.178" y2="558.099" gradientUnits="userSpaceOnUse">
<stop stop-color="#C69EFC"/>
<stop offset="1" stop-color="#E5D0F7"/>
</linearGradient>
<linearGradient id="paint2_linear_8023_90951" x1="713.523" y1="174.356" x2="711.132" y2="543.679" gradientUnits="userSpaceOnUse">
<stop stop-color="#9D5BF4"/>
<stop offset="1" stop-color="#BF91FC"/>
</linearGradient>
<linearGradient id="paint3_linear_8023_90951" x1="714.518" y1="165.862" x2="712.161" y2="529.345" gradientUnits="userSpaceOnUse">
<stop stop-color="#E4C5E9"/>
<stop offset="1" stop-color="#B17DF7"/>
</linearGradient>
<linearGradient id="paint4_linear_8023_90951" x1="715.46" y1="157.364" x2="713.136" y2="515.123" gradientUnits="userSpaceOnUse">
<stop stop-color="#C39AF9"/>
<stop offset="1" stop-color="#BF90FB"/>
</linearGradient>
<linearGradient id="paint5_linear_8023_90951" x1="716.404" y1="148.851" x2="714.131" y2="500.985" gradientUnits="userSpaceOnUse">
<stop stop-color="#B583F9"/>
<stop offset="1" stop-color="#4E3C86"/>
</linearGradient>
<linearGradient id="paint6_linear_8023_90951" x1="717.372" y1="140.338" x2="715.128" y2="486.983" gradientUnits="userSpaceOnUse">
<stop stop-color="#9C5BF3"/>
<stop offset="1" stop-color="#9E5BF7"/>
</linearGradient>
<linearGradient id="paint7_linear_8023_90951" x1="718.31" y1="131.83" x2="716.1" y2="473.101" gradientUnits="userSpaceOnUse">
<stop stop-color="#E2C7EC"/>
<stop offset="1" stop-color="#A161F7"/>
</linearGradient>
<linearGradient id="paint8_linear_8023_90951" x1="719.25" y1="123.279" x2="717.073" y2="459.344" gradientUnits="userSpaceOnUse">
<stop stop-color="#BF92FB"/>
<stop offset="1" stop-color="#E5D2FA"/>
</linearGradient>
<linearGradient id="paint9_linear_8023_90951" x1="720.194" y1="114.757" x2="718.053" y2="445.804" gradientUnits="userSpaceOnUse">
<stop stop-color="#D0A7E8"/>
<stop offset="1" stop-color="#C093FC"/>
</linearGradient>
<linearGradient id="paint10_linear_8023_90951" x1="721.088" y1="106.228" x2="718.974" y2="432.512" gradientUnits="userSpaceOnUse">
<stop stop-color="#E5D0F7"/>
<stop offset="1" stop-color="#BB8DF9"/>
</linearGradient>
<linearGradient id="paint11_linear_8023_90951" x1="721.994" y1="97.6572" x2="719.91" y2="419.532" gradientUnits="userSpaceOnUse">
<stop stop-color="#C89FFE"/>
<stop offset="0.930555" stop-color="#DADCE9"/>
<stop offset="1" stop-color="#976CD1"/>
</linearGradient>
<linearGradient id="paint12_linear_8023_90951" x1="722.882" y1="89.0843" x2="720.821" y2="407.1" gradientUnits="userSpaceOnUse">
<stop stop-color="#E5CFF6"/>
<stop offset="0.9999" stop-color="#9E5EF3"/>
<stop offset="1" stop-color="#D9DDE8"/>
</linearGradient>
<linearGradient id="paint13_linear_8023_90951" x1="723.729" y1="80.5157" x2="721.691" y2="395.553" gradientUnits="userSpaceOnUse">
<stop stop-color="#DBC2FC"/>
<stop offset="0.081597" stop-color="#FAF7FF"/>
<stop offset="1" stop-color="#C79EFC"/>
</linearGradient>
<linearGradient id="paint14_linear_8023_90951" x1="724.692" y1="71.9559" x2="722.659" y2="385.514" gradientUnits="userSpaceOnUse">
<stop stop-color="#B07AF8"/>
<stop offset="1" stop-color="#A365F5"/>
</linearGradient>
<linearGradient id="paint15_linear_8023_90951" x1="725.842" y1="63.3554" x2="723.818" y2="375.776" gradientUnits="userSpaceOnUse">
<stop stop-color="#C59CFB"/>
<stop offset="1" stop-color="#A76AF8"/>
</linearGradient>
<linearGradient id="paint16_linear_8023_90951" x1="726.982" y1="54.7185" x2="724.968" y2="365.943" gradientUnits="userSpaceOnUse">
<stop stop-color="#7C64C6"/>
<stop offset="1" stop-color="#C79FFD"/>
</linearGradient>
<linearGradient id="paint17_linear_8023_90951" x1="728.083" y1="46.1091" x2="726.064" y2="358.341" gradientUnits="userSpaceOnUse">
<stop stop-color="#A294C9"/>
<stop offset="1" stop-color="#4E3C86"/>
</linearGradient>
<linearGradient id="paint18_linear_8023_90951" x1="729.181" y1="37.4858" x2="727.122" y2="354.863" gradientUnits="userSpaceOnUse">
<stop stop-color="#E5CBF2"/>
<stop offset="1" stop-color="#9C5BF3"/>
</linearGradient>
<linearGradient id="paint19_linear_8023_90951" x1="730.21" y1="28.8239" x2="728.115" y2="351.63" gradientUnits="userSpaceOnUse">
<stop stop-color="#C397FD"/>
<stop offset="1" stop-color="#C79EFC"/>
</linearGradient>
<linearGradient id="paint20_linear_8023_90951" x1="731.217" y1="20.1652" x2="729.087" y2="348.612" gradientUnits="userSpaceOnUse">
<stop stop-color="#C79EFC"/>
<stop offset="1" stop-color="#9C5BF4"/>
</linearGradient>
<linearGradient id="paint21_linear_8023_90951" x1="732.208" y1="11.5047" x2="730.049" y2="345.805" gradientUnits="userSpaceOnUse">
<stop stop-color="#E5D0F8"/>
<stop offset="1" stop-color="#9E5BF6"/>
</linearGradient>
</defs>
</svg>
