<svg width="375" height="785" viewBox="0 0 375 785" fill="none" xmlns="http://www.w3.org/2000/svg">
<g opacity="0.85">
<path style="mix-blend-mode:multiply" d="M114.989 720.974C142.014 700.278 143.404 662.776 135.185 636.928C126.965 611.081 111.053 589.852 102.551 564.162C94.0433 538.47 95.2243 503.898 115.763 483.691C131.388 468.314 152.792 466.148 172.313 460.934C199.344 453.719 227.447 437.088 241.31 409.259C252.484 386.83 252.582 361.321 255.114 336.91C257.645 312.499 264.54 285.257 283.395 270.213C307.303 251.133 338.012 260.613 365.452 251.785C386.625 244.974 405.709 226.275 414.726 203.489C423.749 180.705 437.023 132.168 421.014 93.4145" stroke="url(#paint0_linear_5900_127994)" stroke-width="1.35759" stroke-miterlimit="10"/>
<path style="mix-blend-mode:multiply" opacity="0.95" d="M113.868 720.632C126.139 709.932 133.86 692.463 135.315 675.739C136.425 663.074 134.787 650.124 131.197 638.859C130.201 635.739 129.095 632.685 127.896 629.69C122.011 614.973 113.911 601.69 107.058 587.582C103.601 580.465 100.385 573.221 97.8177 565.579C95.5676 558.88 93.9696 551.598 93.2001 544.074C91.0128 522.563 95.6385 499.428 110.714 483.984C116.076 478.499 122.129 474.543 128.579 471.49C140.745 465.712 154.289 463.141 167.119 459.443C179.626 455.84 192.407 450.45 203.992 443.111C216.667 435.079 227.906 424.696 235.816 411.413C236.384 410.454 236.938 409.483 237.472 408.499C244.32 395.861 247.642 382.035 249.599 367.75C251.042 357.25 251.714 346.56 252.863 336.093C253.637 329.06 254.778 321.824 256.535 314.739C260.942 296.921 268.997 280.4 282.576 269.389C294.947 259.358 308.712 256.274 322.579 254.397C335.604 252.608 348.739 251.877 361.065 247.122C361.406 246.989 361.748 246.857 362.091 246.718C372.843 242.351 382.882 234.527 391.593 224.463C398.457 216.54 404.578 207.451 408.707 197.799C418.068 175.912 426.955 122.753 415.612 97.6174" stroke="url(#paint1_linear_5900_127994)" stroke-width="1.35759" stroke-miterlimit="10"/>
<path style="mix-blend-mode:multiply" opacity="0.91" d="M110.688 720.373C123.218 710.092 129.979 693.808 131.618 676.946C132.871 664.149 131.244 651.063 127.597 639.665C126.588 636.51 125.46 633.433 124.239 630.414C118.219 615.574 109.798 602.385 102.852 588.159C99.3401 580.971 96.0553 573.679 93.4327 565.986C91.1269 559.236 89.471 551.909 88.6682 544.304C86.3951 522.635 91.0458 499.287 105.961 483.419C111.257 477.787 117.261 473.632 123.66 470.373C135.761 464.179 149.286 461.146 162.192 457.171C174.775 453.298 187.669 447.842 199.433 440.656C212.287 432.798 223.793 422.844 232.102 409.929C232.703 409 233.286 408.051 233.849 407.089C241.091 394.768 244.966 381.098 247.205 366.729C248.853 356.168 249.561 345.343 250.78 334.76C251.605 327.636 252.805 320.333 254.716 313.231C259.488 295.387 268.224 279.416 281.862 268.196C294.273 257.994 307.67 254.111 320.836 251.42C333.208 248.889 345.411 247.39 356.756 242.165C357.072 242.017 357.388 241.869 357.704 241.722C367.611 236.97 376.754 228.857 385.249 218.531C391.94 210.396 398.383 201.353 402.734 191.925C412.389 170.99 418.698 118.713 409.632 101.733" stroke="url(#paint2_linear_5900_127994)" stroke-width="1.35759" stroke-miterlimit="10"/>
<path style="mix-blend-mode:multiply" opacity="0.86" d="M106.309 720.735C119.088 710.884 126.315 694.529 128.134 677.538C129.536 664.616 127.905 651.402 124.2 639.887C123.176 636.706 122.027 633.601 120.775 630.566C114.622 615.616 105.872 602.529 98.8305 588.19C95.2628 580.935 91.9104 573.608 89.2247 565.869C86.8612 559.073 85.1509 551.709 84.315 544.024C81.9521 522.208 86.6235 498.677 101.363 482.408C106.597 476.635 112.538 472.29 118.9 468.819C130.934 462.213 144.439 458.723 157.42 454.478C170.068 450.34 183.082 444.821 195.017 437.811C208.05 430.139 219.814 420.624 228.52 408.084C229.15 407.178 229.764 406.261 230.362 405.323C237.998 393.332 242.423 379.832 244.938 365.391C246.791 354.773 247.522 343.828 248.807 333.144C249.677 325.942 250.941 318.58 253.005 311.462C258.141 293.616 267.547 278.205 281.248 266.784C293.692 256.429 306.712 251.737 319.181 248.239C330.897 244.958 342.162 242.708 352.533 237.03C352.821 236.873 353.111 236.711 353.402 236.548C362.457 231.416 370.709 223.034 378.978 212.454C385.491 204.123 392.246 195.134 396.822 185.927C406.743 165.973 412.298 122.041 404.227 105.947" stroke="url(#paint3_linear_5900_127994)" stroke-width="1.35759" stroke-miterlimit="10"/>
<path style="mix-blend-mode:multiply" opacity="0.82" d="M102.059 720.723C115.09 711.307 122.77 694.886 124.77 677.781C126.311 664.744 124.685 651.41 120.918 639.775C119.879 636.569 118.708 633.438 117.432 630.383C111.14 615.326 102.07 602.347 94.9242 587.905C91.2995 580.586 87.8754 573.22 85.129 565.444C82.7127 558.607 80.936 551.205 80.066 543.442C77.6104 521.489 82.2991 497.783 96.8611 481.121C102.031 475.211 107.916 470.674 114.226 466.997C126.192 459.982 139.673 456.045 152.727 451.533C165.446 447.135 178.564 441.56 190.684 434.72C203.895 427.239 215.912 418.174 225.019 406.016C225.675 405.14 226.318 404.246 226.95 403.335C234.978 391.679 239.947 378.346 242.732 363.853C244.785 353.188 245.546 342.122 246.898 331.336C247.815 324.052 249.139 316.641 251.35 309.508C256.847 291.662 266.917 276.814 280.676 265.205C293.148 254.695 305.801 249.201 317.56 244.911C328.623 240.876 338.937 237.859 348.344 231.749C348.607 231.578 348.869 231.407 349.126 231.235C357.332 225.734 364.686 217.07 372.73 206.251C379.066 197.721 386.114 188.807 390.931 179.822C401.087 160.864 406.227 124.109 399.15 108.906" stroke="url(#paint4_linear_5900_127994)" stroke-width="1.35759" stroke-miterlimit="10"/>
<path style="mix-blend-mode:multiply" opacity="0.77" d="M97.632 721.218C110.912 712.229 119.06 695.734 121.241 678.497C122.928 665.338 121.3 651.873 117.471 640.117C116.418 636.879 115.225 633.726 113.926 630.649C107.502 615.479 98.1031 602.601 90.869 588.044C87.1941 580.659 83.6996 573.249 80.8905 565.425C78.4171 558.542 76.5865 551.101 75.6761 543.26C73.1321 521.157 77.8378 497.261 92.2341 480.188C97.3427 474.138 103.164 469.408 109.437 465.519C121.332 458.087 134.796 453.7 147.927 448.911C160.719 444.247 173.949 438.613 186.245 431.934C199.636 424.636 211.912 416.008 221.415 404.227C222.105 403.376 222.775 402.512 223.435 401.623C231.856 390.301 237.377 377.128 240.435 362.559C242.691 351.84 243.479 340.645 244.905 329.752C245.874 322.39 247.253 314.909 249.62 307.766C255.479 289.906 266.224 275.621 280.044 263.815C292.552 253.143 304.842 246.835 315.893 241.756C326.307 236.97 335.674 233.192 344.114 226.629C344.349 226.45 344.586 226.264 344.817 226.076C352.172 220.194 358.636 211.258 366.463 200.178C372.627 191.453 379.965 182.604 385.024 173.821C395.391 155.844 399.62 127.064 393.542 112.752" stroke="url(#paint5_linear_5900_127994)" stroke-width="1.35759" stroke-miterlimit="10"/>
<path style="mix-blend-mode:multiply" opacity="0.73" d="M93.4843 720.885C107.015 712.339 115.62 695.782 117.977 678.446C119.802 665.174 118.176 651.595 114.281 639.731C113.212 636.469 111.997 633.292 110.666 630.201C104.099 614.931 94.3736 602.164 87.0384 587.512C83.3053 580.066 79.7412 572.628 76.8612 564.761C74.3282 557.838 72.441 550.367 71.4895 542.45C68.849 520.219 73.5675 496.162 87.7824 478.708C92.8262 472.525 98.5915 467.621 104.808 463.521C116.643 455.711 130.072 450.858 143.275 445.806C156.131 440.886 169.474 435.204 181.943 428.697C195.505 421.593 208.04 413.416 217.936 402.022C218.652 401.202 219.356 400.364 220.045 399.499C228.851 388.518 234.916 375.528 238.251 360.903C240.708 350.137 241.521 338.833 243.003 327.848C244.018 320.409 245.455 312.883 247.976 305.724C254.191 287.88 265.596 274.168 279.479 262.177C292.017 251.366 303.937 244.248 314.278 238.382C324.038 232.84 332.456 228.329 339.927 221.317C340.136 221.123 340.345 220.929 340.551 220.727C347.052 214.472 352.62 205.268 360.22 193.956C366.205 185.037 373.813 176.276 379.133 167.714C389.673 150.737 393.754 129.501 388.662 116.083" stroke="url(#paint6_linear_5900_127994)" stroke-width="1.35759" stroke-miterlimit="10"/>
<path style="mix-blend-mode:multiply" opacity="0.68" d="M89.2018 720.935C102.987 712.803 112.065 696.133 114.61 678.643C116.59 665.227 114.974 651.498 111.027 639.49C109.945 636.198 108.712 632.988 107.359 629.871C100.671 614.467 90.6265 601.785 83.2052 587.004C79.4235 579.473 75.7918 571.989 72.8599 564.064C70.2743 557.085 68.3325 549.563 67.3588 541.553C64.6435 519.138 69.3979 494.852 83.4496 476.95C88.4344 470.613 94.1466 465.502 100.319 461.185C112.095 452.95 125.505 447.623 138.78 442.277C151.71 437.076 165.165 431.319 177.812 424.956C191.556 418.017 204.352 410.258 214.649 399.218C215.394 398.42 216.125 397.609 216.846 396.774C226.051 386.098 232.673 373.251 236.288 358.525C238.953 347.686 239.8 336.235 241.362 325.125C242.429 317.587 243.946 309.992 246.605 302.803C253.223 284.925 265.276 271.737 279.219 259.521C291.798 248.524 303.353 240.573 312.987 233.902C322.102 227.59 329.572 222.319 336.081 214.832C336.265 214.623 336.441 214.418 336.624 214.208C342.28 207.567 346.961 198.066 354.344 186.469C360.159 177.329 368.036 168.63 373.63 160.247C384.328 144.215 387.645 114.625 383.556 102.072" stroke="url(#paint7_linear_5900_127994)" stroke-width="1.35759" stroke-miterlimit="10"/>
<path style="mix-blend-mode:multiply" opacity="0.64" d="M85.068 720.536C99.0976 712.846 108.634 696.127 111.353 678.527C113.467 665.006 111.851 651.157 107.84 639.051C106.744 635.729 105.486 632.501 104.109 629.366C97.2778 613.864 86.9082 601.289 79.3907 586.416C75.5504 578.826 71.851 571.308 68.8512 563.35C66.2057 556.332 64.2069 548.78 63.1894 540.703C60.3764 518.164 65.1365 493.72 79.0111 475.442C83.9308 468.974 89.5829 463.682 95.7103 459.158C107.416 450.523 120.8 444.756 134.146 439.151C147.139 433.695 160.709 427.885 173.529 421.711C187.447 414.975 200.496 407.667 211.19 397.018C211.961 396.25 212.728 395.459 213.475 394.655C223.07 384.323 230.231 371.652 234.112 356.886C236.978 346.001 237.849 334.444 239.475 323.239C240.585 315.631 242.162 307.986 244.971 300.789C251.944 282.93 264.661 270.319 278.661 257.919C291.263 246.784 302.46 238.023 311.374 230.579C319.836 223.514 326.359 217.52 331.897 209.577C332.047 209.358 332.203 209.14 332.355 208.915C337.158 201.902 340.945 192.144 348.098 180.308C353.73 170.983 361.86 162.369 367.733 154.207C378.539 139.164 380.982 117.516 377.883 105.86" stroke="url(#paint8_linear_5900_127994)" stroke-width="1.35759" stroke-miterlimit="10"/>
<path style="mix-blend-mode:multiply" opacity="0.59" d="M80.9868 720.087C95.2671 712.836 105.258 696.06 108.15 678.351C110.408 664.716 108.787 650.758 104.708 638.534C103.595 635.188 102.316 631.935 100.908 628.786C93.9402 613.183 83.2396 600.717 75.6219 585.747C71.7294 578.097 67.9498 570.545 64.8929 562.541C62.1884 555.482 60.1334 547.898 59.0753 539.745C56.1646 517.083 60.9408 492.468 74.6345 473.807C79.4874 467.212 85.0787 461.722 91.1567 457.003C102.793 447.965 116.153 441.75 129.57 435.883C142.632 430.171 156.311 424.312 169.303 418.307C183.398 411.765 196.701 404.903 207.788 394.639C208.594 393.896 209.387 393.136 210.168 392.357C220.153 382.365 227.858 369.875 232.011 355.049C235.076 344.122 235.969 332.447 237.658 321.151C238.814 313.464 240.45 305.774 243.41 298.566C250.736 280.713 264.119 268.671 278.175 256.09C290.808 244.808 301.635 235.237 309.842 227.016C317.659 219.191 323.223 212.476 327.794 204.083C327.918 203.849 328.048 203.617 328.173 203.383C332.128 195.998 335.015 185.969 341.943 173.893C347.403 164.376 355.765 155.851 361.928 147.894C372.823 133.827 375.48 117.672 373.37 106.914" stroke="url(#paint9_linear_5900_127994)" stroke-width="1.35759" stroke-miterlimit="10"/>
<path style="mix-blend-mode:multiply" opacity="0.55" d="M76.4968 720.751C91.0292 713.912 101.494 697.038 104.58 679.176C106.985 665.4 105.376 651.29 101.245 638.934C100.113 635.557 98.8198 632.274 97.3901 629.1C90.2922 613.367 79.2798 600.993 71.5694 585.89C67.6244 578.164 63.7834 570.564 60.6651 562.509C57.9065 555.396 55.7955 547.764 54.7084 539.519C51.7248 516.681 56.523 491.844 70.0594 472.744C74.8478 465.996 80.3922 460.303 86.4273 455.369C98.0019 445.9 111.343 439.222 124.832 433.068C137.961 427.085 151.756 421.147 164.933 415.292C179.205 408.919 192.774 402.482 204.261 392.579C205.093 391.865 205.915 391.126 206.731 390.371C217.109 380.689 225.369 368.347 229.806 353.427C233.084 342.434 234.009 330.616 235.771 319.196C236.976 311.42 238.681 303.654 241.792 296.416C249.49 278.533 263.549 267.027 277.672 254.228C290.346 242.766 300.808 232.349 308.312 223.339C315.486 214.731 320.108 207.28 323.715 198.408C323.812 198.165 323.917 197.917 324.014 197.674C327.12 189.905 329.125 179.584 335.834 167.235C341.121 157.507 349.722 149.032 356.193 141.277C367.152 128.13 370.403 113.108 369.293 103.221" stroke="url(#paint10_linear_5900_127994)" stroke-width="1.35759" stroke-miterlimit="10"/>
<path style="mix-blend-mode:multiply" opacity="0.5" d="M72.4231 720.199C87.2068 713.793 98.1312 696.847 101.39 678.874C103.94 664.985 102.33 650.752 98.1384 638.275C96.9933 634.866 95.6765 631.563 94.2236 628.369C86.9926 612.529 75.6518 600.259 67.8496 585.055C63.8483 577.265 59.9418 569.625 56.7602 561.526C53.9438 554.37 51.7781 546.702 50.6517 538.377C47.5767 515.4 52.3927 490.386 65.7455 470.891C70.4704 464.006 75.9504 458.124 81.9412 452.979C93.4449 443.109 106.763 435.977 120.324 429.557C133.523 423.314 147.427 417.32 160.782 411.633C175.231 405.448 189.053 399.459 200.94 389.935C201.8 389.244 202.654 388.537 203.498 387.806C214.266 378.463 223.074 366.288 227.779 351.3C231.259 340.253 232.207 328.318 234.041 316.797C235.293 308.939 237.053 301.121 240.321 293.87C248.381 275.986 263.104 265.048 277.281 252.052C289.981 240.44 300.079 229.195 306.874 219.416C313.395 210.033 317.08 201.87 319.707 192.533C319.778 192.275 319.855 192.019 319.926 191.761C322.187 183.616 323.294 173.02 329.779 160.43C334.888 150.502 343.7 142.104 350.49 134.559C361.486 122.341 365.333 108.496 365.215 99.4968" stroke="url(#paint11_linear_5900_127994)" stroke-width="1.35759" stroke-miterlimit="10"/>
<path style="mix-blend-mode:multiply" opacity="0.45" d="M68.2724 719.899C83.3034 713.921 94.6928 696.903 98.132 678.8C100.823 664.783 99.216 650.423 94.9656 637.835C93.8053 634.401 92.4678 631.07 90.9897 627.861C83.6272 611.91 71.9591 599.741 64.0633 584.423C60.0064 576.566 56.0297 568.884 52.7889 560.746C49.9155 553.543 47.6903 545.836 46.5344 537.438C43.3707 514.313 48.2078 489.115 61.3879 469.211C66.0503 462.185 71.4747 456.108 77.4176 450.763C88.8546 440.48 102.149 432.898 115.786 426.201C129.056 419.694 143.069 413.642 156.599 408.116C171.226 402.116 185.305 396.564 197.587 387.413C198.48 386.754 199.362 386.07 200.235 385.361C211.395 376.348 220.745 364.339 225.727 349.279C229.409 338.179 230.388 326.119 232.283 314.495C233.588 306.554 235.403 298.682 238.825 291.414C247.24 273.525 262.633 263.144 276.876 249.948C289.611 238.176 299.336 226.095 305.435 215.546C311.303 205.391 314.052 196.514 315.708 186.702C315.752 186.436 315.803 186.165 315.849 185.893C317.26 177.367 317.479 166.501 323.74 153.651C328.672 143.526 337.687 135.177 344.807 127.862C355.815 116.552 360.291 103.896 361.166 95.7804" stroke="url(#paint12_linear_5900_127994)" stroke-width="1.35759" stroke-miterlimit="10"/>
<path style="mix-blend-mode:multiply" opacity="0.41" d="M62.2584 720.675C77.902 714.686 90.448 697.253 94.7031 678.924C98.0356 664.707 96.8851 650.266 92.9348 637.677C91.8587 634.251 90.5944 630.932 89.1758 627.744C82.114 611.898 70.3787 600.178 62.7981 584.985C58.9022 577.182 55.0582 569.581 51.9864 561.485C49.2588 554.322 47.2064 546.644 46.2756 538.198C43.7461 515.021 49.4855 489.497 63.3121 468.818C68.2002 461.52 73.8312 455.092 79.9789 449.37C91.8262 438.345 105.52 429.931 119.618 422.569C133.331 415.412 147.827 408.889 161.861 403.143C177.031 396.9 191.7 391.372 204.811 382.235C205.764 381.572 206.704 380.891 207.644 380.182C219.616 371.164 230.013 359.031 235.828 343.762C240.124 332.492 241.542 320.284 243.911 308.497C245.541 300.439 247.703 292.448 251.549 285.065C261.011 266.913 277.584 256.633 292.492 242.83C305.801 230.53 315.682 217.351 321.512 205.874C327.143 194.791 329.298 185.143 330.324 174.851C330.352 174.569 330.379 174.288 330.407 174.006C331.263 165.091 330.948 153.967 337.489 140.692C342.644 130.229 352.223 121.658 360.006 114.37C371.474 103.63 377.036 92.0362 379.16 84.7572" stroke="url(#paint13_linear_5900_127994)" stroke-width="1.35759" stroke-miterlimit="10"/>
<path style="mix-blend-mode:multiply" opacity="0.36" d="M57.9876 720.741C73.8743 715.173 86.8884 697.654 91.3302 679.189C94.8086 664.846 93.6643 650.277 89.6629 637.566C88.5746 634.108 87.2877 630.768 85.8464 627.559C78.6547 611.605 66.5864 599.989 58.9173 584.692C54.967 576.824 51.0531 569.182 47.9224 561.048C45.1383 553.841 43.0324 546.126 42.0656 537.598C39.4509 514.276 45.2182 488.565 58.8825 467.488C63.7125 460.052 69.2862 453.434 75.4032 447.502C87.1976 436.065 100.892 427.197 115.069 419.56C128.863 412.137 143.474 405.552 157.681 399.963C173.026 393.899 187.939 388.807 201.445 380.032C202.423 379.398 203.398 378.741 204.363 378.06C216.718 369.358 227.669 357.378 233.76 342.027C238.263 330.699 239.712 318.362 242.159 306.467C243.839 298.322 246.049 290.272 250.067 282.871C259.864 264.69 277.125 254.954 292.101 240.953C305.444 228.498 314.976 214.493 320.13 202.259C325.116 190.421 326.368 180.083 326.42 169.349C326.422 169.053 326.421 168.764 326.424 168.468C326.439 159.199 325.232 147.822 331.554 134.299C336.536 123.644 346.299 115.088 354.431 108.041C365.849 98.1554 372.043 87.7844 375.143 81.3601" stroke="url(#paint14_linear_5900_127994)" stroke-width="1.35759" stroke-miterlimit="10"/>
<path style="mix-blend-mode:multiply" opacity="0.32" d="M53.7144 720.809C69.8363 715.668 83.3267 698.056 87.9583 679.463C91.5851 664.988 90.4524 650.292 86.3893 637.471C85.2864 633.987 83.9793 630.62 82.5128 627.397C75.1855 611.334 62.7873 599.829 55.0241 584.426C51.0194 576.492 47.041 568.812 43.8427 560.63C41.0047 553.372 38.8373 545.626 37.8374 537.024C35.1352 513.562 40.933 487.658 54.4375 466.177C59.2095 458.601 64.7254 451.781 70.8098 445.659C82.5368 433.784 96.2384 424.492 110.499 416.583C124.37 408.892 139.101 402.247 153.486 396.815C169.002 390.929 184.167 386.269 198.062 377.854C199.069 377.242 200.075 376.616 201.074 375.959C213.816 367.574 225.311 355.744 231.685 340.312C236.393 328.925 237.878 316.462 240.39 304.462C242.119 296.236 244.397 288.118 248.571 280.696C258.738 262.494 276.656 253.302 291.7 239.103C305.085 226.486 314.26 211.66 318.736 198.677C323.082 186.084 323.427 175.048 322.501 163.886C322.475 163.583 322.452 163.273 322.427 162.969C321.596 153.344 319.494 141.721 325.603 127.951C330.415 117.099 340.344 108.538 348.844 101.766C360.2 92.7167 367.038 83.586 371.113 78.0161" stroke="url(#paint15_linear_5900_127994)" stroke-width="1.35759" stroke-miterlimit="10"/>
<path style="mix-blend-mode:multiply" opacity="0.27" d="M49.4294 720.88C65.7944 716.16 79.7554 698.455 84.5687 679.739C88.347 665.14 87.2148 650.315 83.095 637.369C81.9775 633.859 80.6501 630.465 79.1555 627.22C71.6982 611.049 58.9701 599.656 51.1072 584.147C47.0505 576.141 43.0028 568.433 39.7425 560.206C36.8536 552.905 34.6272 545.121 33.5968 536.439C30.8094 512.831 36.6297 486.739 49.9775 464.861C54.6916 457.147 60.1527 450.131 66.1983 443.803C77.8671 431.515 91.5666 421.775 105.915 413.587C119.868 405.63 134.707 398.921 149.27 393.647C164.962 387.94 180.374 383.709 194.656 375.662C195.693 375.081 196.722 374.475 197.755 373.842C210.885 365.774 222.929 354.096 229.585 338.583C234.502 327.131 236.015 314.546 238.605 302.437C240.386 294.125 242.727 285.953 247.051 278.507C257.579 260.289 276.162 251.635 291.271 237.231C304.698 224.453 313.514 208.813 317.32 195.074C321.018 181.732 320.465 169.994 318.563 158.397C318.512 158.079 318.461 157.761 318.408 157.45C316.734 147.477 313.743 135.595 319.63 121.584C324.272 110.533 334.365 101.945 343.232 95.4627C354.522 87.2124 362.003 79.3577 367.053 74.6423" stroke="url(#paint16_linear_5900_127994)" stroke-width="1.35759" stroke-miterlimit="10"/>
<path style="mix-blend-mode:multiply" opacity="0.23" d="M45.1655 720.949C61.7681 716.649 76.1971 698.857 81.2026 680.006C85.1268 665.281 84.0088 650.323 79.8298 637.26C78.7001 633.718 77.3501 630.303 75.8328 627.038C68.24 610.757 55.1821 599.476 47.233 583.856C43.122 575.784 39.0042 568.036 35.6876 559.765C32.7422 552.419 30.4624 544.599 29.396 535.835C26.5234 512.081 32.3716 485.802 45.5598 463.519C50.2134 455.673 55.6278 448.457 61.6348 441.923C73.2484 429.231 86.9428 419.035 101.375 410.574C115.405 402.349 130.364 395.58 145.1 390.462C160.968 384.934 176.623 381.14 191.3 373.455C192.366 372.896 193.429 372.314 194.488 371.71C208.005 363.958 220.593 352.43 227.53 336.837C232.654 325.326 234.203 312.614 236.865 300.396C238.697 291.996 241.099 283.761 245.581 276.302C256.479 258.064 275.713 249.951 290.898 235.345C304.36 222.41 312.818 205.949 315.957 191.449C319.005 177.35 317.551 164.915 314.679 152.885C314.6 152.559 314.524 152.228 314.44 151.901C311.919 141.572 308.035 129.443 313.711 115.179C318.186 103.938 328.437 95.2862 337.676 89.1306C348.897 81.6566 357.029 75.1021 363.053 71.2476" stroke="url(#paint17_linear_5900_127994)" stroke-width="1.35759" stroke-miterlimit="10"/>
<path style="mix-blend-mode:multiply" opacity="0.18" d="M40.9069 721.047C57.7555 717.169 72.655 699.288 77.8454 680.308C81.9243 665.451 80.8041 650.369 76.5732 637.184C75.4287 633.616 74.0582 630.173 72.5155 626.893C64.7913 610.504 51.3958 599.332 43.3513 583.606C39.1906 575.47 35.0022 567.681 31.6206 559.37C28.6182 551.98 26.279 544.122 25.1793 535.283C22.2211 511.382 28.0983 484.915 41.1265 462.233C45.7173 454.247 51.0809 446.842 57.0527 440.097C68.6156 426.992 82.3046 416.346 96.8263 407.605C110.94 399.114 126.019 392.277 140.93 387.33C156.975 381.987 172.881 378.615 187.95 371.291C189.042 370.761 190.139 370.203 191.226 369.621C205.125 362.19 218.275 350.802 225.484 335.14C230.818 323.563 232.395 310.728 235.127 298.406C237.009 289.926 239.478 281.63 244.116 274.148C255.384 255.889 275.279 248.319 290.529 233.513C304.035 220.416 312.136 203.141 314.6 187.883C316.998 173.04 314.674 159.875 310.799 147.43C310.695 147.091 310.591 146.751 310.482 146.41C307.121 135.727 302.342 123.351 307.799 108.839C312.105 97.3986 322.516 88.6529 332.129 82.8532C343.294 76.1224 352.068 70.9006 359.067 67.9004" stroke="url(#paint18_linear_5900_127994)" stroke-width="1.35759" stroke-miterlimit="10"/>
<path style="mix-blend-mode:multiply" opacity="0.14" d="M36.6454 721.156C53.7405 717.7 69.1109 699.731 74.4945 680.615C78.7201 665.633 77.6137 650.417 73.3203 637.119C72.1634 633.519 70.77 630.056 69.1987 626.754C61.3375 610.254 47.6094 599.193 39.4716 583.354C35.2557 575.152 30.994 567.328 27.5577 558.966C24.4983 551.531 22.1052 543.636 20.9692 534.714C17.9252 510.667 23.8259 484.01 36.6999 460.93C41.2337 452.805 46.5436 445.205 52.4809 438.261C63.9933 424.745 77.6775 413.648 92.2808 404.633C106.474 395.874 121.676 388.976 136.763 384.185C152.98 379.019 169.142 376.079 184.6 369.121C185.727 368.615 186.849 368.086 187.965 367.526C202.255 360.412 215.95 349.174 223.443 333.43C228.984 321.794 230.598 308.831 233.403 296.399C235.342 287.833 237.869 279.48 242.66 271.968C254.292 253.693 274.853 246.652 290.18 231.649C303.728 218.397 311.465 200.306 313.268 184.287C315.018 168.694 311.785 154.822 306.945 141.945C306.816 141.592 306.679 141.243 306.549 140.889C302.339 129.856 296.669 117.22 301.915 102.461C306.048 90.8281 316.62 81.9528 326.613 76.5463C337.728 70.531 347.138 66.6696 355.114 64.5237" stroke="url(#paint19_linear_5900_127994)" stroke-width="1.35759" stroke-miterlimit="10"/>
<path style="mix-blend-mode:multiply" opacity="0.09" d="M32.3894 721.275C49.7255 718.238 65.5726 700.183 71.1414 680.937C75.5193 665.829 74.4132 650.483 70.0622 637.061C68.8848 633.433 67.4765 629.944 65.8823 626.621C57.8894 610.013 43.8231 599.06 35.595 583.117C31.3238 574.849 26.9968 566.985 23.4953 558.583C20.3788 551.103 17.9318 543.172 16.7595 534.168C13.6296 509.973 19.5594 483.128 32.2764 459.642C36.753 451.378 42.0123 443.59 47.909 436.432C59.3711 422.503 73.0529 410.95 87.741 401.668C102.019 392.643 117.339 385.682 132.601 381.048C148.998 376.061 165.409 373.55 181.263 366.961C182.415 366.484 183.566 365.977 184.714 365.447C199.394 358.65 213.641 347.563 221.418 331.737C227.165 320.043 228.81 306.95 231.694 294.409C233.682 285.763 236.273 277.34 241.224 269.814C253.228 251.517 274.45 245.019 289.842 229.816C303.435 216.402 310.787 197.503 311.944 180.713C313.02 164.377 308.91 149.793 303.096 136.489C302.939 136.127 302.776 135.764 302.619 135.403C297.561 124.013 291.002 111.132 296.03 96.1239C299.994 84.2923 310.726 75.2581 321.093 70.2724C332.173 64.9481 342.204 62.4718 351.152 61.1787" stroke="url(#paint20_linear_5900_127994)" stroke-width="1.35759" stroke-miterlimit="10"/>
<path style="mix-blend-mode:multiply" opacity="0.05" d="M28.137 721.393C45.7199 718.778 62.0408 700.628 67.7949 681.251C72.322 666.01 71.2274 650.536 66.8162 636.997C65.6239 633.343 64.1951 629.827 62.5754 626.489C54.4452 609.77 40.0487 598.922 31.7247 582.873C27.3981 574.539 23.0058 566.635 19.4416 558.186C16.268 550.662 13.7615 542.692 12.5614 533.615C9.3457 509.273 15.2991 482.238 27.8619 458.355C32.2815 449.952 37.4871 441.967 43.3518 434.605C54.7555 420.269 68.446 408.262 83.2186 398.7C97.5811 389.407 113.019 382.385 128.457 377.906C145.033 373.099 161.692 371.024 177.941 364.789C179.121 364.333 180.304 363.857 181.485 363.351C196.557 356.871 211.35 345.934 219.41 330.026C225.373 318.267 227.046 305.052 229.995 292.405C232.035 283.672 234.69 275.194 239.797 267.645C252.165 249.332 274.056 243.372 289.522 227.965C303.154 214.387 310.16 194.676 310.636 177.126C311.076 160.044 306.044 144.75 299.258 131.011C299.076 130.636 298.886 130.265 298.703 129.89C292.804 118.144 285.346 105.008 290.161 89.7532C293.959 77.7306 304.863 68.4901 315.594 63.9727C326.662 59.3097 337.291 58.2483 347.213 57.8162" stroke="url(#paint21_linear_5900_127994)" stroke-width="1.35759" stroke-miterlimit="10"/>
</g>
<defs>
<linearGradient id="paint0_linear_5900_127994" x1="143.92" y1="387.447" x2="325.736" y2="452.825" gradientUnits="userSpaceOnUse">
<stop stop-color="#C79FFC"/>
<stop offset="1" stop-color="#A86DF5"/>
</linearGradient>
<linearGradient id="paint1_linear_5900_127994" x1="139.341" y1="387.184" x2="318.254" y2="451.509" gradientUnits="userSpaceOnUse">
<stop stop-color="#C69EFC"/>
<stop offset="1" stop-color="#E5D0F7"/>
</linearGradient>
<linearGradient id="paint2_linear_5900_127994" x1="134.981" y1="386.269" x2="311.044" y2="449.565" gradientUnits="userSpaceOnUse">
<stop stop-color="#9D5BF4"/>
<stop offset="1" stop-color="#BF91FC"/>
</linearGradient>
<linearGradient id="paint3_linear_5900_127994" x1="130.752" y1="384.986" x2="304.014" y2="447.273" gradientUnits="userSpaceOnUse">
<stop stop-color="#E4C5E9"/>
<stop offset="1" stop-color="#B17DF7"/>
</linearGradient>
<linearGradient id="paint4_linear_5900_127994" x1="126.593" y1="383.472" x2="297.109" y2="444.77" gradientUnits="userSpaceOnUse">
<stop stop-color="#C39AF9"/>
<stop offset="1" stop-color="#BF90FB"/>
</linearGradient>
<linearGradient id="paint5_linear_5900_127994" x1="122.326" y1="382.259" x2="290.149" y2="442.574" gradientUnits="userSpaceOnUse">
<stop stop-color="#B583F9"/>
<stop offset="1" stop-color="#4E3C86"/>
</linearGradient>
<linearGradient id="paint6_linear_5900_127994" x1="118.204" y1="380.592" x2="283.398" y2="439.965" gradientUnits="userSpaceOnUse">
<stop stop-color="#9C5BF3"/>
<stop offset="1" stop-color="#9E5BF7"/>
</linearGradient>
<linearGradient id="paint7_linear_5900_127994" x1="114.267" y1="378.385" x2="276.84" y2="436.793" gradientUnits="userSpaceOnUse">
<stop stop-color="#E2C7EC"/>
<stop offset="1" stop-color="#A161F7"/>
</linearGradient>
<linearGradient id="paint8_linear_5900_127994" x1="110.128" y1="376.719" x2="270.209" y2="434.231" gradientUnits="userSpaceOnUse">
<stop stop-color="#BF92FB"/>
<stop offset="1" stop-color="#E5D2FA"/>
</linearGradient>
<linearGradient id="paint9_linear_5900_127994" x1="106.07" y1="374.903" x2="263.745" y2="431.545" gradientUnits="userSpaceOnUse">
<stop stop-color="#D0A7E8"/>
<stop offset="1" stop-color="#C093FC"/>
</linearGradient>
<linearGradient id="paint10_linear_5900_127994" x1="101.868" y1="373.439" x2="257.245" y2="429.245" gradientUnits="userSpaceOnUse">
<stop stop-color="#E5D0F7"/>
<stop offset="1" stop-color="#BB8DF9"/>
</linearGradient>
<linearGradient id="paint11_linear_5900_127994" x1="97.8623" y1="371.365" x2="251.114" y2="426.4" gradientUnits="userSpaceOnUse">
<stop stop-color="#C89FFE"/>
<stop offset="0.930555" stop-color="#DADCE9"/>
<stop offset="1" stop-color="#976CD1"/>
</linearGradient>
<linearGradient id="paint12_linear_5900_127994" x1="93.8125" y1="369.427" x2="245.203" y2="423.788" gradientUnits="userSpaceOnUse">
<stop stop-color="#E5CFF6"/>
<stop offset="0.9999" stop-color="#9E5EF3"/>
<stop offset="1" stop-color="#D9DDE8"/>
</linearGradient>
<linearGradient id="paint13_linear_5900_127994" x1="99.7072" y1="367.855" x2="246.505" y2="425.381" gradientUnits="userSpaceOnUse">
<stop stop-color="#DBC2FC"/>
<stop offset="0.081597" stop-color="#FAF7FF"/>
<stop offset="1" stop-color="#C79EFC"/>
</linearGradient>
<linearGradient id="paint14_linear_5900_127994" x1="95.6101" y1="366.233" x2="241.707" y2="423.483" gradientUnits="userSpaceOnUse">
<stop stop-color="#B07AF8"/>
<stop offset="1" stop-color="#A365F5"/>
</linearGradient>
<linearGradient id="paint15_linear_5900_127994" x1="91.529" y1="364.525" x2="237.087" y2="421.559" gradientUnits="userSpaceOnUse">
<stop stop-color="#C59CFB"/>
<stop offset="1" stop-color="#A76AF8"/>
</linearGradient>
<linearGradient id="paint16_linear_5900_127994" x1="87.4311" y1="362.817" x2="232.423" y2="419.626" gradientUnits="userSpaceOnUse">
<stop stop-color="#7C64C6"/>
<stop offset="1" stop-color="#C79FFD"/>
</linearGradient>
<linearGradient id="paint17_linear_5900_127994" x1="83.3359" y1="361.129" x2="228.788" y2="418.114" gradientUnits="userSpaceOnUse">
<stop stop-color="#A294C9"/>
<stop offset="1" stop-color="#4E3C86"/>
</linearGradient>
<linearGradient id="paint18_linear_5900_127994" x1="79.2468" y1="359.46" x2="227.105" y2="417.394" gradientUnits="userSpaceOnUse">
<stop stop-color="#E5CBF2"/>
<stop offset="1" stop-color="#9C5BF3"/>
</linearGradient>
<linearGradient id="paint19_linear_5900_127994" x1="75.141" y1="357.815" x2="225.542" y2="416.751" gradientUnits="userSpaceOnUse">
<stop stop-color="#C397FD"/>
<stop offset="1" stop-color="#C79EFC"/>
</linearGradient>
<linearGradient id="paint20_linear_5900_127994" x1="71.0312" y1="356.18" x2="224.075" y2="416.157" gradientUnits="userSpaceOnUse">
<stop stop-color="#C79EFC"/>
<stop offset="1" stop-color="#9C5BF4"/>
</linearGradient>
<linearGradient id="paint21_linear_5900_127994" x1="66.913" y1="354.553" x2="222.703" y2="415.606" gradientUnits="userSpaceOnUse">
<stop stop-color="#E5D0F8"/>
<stop offset="1" stop-color="#9E5BF6"/>
</linearGradient>
</defs>
</svg>
