<svg width="375" height="1108" viewBox="0 0 375 1108" fill="none" xmlns="http://www.w3.org/2000/svg">
<g opacity="0.6">
<g opacity="0.85">
<path style="mix-blend-mode:multiply" d="M-207.16 834.774C-196.544 791.84 -150.929 770.86 -109.836 770.437C-68.7422 770.014 -28.159 783.986 12.9324 784.085C54.0303 784.192 99.911 764.599 111.922 722.126C121.065 689.81 108.029 655.246 100.519 622.061C90.1128 576.109 91.6446 523.649 118.945 487.696C140.947 458.718 175.378 445.469 206.507 428.981C237.637 412.493 269.342 387.732 275.626 350.541C283.599 303.379 247.869 260.251 239.339 212.832C232.758 176.244 243.814 136.819 267.907 111.028C291.995 85.2297 347.744 39.5674 412.105 44.6922" stroke="url(#paint0_linear_6949_96884)" stroke-width="2.80499" stroke-miterlimit="10"/>
<path style="mix-blend-mode:multiply" opacity="0.95" d="M-204.041 841.269C-198.764 816.635 -181.603 798.531 -160.116 787.717C-143.849 779.517 -125.146 775.463 -107.259 775.32C-102.303 775.283 -97.3564 775.45 -92.4169 775.794C-68.1574 777.473 -44.1776 783.344 -20.016 786.847C-7.8275 788.613 4.35265 789.938 16.5845 790.046C27.3077 790.14 38.3305 788.918 49.0616 786.278C79.7306 778.711 107.503 759.672 117.089 728.234C120.488 717.057 121.307 705.582 120.61 693.946C119.323 671.989 112.677 649.519 108.086 627.588C103.607 606.209 101.338 583.49 102.591 561.645C103.965 537.742 109.586 514.883 121.607 495.745C122.477 494.367 123.375 493.006 124.304 491.669C136.248 474.517 152.429 462.268 170.249 451.916C183.344 444.301 197.271 437.791 210.542 430.653C219.456 425.852 228.372 420.375 236.622 414.012C257.382 398.029 273.665 377.01 278.385 350.174C282.686 325.727 276.567 302.648 268.744 280.026C261.431 258.765 252.606 237.872 249.819 216.189C249.743 215.588 249.667 214.987 249.598 214.379C247.462 195.353 250.525 175.675 257.602 156.928C263.17 142.159 270.867 127.956 280.812 116.577C303.362 90.7775 368.479 49.7493 410.879 54.6346" stroke="url(#paint1_linear_6949_96884)" stroke-width="2.80499" stroke-miterlimit="10"/>
<path style="mix-blend-mode:multiply" opacity="0.91" d="M-200.943 847.753C-196.438 822.938 -179.522 804.074 -158 792.918C-141.674 784.436 -122.806 780.306 -104.704 780.193C-99.6941 780.159 -94.7009 780.352 -89.7152 780.721C-65.1989 782.559 -41.1146 788.989 -16.7341 792.588C-4.41274 794.408 7.87846 795.822 20.2156 795.996C31.0441 796.157 42.1651 795.008 53.0239 792.385C83.9534 784.888 111.975 765.72 122.235 734.332C125.876 723.187 126.994 711.69 126.609 700.033C125.922 677.973 119.908 655.3 115.626 633.112C111.449 611.483 109.174 588.558 110.077 566.519C111.073 542.435 115.903 519.386 127.116 499.822C127.921 498.41 128.765 497.016 129.642 495.646C140.853 478.052 156.397 465.028 174.108 454.206C187.122 446.248 201.197 439.623 214.562 432.323C223.556 427.403 232.51 421.804 240.662 415.199C261.168 398.646 276.184 376.859 281.129 349.834C285.619 325.246 280.846 302.339 274.638 280.401C268.807 259.784 261.711 239.958 260.283 219.572C260.246 219.003 260.21 218.435 260.173 217.866C259.18 199.967 263.293 181.549 270.875 163.016C276.849 148.416 284.233 133.742 293.701 122.137C314.726 96.3822 380.533 59.8757 410.213 65.381" stroke="url(#paint2_linear_6949_96884)" stroke-width="2.80499" stroke-miterlimit="10"/>
<path style="mix-blend-mode:multiply" opacity="0.86" d="M-197.814 854.251C-194.072 829.264 -177.408 809.633 -155.845 798.127C-139.459 789.347 -120.413 785.157 -102.109 785.073C-97.0525 785.051 -92.0061 785.262 -86.9747 785.671C-62.208 787.659 -38.0128 794.656 -13.4064 798.345C-0.952153 800.219 11.4367 801.72 23.8856 801.969C34.8194 802.196 46.0321 801.113 57.0257 798.5C88.2227 791.067 116.479 771.769 127.413 740.445C131.29 729.325 132.713 717.828 132.642 706.12C132.562 683.951 127.179 661.073 123.205 638.629C119.336 616.758 117.058 593.613 117.596 571.393C118.207 547.12 122.253 523.889 132.666 503.893C133.418 502.448 134.196 501.019 135.014 499.608C145.485 481.564 160.392 467.767 177.994 456.473C190.935 448.164 205.156 441.44 218.609 433.985C227.675 428.953 236.662 423.224 244.723 416.369C264.962 399.247 278.724 376.692 283.895 349.464C288.566 324.743 285.166 302.009 280.568 280.747C276.239 260.768 270.857 242.022 270.768 222.925C270.763 222.395 270.766 221.859 270.768 221.323C270.926 204.559 276.068 187.392 284.162 169.079C290.534 154.656 297.613 139.519 306.617 127.675C326.122 102.001 381.241 70.9193 408.984 75.321" stroke="url(#paint3_linear_6949_96884)" stroke-width="2.80499" stroke-miterlimit="10"/>
<path style="mix-blend-mode:multiply" opacity="0.82" d="M-194.696 860.737C-191.725 835.57 -175.3 815.186 -153.709 803.33C-137.264 794.268 -118.052 790.002 -99.5339 789.948C-94.4306 789.936 -89.3308 790.167 -84.2532 790.601C-59.2297 792.747 -34.9366 800.295 -10.105 804.088C2.48215 806.016 14.9821 807.606 27.5291 807.928C38.5617 808.214 49.8792 807.212 61.0075 804.609C92.472 797.24 120.963 777.812 132.572 746.553C136.684 735.457 138.412 723.946 138.66 712.21C139.187 689.93 134.428 666.856 130.764 644.155C127.196 622.034 124.919 598.691 125.094 576.262C125.321 551.799 128.576 528.395 138.182 507.957C138.873 506.486 139.599 505.024 140.358 503.572C150.09 485.078 164.373 470.508 181.852 458.757C194.713 450.105 209.08 443.267 222.628 435.649C231.773 430.498 240.786 424.646 248.762 417.55C268.741 399.85 281.257 376.537 286.645 349.111C291.511 324.258 289.472 301.682 286.475 281.117C283.656 261.771 280.021 244.115 281.238 226.296C281.272 225.799 281.307 225.301 281.348 224.812C282.642 209.182 288.84 193.268 297.432 175.176C304.21 160.922 310.976 145.358 319.503 133.245C337.501 107.697 383.268 80.9044 409.075 84.2027" stroke="url(#paint4_linear_6949_96884)" stroke-width="2.80499" stroke-miterlimit="10"/>
<path style="mix-blend-mode:multiply" opacity="0.77" d="M-191.576 867.242C-189.369 841.902 -173.196 820.75 -151.563 808.544C-135.066 799.193 -115.675 794.866 -96.949 794.849C-91.7918 794.841 -86.6458 795.097 -81.522 795.557C-56.2482 797.854 -31.844 805.968 -6.79289 809.843C5.92066 811.817 18.5317 813.496 31.1904 813.893C42.3283 814.245 53.7376 813.308 65.0001 810.729C96.7321 803.424 125.465 783.875 137.748 752.664C142.096 741.593 144.128 730.082 144.69 718.296C145.83 695.914 141.689 672.635 138.341 649.671C135.075 627.3 132.793 603.752 132.618 581.128C132.46 556.476 134.931 532.89 143.729 512.027C144.362 510.515 145.027 509.026 145.733 507.541C154.72 488.603 168.372 473.253 185.749 461.039C198.53 452.043 213.05 445.098 226.686 437.311C235.897 432.039 244.962 426.067 252.834 418.721C272.559 400.451 283.808 376.37 289.414 348.748C294.469 323.754 293.798 301.329 292.395 281.469C291.072 262.753 289.17 246.186 291.72 229.648C291.787 229.189 291.861 228.724 291.941 228.267C294.384 213.772 301.612 199.109 310.717 181.224C317.886 167.138 324.345 151.155 332.417 138.766C348.932 113.391 384.613 92.0953 408.47 94.2891" stroke="url(#paint5_linear_6949_96884)" stroke-width="2.80499" stroke-miterlimit="10"/>
<path style="mix-blend-mode:multiply" opacity="0.73" d="M-188.469 873.732C-187.033 848.212 -171.098 826.294 -149.444 813.744C-132.881 804.103 -113.325 799.7 -94.3907 799.721C-89.1866 799.723 -83.9874 799.998 -78.818 800.498C-53.2872 802.953 -28.7787 811.626 -3.50864 815.598C9.3378 817.625 22.0464 819.392 34.8233 819.871C46.0666 820.29 57.5676 819.419 68.9713 816.857C100.971 809.615 129.939 789.936 142.896 758.79C147.48 747.744 149.797 736.224 150.691 724.41C152.398 701.916 148.922 678.443 145.882 655.222C142.924 632.609 140.631 608.847 140.105 586.029C139.57 561.196 141.25 537.421 149.247 516.125C149.82 514.586 150.427 513.057 151.08 511.539C159.334 492.158 172.349 476.034 189.611 463.342C202.318 453.995 216.978 446.943 230.708 439.008C239.999 433.617 249.089 427.522 256.877 419.92C276.335 401.08 286.337 376.24 292.162 348.406C297.399 323.279 298.108 301.006 298.306 281.842C298.5 263.752 298.304 248.286 302.194 233.022C302.3 232.596 302.407 232.169 302.526 231.744C306.119 218.384 314.39 204.974 323.992 187.308C331.568 173.391 337.718 157.019 345.309 144.324C360.366 119.166 386.001 101.927 407.928 103.025" stroke="url(#paint6_linear_6949_96884)" stroke-width="2.80499" stroke-miterlimit="10"/>
<path style="mix-blend-mode:multiply" opacity="0.68" d="M-185.362 880.219C-184.704 854.526 -169.008 831.843 -147.32 818.951C-130.704 809.02 -110.978 804.549 -91.8294 804.601C-86.5787 804.614 -81.3264 804.907 -76.111 805.432C-50.3309 808.037 -25.7124 817.276 -0.224593 821.345C12.7612 823.419 25.5733 825.282 38.455 825.827C49.803 826.312 61.4018 825.514 72.9334 822.955C105.199 815.777 134.401 795.97 148.038 764.882C152.858 753.861 155.48 742.327 156.687 730.478C158.987 707.874 156.143 684.198 153.425 660.722C150.769 637.861 148.472 613.894 147.595 590.883C146.675 565.862 147.571 541.907 154.761 520.186C155.281 518.614 155.827 517.059 156.414 515.506C163.929 495.676 176.307 478.779 193.465 465.625C206.092 455.934 220.904 448.777 234.722 440.672C244.091 435.163 253.201 428.922 260.91 421.101C280.075 401.646 288.848 376.086 294.898 348.065C300.322 322.799 302.406 300.686 304.198 282.227C305.894 264.761 307.418 250.398 312.648 236.408C312.793 236.014 312.938 235.635 313.083 235.241C317.812 223.015 327.126 210.857 337.246 193.407C345.227 179.66 351.068 162.914 358.191 149.899C371.816 125.007 409.247 104.743 429.238 104.738" stroke="url(#paint7_linear_6949_96884)" stroke-width="2.80499" stroke-miterlimit="10"/>
<path style="mix-blend-mode:multiply" opacity="0.64" d="M-182.225 886.724C-182.331 860.858 -166.887 837.407 -145.157 824.165C-128.483 813.953 -108.577 809.406 -89.2343 809.494C-83.9297 809.511 -78.6312 809.829 -73.3696 810.38C-47.3326 813.143 -22.6026 822.934 3.09765 827.092C16.2164 829.22 29.133 831.164 42.1193 831.79C53.5727 832.341 65.2633 831.609 76.929 829.074C109.462 821.96 138.906 802.031 153.211 771C158.266 760.003 161.186 748.462 162.713 736.57C165.62 713.855 163.399 689.983 160.99 666.251C158.643 643.148 156.341 618.96 155.094 595.761C153.783 570.558 153.895 546.42 160.277 524.259C160.737 522.661 161.232 521.058 161.759 519.479C168.535 499.199 180.289 481.529 197.324 467.918C209.877 457.877 224.83 450.611 238.742 442.345C248.184 436.723 257.326 430.352 264.943 422.283C283.842 402.258 291.362 375.931 297.636 347.706C303.249 322.314 306.707 300.33 310.093 282.59C313.306 265.749 316.522 252.487 323.105 239.771C323.289 239.424 323.467 239.07 323.657 238.716C329.536 227.625 339.879 216.717 350.511 199.488C358.89 185.918 364.442 168.805 371.072 155.453C383.302 130.872 410.703 115.994 428.757 114.885" stroke="url(#paint8_linear_6949_96884)" stroke-width="2.80499" stroke-miterlimit="10"/>
<path style="mix-blend-mode:multiply" opacity="0.59" d="M-179.141 893.211C-180.017 867.165 -164.819 842.954 -143.055 829.37C-126.32 818.86 -106.25 814.252 -86.6859 814.378C-81.3345 814.406 -75.9827 814.743 -70.6755 815.334C-44.3883 818.248 -19.5474 828.605 6.37156 832.859C19.6167 835.033 32.6439 837.081 45.7424 837.766C57.301 838.384 69.0834 837.718 80.8902 835.2C113.684 828.157 143.37 808.091 158.348 777.124C163.632 766.159 166.87 754.604 168.703 742.683C172.217 719.859 170.628 695.782 168.528 671.794C166.482 648.441 164.175 624.048 162.577 600.655C160.882 575.262 160.21 550.944 165.792 528.35C166.193 526.711 166.627 525.081 167.096 523.462C173.133 502.731 184.249 484.288 201.176 470.206C213.649 459.821 228.754 452.45 242.754 444.028C252.275 438.287 261.443 431.793 268.969 423.475C287.614 402.88 293.881 375.787 300.373 347.365C306.175 321.833 311.013 300.001 315.987 282.957C320.717 266.726 325.631 254.588 333.554 243.145C333.777 242.83 333.994 242.508 334.217 242.193C341.238 232.229 352.63 222.582 363.767 205.566C372.545 192.157 377.813 174.715 383.958 161.004C394.82 136.766 414.661 124.343 430.772 122.138" stroke="url(#paint9_linear_6949_96884)" stroke-width="2.80499" stroke-miterlimit="10"/>
<path style="mix-blend-mode:multiply" opacity="0.55" d="M-176.029 899.703C-177.669 873.485 -162.722 848.507 -140.923 834.565C-124.13 823.774 -103.881 819.091 -84.1157 819.246C-78.7111 819.293 -73.3126 819.64 -67.9593 820.256C-41.4156 823.329 -16.477 834.237 9.67392 838.589C23.0517 840.816 36.1834 842.944 49.3864 843.711C61.0501 844.396 72.9305 843.802 84.8719 841.295C117.926 834.307 147.86 814.128 163.512 783.211C169.038 772.278 172.575 760.701 174.721 748.745C178.841 725.811 177.877 701.538 176.091 677.301C174.346 653.714 172.042 629.108 170.088 605.513C168.014 579.94 166.552 555.432 171.326 532.414C171.667 530.748 172.049 529.085 172.458 527.424C177.763 506.252 188.242 487.036 205.06 472.483C217.446 461.747 232.704 454.269 246.798 445.685C256.392 439.832 265.599 433.202 273.04 424.643C291.418 403.478 296.432 375.619 303.142 347C309.132 321.328 315.365 299.65 321.912 283.316C328.165 267.703 334.764 256.672 344.04 246.503C344.295 246.228 344.551 245.938 344.806 245.662C352.97 236.839 365.398 228.436 377.047 211.642C386.223 198.409 391.228 180.633 396.854 166.554C406.4 142.706 424.244 129.955 438.418 126.646" stroke="url(#paint10_linear_6949_96884)" stroke-width="2.80499" stroke-miterlimit="10"/>
<path style="mix-blend-mode:multiply" opacity="0.5" d="M-172.884 906.206C-175.294 879.807 -160.586 854.063 -138.76 839.786C-121.914 828.705 -101.494 823.954 -81.5136 824.139C-76.0552 824.189 -70.6105 824.562 -65.211 825.204C-38.4173 828.427 -13.3681 839.901 12.9949 844.342C26.5054 846.623 39.7415 848.832 53.056 849.673C64.8249 850.424 76.7969 849.896 88.8793 847.407C122.201 840.482 152.369 820.174 168.701 789.329C174.463 778.421 178.304 766.845 180.77 754.846C185.49 731.809 185.157 707.333 183.68 682.839C182.237 659.003 179.928 634.192 177.617 610.395C175.159 584.633 172.905 559.951 176.873 536.493C177.161 534.794 177.477 533.097 177.833 531.403C182.392 509.788 192.241 489.791 208.956 474.776C221.269 463.689 236.673 456.112 250.855 447.358C260.528 441.387 269.767 434.641 277.111 425.825C295.228 404.084 298.981 375.465 305.923 346.651C312.101 320.853 319.729 299.314 327.849 283.69C335.638 268.695 343.903 258.763 354.545 249.885C354.839 249.642 355.127 249.391 355.422 249.148C364.728 241.451 378.206 234.308 390.352 217.734C399.934 204.67 404.68 186.596 409.788 172.121C418.058 148.68 433.873 135.591 446.111 131.18" stroke="url(#paint11_linear_6949_96884)" stroke-width="2.80499" stroke-miterlimit="10"/>
<path style="mix-blend-mode:multiply" opacity="0.45" d="M-169.775 912.696C-172.949 886.125 -158.493 859.614 -136.626 844.987C-119.714 833.617 -99.1222 828.798 -78.9476 829.019C-73.4424 829.08 -67.9445 829.472 -62.5059 830.146C-35.4621 833.519 -10.3023 845.559 16.2863 850.09C29.9296 852.425 43.2766 854.723 56.6892 855.637C68.5632 856.455 80.6334 856 92.8369 853.519C126.426 846.659 156.829 826.221 173.842 795.434C179.839 784.55 183.985 772.96 186.756 760.931C192.084 737.785 192.374 713.112 191.213 688.356C190.071 664.27 187.758 639.254 185.096 615.263C182.254 589.312 179.217 564.449 182.384 540.558C182.606 538.825 182.869 537.095 183.173 535.368C186.993 513.303 196.211 492.541 212.817 477.055C225.049 465.624 240.6 457.933 254.876 449.032C264.622 442.934 273.892 436.073 281.145 427.008C299.002 404.705 301.502 375.319 308.663 346.294C315.029 320.357 324.064 298.972 333.745 284.042C343.064 269.673 352.993 260.839 365.001 253.237C365.328 253.033 365.655 252.814 365.989 252.603C376.444 246.041 390.951 240.148 403.616 223.789C413.596 210.901 418.125 192.533 422.675 177.657C429.708 154.657 443.447 141.19 453.75 135.675" stroke="url(#paint12_linear_6949_96884)" stroke-width="2.80499" stroke-miterlimit="10"/>
<path style="mix-blend-mode:multiply" opacity="0.41" d="M-166.662 919.193C-170.607 892.442 -156.397 865.171 -134.494 850.202C-117.53 838.542 -96.7667 833.655 -76.3709 833.914C-70.8189 833.986 -65.2678 834.396 -59.7766 835.103C-32.4762 838.634 -7.21202 851.234 19.5953 855.861C33.3648 858.241 46.8158 860.636 60.3471 861.617C72.3263 862.501 84.4881 862.112 96.8328 859.649C130.689 852.852 161.333 832.292 179.013 801.561C185.246 790.703 189.704 779.106 192.788 767.042C198.728 743.793 199.637 718.916 198.784 693.903C197.951 669.575 195.633 644.339 192.607 620.168C189.381 594.028 185.559 568.984 187.919 544.667C188.089 542.901 188.292 541.145 188.536 539.377C191.617 516.862 200.212 495.327 216.689 479.376C228.847 467.596 244.538 459.797 258.909 450.734C268.726 444.524 278.036 437.526 285.198 428.227C302.801 405.355 304.034 375.202 311.413 345.98C317.968 319.903 328.403 298.678 339.651 284.45C350.513 270.709 362.108 262.958 375.468 256.644C375.834 256.473 376.2 256.301 376.566 256.129C388.164 250.709 403.713 246.067 416.883 229.921C427.262 217.195 431.592 198.556 435.558 183.263C441.4 160.728 453.018 146.857 461.378 140.247" stroke="url(#paint13_linear_6949_96884)" stroke-width="2.80499" stroke-miterlimit="10"/>
<path style="mix-blend-mode:multiply" opacity="0.36" d="M-163.579 925.68C-168.294 898.749 -154.328 870.718 -132.385 855.4C-115.361 843.458 -94.426 838.502 -73.8217 838.784C-68.2158 838.86 -62.6184 839.295 -57.0811 840.027C-29.5303 843.709 -4.14813 856.868 22.8715 861.584C36.774 864.018 50.336 866.501 63.9655 867.556C76.05 868.506 88.3036 868.182 100.79 865.737C134.913 859.004 165.793 838.315 184.146 807.648C190.615 796.814 195.377 785.217 198.774 773.102C205.322 749.744 206.854 724.655 206.317 699.394C205.785 674.816 203.463 649.374 200.087 625.009C196.476 598.68 191.864 573.461 193.416 548.704C193.526 546.912 193.67 545.114 193.855 543.32C196.204 520.362 204.155 498.047 220.529 481.633C232.608 469.509 248.451 461.604 262.91 452.371C272.808 446.041 282.162 438.945 289.213 429.373C306.595 405.97 306.544 375.012 314.14 345.593C320.883 319.39 332.726 298.319 345.541 284.779C357.945 271.678 371.193 264.996 385.919 259.972C386.325 259.832 386.723 259.7 387.128 259.56C399.868 255.266 416.461 251.877 430.142 235.951C440.919 223.402 445.085 204.486 448.446 188.768C453.152 166.701 462.595 152.423 469.019 144.71" stroke="url(#paint14_linear_6949_96884)" stroke-width="2.80499" stroke-miterlimit="10"/>
<path style="mix-blend-mode:multiply" opacity="0.32" d="M-160.483 932.178C-165.969 905.081 -152.248 876.276 -130.276 860.607C-113.187 848.376 -92.0862 843.344 -71.281 843.67C-65.6283 843.757 -59.9777 844.211 -54.4011 844.975C-26.5935 848.815 -1.10682 862.533 26.1317 867.345C40.167 869.833 53.8337 872.398 67.5813 873.534C79.7781 874.544 92.123 874.301 104.737 871.872C139.12 865.209 170.243 844.383 189.277 813.774C195.981 802.965 201.068 791.362 204.751 779.209C211.952 755.752 214.062 730.455 213.834 704.937C213.61 680.118 211.276 654.462 207.543 629.895C203.554 603.384 198.152 577.976 198.904 552.787C198.962 550.961 199.039 549.13 199.165 547.294C200.775 523.887 208.095 500.805 224.361 483.921C236.359 471.453 252.35 463.434 266.903 454.054C276.872 447.612 286.266 440.378 293.226 430.558C310.348 406.578 309.037 374.86 316.852 345.244C323.783 318.901 337.033 297.998 351.408 285.152C365.348 272.685 380.262 267.072 396.341 263.351C396.778 263.25 397.222 263.143 397.66 263.042C411.549 259.883 429.177 257.752 443.363 242.04C454.546 229.659 458.588 210.485 461.284 194.329C464.887 172.741 472.122 158.046 476.61 149.23" stroke="url(#paint15_linear_6949_96884)" stroke-width="2.80499" stroke-miterlimit="10"/>
<path style="mix-blend-mode:multiply" opacity="0.27" d="M-157.337 938.687C-163.594 911.41 -150.111 881.838 -128.112 865.833C-110.969 853.312 -89.6905 848.22 -68.6703 848.576C-62.9708 848.673 -57.2668 849.146 -51.6376 849.944C-23.5796 853.934 2.01157 868.21 29.4754 873.127C43.6506 875.662 57.4079 878.321 71.2672 879.532C83.5629 880.6 96.0059 880.43 108.754 878.011C143.406 871.412 174.77 850.465 194.471 819.911C201.411 809.127 206.81 797.517 210.805 785.329C218.62 761.769 221.347 736.267 221.434 710.486C221.512 685.417 219.18 659.563 215.09 634.795C210.717 608.095 204.531 582.505 204.476 556.89C204.467 555.03 204.498 553.173 204.565 551.297C205.436 527.439 212.12 503.584 228.277 486.229C240.202 473.411 256.338 465.292 270.98 455.742C281.028 449.181 290.448 441.825 297.323 431.763C314.185 407.221 311.614 374.728 319.66 344.916C326.78 318.433 341.429 297.706 357.366 285.538C372.841 273.719 389.422 269.16 406.859 266.736C407.336 266.668 407.812 266.6 408.282 266.538C423.307 264.512 441.985 263.626 456.676 248.141C468.263 235.93 472.215 216.492 474.226 199.905C476.781 178.785 481.759 163.692 484.312 153.772" stroke="url(#paint16_linear_6949_96884)" stroke-width="2.80499" stroke-miterlimit="10"/>
<path style="mix-blend-mode:multiply" opacity="0.23" d="M-154.257 945.166C-161.278 917.716 -148.04 887.385 -126.006 871.023C-108.804 858.22 -87.353 853.044 -66.1248 853.438C-60.3714 853.539 -54.6213 854.037 -48.9458 854.86C-20.631 859.009 5.0647 873.843 32.748 878.843C47.0561 881.431 60.9244 884.179 74.889 885.456C87.29 886.591 99.8249 886.486 112.714 884.085C147.633 877.549 179.232 856.472 199.615 825.976C206.783 815.223 212.494 803.592 216.802 791.368C225.216 767.705 228.575 741.999 228.971 715.962C229.356 690.651 227.013 664.583 222.573 639.621C217.816 612.731 210.839 586.967 209.977 560.912C209.915 559.019 209.888 557.121 209.894 555.218C210.027 530.91 216.08 506.289 232.128 488.464C243.973 475.302 260.256 467.069 274.992 457.357C285.12 450.677 294.579 443.198 301.35 432.887C317.951 407.767 314.127 374.523 322.392 344.5C329.7 317.89 345.756 297.332 363.26 285.837C380.284 274.667 398.525 271.169 417.315 270.034C417.823 270.004 418.339 269.968 418.854 269.947C435.029 269.055 454.742 269.427 469.945 254.149C481.924 242.106 485.84 222.394 487.111 205.385C488.652 184.729 491.333 169.234 491.943 158.218" stroke="url(#paint17_linear_6949_96884)" stroke-width="2.80499" stroke-miterlimit="10"/>
<path style="mix-blend-mode:multiply" opacity="0.18" d="M-151.193 951.658C-158.984 924.027 -145.992 892.935 -123.922 876.23C-106.66 863.129 -85.0375 857.9 -63.6003 858.316C-57.7999 858.428 -51.9963 858.945 -46.2816 859.8C-17.7157 864.099 8.09162 879.501 35.9944 884.597C50.4293 887.231 64.409 890.068 78.4786 891.427C90.9852 892.628 103.619 892.596 116.636 890.212C151.823 883.74 183.659 862.532 204.715 832.099C212.126 821.378 218.135 809.74 222.763 797.472C231.784 773.698 235.767 747.795 236.478 721.494C237.165 695.932 234.824 669.652 230.013 644.5C224.864 617.427 217.11 591.474 215.448 564.986C215.327 563.066 215.24 561.127 215.194 559.191C214.587 534.447 220.011 509.031 235.943 490.756C247.715 477.243 264.145 468.91 278.969 459.043C289.17 452.25 298.661 444.642 305.341 434.081C321.683 408.384 316.599 374.379 325.088 344.166C332.585 317.415 350.041 297.031 369.114 286.223C387.666 275.708 407.59 273.207 427.73 273.418C428.278 273.421 428.826 273.424 429.38 273.435C446.698 273.67 467.447 275.3 483.162 260.243C495.547 248.369 499.469 228.37 499.958 210.952C500.52 190.724 500.869 174.861 499.544 162.742" stroke="url(#paint18_linear_6949_96884)" stroke-width="2.80499" stroke-miterlimit="10"/>
<path style="mix-blend-mode:multiply" opacity="0.14" d="M-148.123 958.148C-156.684 930.336 -143.937 898.483 -121.831 881.42C-104.51 868.037 -82.7138 862.725 -61.0751 863.185C-55.2206 863.301 -49.3707 863.843 -43.6032 864.732C-14.7796 869.189 11.1329 885.15 39.2624 890.336C53.8306 893.024 67.9147 895.956 82.0971 897.375C94.7093 898.642 107.435 898.676 120.594 896.309C156.05 889.9 188.127 868.571 209.852 838.193C217.498 827.496 223.819 815.85 228.746 803.545C238.374 779.661 242.981 753.56 244.008 727.009C245.003 701.205 242.651 674.71 237.489 649.363C231.962 622.109 223.418 595.965 220.948 569.05C220.768 567.09 220.621 565.124 220.522 563.155C219.177 537.96 223.971 511.777 239.794 493.031C251.486 479.174 268.064 470.727 282.983 460.697C293.257 453.777 302.78 446.054 309.383 435.244C325.465 408.984 319.135 374.204 327.836 343.786C335.514 316.901 354.377 296.7 375.012 286.556C395.1 276.688 416.704 275.257 438.19 276.749C438.777 276.785 439.364 276.834 439.951 276.87C458.411 278.246 480.211 281.12 496.431 266.276C509.215 254.578 513.19 234.274 512.845 216.456C512.462 196.638 510.444 180.426 507.183 167.204" stroke="url(#paint19_linear_6949_96884)" stroke-width="2.80499" stroke-miterlimit="10"/>
<path style="mix-blend-mode:multiply" opacity="0.09" d="M-145.022 964.64C-154.348 936.653 -141.852 904.032 -119.711 886.626C-102.336 872.953 -80.3615 867.58 -58.5072 868.07C-52.5993 868.205 -46.7023 868.757 -40.8884 869.672C-11.8136 874.279 14.2106 890.807 42.5533 896.082C57.2548 898.824 71.444 901.838 85.7314 903.337C98.4493 904.671 111.267 904.771 124.568 902.421C160.292 896.076 192.606 874.616 215.011 844.294C222.894 833.621 229.513 821.968 234.767 809.627C245.002 785.632 250.24 759.327 251.568 732.525C252.865 706.471 250.508 679.769 244.996 654.227C239.085 626.783 229.756 600.457 226.473 573.107C226.232 571.12 226.033 569.122 225.868 567.118C223.784 541.472 227.94 514.515 243.656 495.298C255.268 481.096 271.999 472.543 287.007 462.343C297.353 455.311 306.923 447.458 313.421 436.398C329.244 409.56 321.654 374.02 330.58 343.411C338.447 316.385 358.722 296.403 380.92 286.894C402.555 277.719 425.822 277.305 448.654 280.093C449.273 280.167 449.899 280.25 450.518 280.324C470.128 282.834 492.958 286.96 509.69 272.336C522.88 260.806 526.95 240.185 525.734 221.989C524.428 202.543 520.022 186.019 514.832 171.701" stroke="url(#paint20_linear_6949_96884)" stroke-width="2.80499" stroke-miterlimit="10"/>
<path style="mix-blend-mode:multiply" opacity="0.05" d="M-141.971 971.126C-152.068 942.958 -139.809 909.57 -117.633 891.82C-100.192 877.858 -78.0508 872.408 -55.988 872.936C-50.0331 873.081 -44.0827 873.652 -38.2294 874.599C-8.89697 879.365 17.2396 896.445 45.8021 901.817C60.6368 904.613 74.9311 907.708 89.3306 909.281C102.154 910.682 115.07 910.855 128.493 908.514C164.486 902.232 197.042 880.649 220.116 850.383C228.234 839.734 235.165 828.074 240.725 815.689C251.566 791.598 257.423 765.073 259.073 738.014C260.671 711.709 258.31 684.801 252.448 659.064C246.152 631.429 236.032 604.928 231.955 577.138C231.662 575.118 231.397 573.085 231.172 571.04C228.35 544.944 231.876 517.22 247.483 497.532C259.016 482.971 275.893 474.318 290.996 463.97C301.422 456.819 311.017 448.843 317.425 437.534C332.988 410.132 324.138 373.816 333.289 343.003C341.351 315.843 363.014 296.021 386.786 287.206C409.945 278.663 434.904 279.335 459.09 283.412C459.748 283.518 460.406 283.639 461.065 283.746C481.818 287.383 505.698 292.768 522.935 278.357C536.517 266.995 540.738 246.017 538.595 227.481C536.39 208.359 529.572 191.571 522.439 176.157" stroke="url(#paint21_linear_6949_96884)" stroke-width="2.80499" stroke-miterlimit="10"/>
</g>
</g>
<defs>
<linearGradient id="paint0_linear_6949_96884" x1="221.099" y1="628.71" x2="-15.2919" y2="390.338" gradientUnits="userSpaceOnUse">
<stop stop-color="#C79FFC"/>
<stop offset="1" stop-color="#A86DF5"/>
</linearGradient>
<linearGradient id="paint1_linear_6949_96884" x1="226.368" y1="634.085" x2="-6.26174" y2="399.508" gradientUnits="userSpaceOnUse">
<stop stop-color="#C69EFC"/>
<stop offset="1" stop-color="#E5D0F7"/>
</linearGradient>
<linearGradient id="paint2_linear_6949_96884" x1="231.605" y1="639.471" x2="2.66165" y2="408.616" gradientUnits="userSpaceOnUse">
<stop stop-color="#9D5BF4"/>
<stop offset="1" stop-color="#BF91FC"/>
</linearGradient>
<linearGradient id="paint3_linear_6949_96884" x1="236.885" y1="644.854" x2="11.5633" y2="417.655" gradientUnits="userSpaceOnUse">
<stop stop-color="#E4C5E9"/>
<stop offset="1" stop-color="#B17DF7"/>
</linearGradient>
<linearGradient id="paint4_linear_6949_96884" x1="242.15" y1="650.249" x2="20.3761" y2="426.634" gradientUnits="userSpaceOnUse">
<stop stop-color="#C39AF9"/>
<stop offset="1" stop-color="#BF90FB"/>
</linearGradient>
<linearGradient id="paint5_linear_6949_96884" x1="247.425" y1="655.661" x2="29.1521" y2="435.551" gradientUnits="userSpaceOnUse">
<stop stop-color="#B583F9"/>
<stop offset="1" stop-color="#4E3C86"/>
</linearGradient>
<linearGradient id="paint6_linear_6949_96884" x1="252.695" y1="661.059" x2="37.8213" y2="444.389" gradientUnits="userSpaceOnUse">
<stop stop-color="#9C5BF3"/>
<stop offset="1" stop-color="#9E5BF7"/>
</linearGradient>
<linearGradient id="paint7_linear_6949_96884" x1="257.94" y1="666.484" x2="46.408" y2="453.183" gradientUnits="userSpaceOnUse">
<stop stop-color="#E2C7EC"/>
<stop offset="1" stop-color="#A161F7"/>
</linearGradient>
<linearGradient id="paint8_linear_6949_96884" x1="263.236" y1="671.915" x2="54.9325" y2="461.871" gradientUnits="userSpaceOnUse">
<stop stop-color="#BF92FB"/>
<stop offset="1" stop-color="#E5D2FA"/>
</linearGradient>
<linearGradient id="paint9_linear_6949_96884" x1="268.48" y1="677.347" x2="63.2928" y2="470.439" gradientUnits="userSpaceOnUse">
<stop stop-color="#D0A7E8"/>
<stop offset="1" stop-color="#C093FC"/>
</linearGradient>
<linearGradient id="paint10_linear_6949_96884" x1="273.749" y1="682.786" x2="71.5158" y2="478.862" gradientUnits="userSpaceOnUse">
<stop stop-color="#E5D0F7"/>
<stop offset="1" stop-color="#BB8DF9"/>
</linearGradient>
<linearGradient id="paint11_linear_6949_96884" x1="279.048" y1="688.258" x2="79.5528" y2="487.094" gradientUnits="userSpaceOnUse">
<stop stop-color="#C89FFE"/>
<stop offset="0.930555" stop-color="#DADCE9"/>
<stop offset="1" stop-color="#976CD1"/>
</linearGradient>
<linearGradient id="paint12_linear_6949_96884" x1="284.306" y1="693.739" x2="87.2062" y2="494.992" gradientUnits="userSpaceOnUse">
<stop stop-color="#E5CFF6"/>
<stop offset="0.9999" stop-color="#9E5EF3"/>
<stop offset="1" stop-color="#D9DDE8"/>
</linearGradient>
<linearGradient id="paint13_linear_6949_96884" x1="289.567" y1="699.236" x2="94.3187" y2="502.35" gradientUnits="userSpaceOnUse">
<stop stop-color="#DBC2FC"/>
<stop offset="0.081597" stop-color="#FAF7FF"/>
<stop offset="1" stop-color="#C79EFC"/>
</linearGradient>
<linearGradient id="paint14_linear_6949_96884" x1="294.842" y1="704.674" x2="100.51" y2="508.718" gradientUnits="userSpaceOnUse">
<stop stop-color="#B07AF8"/>
<stop offset="1" stop-color="#A365F5"/>
</linearGradient>
<linearGradient id="paint15_linear_6949_96884" x1="300.234" y1="710.055" x2="106.61" y2="514.81" gradientUnits="userSpaceOnUse">
<stop stop-color="#C59CFB"/>
<stop offset="1" stop-color="#A76AF8"/>
</linearGradient>
<linearGradient id="paint16_linear_6949_96884" x1="305.684" y1="715.452" x2="112.805" y2="520.955" gradientUnits="userSpaceOnUse">
<stop stop-color="#7C64C6"/>
<stop offset="1" stop-color="#C79FFD"/>
</linearGradient>
<linearGradient id="paint17_linear_6949_96884" x1="311.053" y1="720.859" x2="117.552" y2="525.731" gradientUnits="userSpaceOnUse">
<stop stop-color="#A294C9"/>
<stop offset="1" stop-color="#4E3C86"/>
</linearGradient>
<linearGradient id="paint18_linear_6949_96884" x1="316.413" y1="726.281" x2="119.716" y2="527.943" gradientUnits="userSpaceOnUse">
<stop stop-color="#E5CBF2"/>
<stop offset="1" stop-color="#9C5BF3"/>
</linearGradient>
<linearGradient id="paint19_linear_6949_96884" x1="321.772" y1="731.731" x2="121.707" y2="529.998" gradientUnits="userSpaceOnUse">
<stop stop-color="#C397FD"/>
<stop offset="1" stop-color="#C79EFC"/>
</linearGradient>
<linearGradient id="paint20_linear_6949_96884" x1="327.165" y1="737.198" x2="123.602" y2="531.937" gradientUnits="userSpaceOnUse">
<stop stop-color="#C79EFC"/>
<stop offset="1" stop-color="#9C5BF4"/>
</linearGradient>
<linearGradient id="paint21_linear_6949_96884" x1="332.506" y1="742.683" x2="125.319" y2="533.752" gradientUnits="userSpaceOnUse">
<stop stop-color="#E5D0F8"/>
<stop offset="1" stop-color="#9E5BF6"/>
</linearGradient>
</defs>
</svg>
