<svg width="1440" height="515" viewBox="0 0 1440 515" fill="none" xmlns="http://www.w3.org/2000/svg">
<g opacity="0.2">
<path d="M1504.09 4.14698C981.36 4.14698 458.604 3.46066 -64.1016 4.14698V0.14209H1504.09V4.15506V4.14698Z" fill="#C4EE9A"/>
<path d="M1504.09 20.0859C1242.38 20.0859 979.021 22.4032 717.631 17.7766C588.401 15.4916 464.124 18.4791 335.387 21.3616C202.586 24.3411 68.824 19.7952 -64.125 20.0859V16.081C458.63 14.7326 980.893 16.081 1504.07 16.081C1504.07 17.6878 1504.07 18.4872 1504.07 20.0859H1504.09Z" fill="#C4EE9A"/>
<path d="M1504.09 36.0246C1249.72 36.0246 990.031 39.8357 737.238 29.5651C675.456 27.054 613.059 24.5752 550.686 26.0851C477.942 27.8534 407.366 34.7973 335.607 38.6569C203.299 45.7623 68.7981 36.3234 -64.1016 36.0327V32.0278C68.6996 32.1247 203.151 40.304 335.484 34.2967C405.839 31.1073 475.232 25.1484 546.326 23.8081C608.23 22.6454 670.185 24.6236 731.646 26.7391C986.902 35.5402 1247.68 32.0278 1504.07 32.0278V36.0327L1504.09 36.0246Z" fill="#C4EE9A"/>
<path d="M1504.09 51.9634C1258.34 51.9634 1003.28 56.7273 761.527 40.3767C698.686 36.1296 633.8 31.4787 569.457 34.5712C489.471 38.4227 414.042 49.3635 336.199 56.0814C202.634 67.6116 70.6457 53.1988 -64.1016 51.9634V47.9505C69.9313 48.9194 203.003 62.1129 336.026 51.6889C412.293 45.7139 486.49 35.7662 564.604 32.48C628.406 29.7993 692.7 33.8607 755.245 37.6879C999.687 52.6498 1256.35 47.9505 1504.11 47.9505C1504.11 49.5573 1504.11 50.3566 1504.11 51.9634H1504.09Z" fill="#C4EE9A"/>
<path d="M1504.09 67.9023C1264.77 67.9023 1017.99 72.4966 785.693 51.2206C721.842 45.3748 654.69 38.455 588.154 43.0978C500.802 49.194 420.668 63.9297 336.79 73.514C199.604 89.1864 74.6364 70.147 -64.1016 67.9023C-64.1016 66.2955 -64.1016 65.4961 -64.1016 63.8893C73.5032 65.8999 200.54 83.8088 336.667 69.1377C419.092 60.2478 498.092 46.4245 583.646 40.8774C649.64 36.5899 716.275 42.9767 779.879 48.4431C1014.32 68.5886 1263.42 63.8974 1504.09 63.8974C1504.09 65.5042 1504.09 66.3036 1504.09 67.9104V67.9023Z" fill="#C4EE9A"/>
<path d="M1504.09 83.8329C1268.39 83.8329 1030.5 88.0478 804.883 63.0818C740.44 55.9521 671.712 47.2641 603.304 52.9969C509.72 60.8371 425.767 78.8672 336.938 90.7931C259.489 101.193 197.978 101.492 117.696 95.1451C56.8507 90.3328 -1.30985 85.1329 -64.1016 83.841C-64.1016 82.2342 -64.1016 81.4349 -64.1016 79.8361C-1.33448 81.0796 57.2202 86.0615 118.238 90.6558C197.978 96.6631 259.908 96.4936 336.962 86.4733C424.684 75.0561 507.823 57.8012 600.003 50.3081C668.017 44.7853 736.425 53.1019 800.793 59.9489C1027.79 84.1236 1267.75 79.8281 1504.11 79.8281V83.8329H1504.09Z" fill="#C4EE9A"/>
<path d="M1504.09 99.78C1270.24 99.78 1035.95 104.092 814.269 76.9699C750 69.1055 680.704 59.6423 611.434 65.6254C513.909 74.0389 427.764 94.5478 336.2 107.79C258.825 118.981 196.846 119.482 116.293 112.263C55.768 106.837 -1.03768 100.999 -64.125 99.7881V95.7832C-1.13621 97.059 55.9404 102.776 116.49 108.089C197.29 115.178 258.825 114.661 336.471 103.551C427.616 90.5106 513.391 70.5508 610.202 62.1211C679.399 56.1057 748.645 65.4962 813.062 73.2395C1035.48 99.99 1269.82 95.7751 1504.04 95.7751V99.78H1504.09Z" fill="#C4EE9A"/>
<path d="M1504.09 115.711C1377.2 115.242 1241.57 122.138 1116.03 115.008C1080.22 112.974 1047.06 111.181 1010.62 110.454C939.778 109.041 876.592 101.581 810.08 93.8453C745.638 86.3523 676.195 77.1556 607.294 83.0902C512.331 91.2696 428.551 110.906 339.229 123.664C261.632 134.742 199.604 135.057 118.928 128.065C57.6144 122.752 -0.373757 116.938 -64.1016 115.711V111.698C-0.669365 112.909 56.7275 118.763 117.647 124.14C198.323 131.262 260.351 130.826 337.898 119.659C428.28 106.643 513.119 86.5703 609.339 78.2537C678.511 72.2786 747.954 81.6369 812.396 89.3156C1037.92 116.203 1267.19 110.923 1504.09 111.698V115.711Z" fill="#C4EE9A"/>
<path d="M1504.09 131.65C1376.39 131.593 1243.07 142.566 1116.55 133.91C1007.82 126.474 901.449 123.89 794.168 113.167C730.49 106.805 661.663 98.8353 594.782 104.205C507.011 111.254 429.316 128.694 346.423 139.893C204.581 159.07 79.5151 134.258 -64.125 131.641V127.637C79.9585 130.317 201.921 155.356 344.354 135.767C429.143 124.1 508.612 106.062 598.477 98.6495C665.973 93.0863 735.022 101.435 799.021 108.129C865.089 115.041 927.881 121.411 997.299 122.929C1038.71 123.834 1076 126.32 1116.5 129.001C1242.36 137.334 1376.91 127.394 1504.09 127.628C1504.09 129.235 1504.09 130.035 1504.09 131.633V131.65Z" fill="#C4EE9A"/>
<path d="M1504.09 147.588C1372.57 148.694 1248.19 164.052 1116.53 153.999C1001.76 145.239 886.299 142.832 771.406 133.918C709.206 129.09 641.882 122.953 577.833 127.338C499.572 132.699 429.956 147.419 355.735 156.535C215.937 173.693 77.6675 149.841 -64.125 147.588V143.575C78.0617 145.933 213.055 170.035 353.271 152.32C429.809 142.655 501.567 127.209 582.341 121.403C647.104 116.744 714.896 123.381 777.516 128.614C890.166 138.028 1003.61 140.451 1116.55 148.872C1246.5 158.561 1373.8 144.334 1504.07 143.575C1504.07 145.182 1504.07 145.981 1504.07 147.588H1504.09Z" fill="#C4EE9A"/>
<path d="M1504.09 163.527C1435.9 164.843 1375.4 172.231 1309.31 176.866C1242.75 181.533 1181.93 179.829 1116.33 174.452C1055.85 169.494 998.161 163.115 935.517 161.622C871.715 160.104 809.958 158.4 746.575 155.097C685.656 151.924 621.238 147.984 559.555 151.076C491.615 154.476 430.424 166.442 365.662 173.289C226.087 188.041 77.1748 165.408 -64.125 163.543V159.538C77.0763 161.492 223.796 184.472 363.174 169.09C430.4 161.67 493.561 149.13 564.112 145.142C626.165 141.637 691.691 146.224 752.759 149.801C816.56 153.539 878.342 155.743 942.784 157.302C1002.99 158.755 1058.17 164.641 1116.4 169.341C1180.85 174.541 1241.17 175.832 1306.63 171.706C1373.43 167.492 1435.54 160.685 1504.12 159.546V163.551L1504.09 163.527Z" fill="#C4EE9A"/>
<path d="M1504.09 179.466C1436.69 181.38 1382.69 190.843 1319.09 197.036C1249.52 203.81 1185.3 200.508 1116.38 194.412C1048.22 188.38 980.571 180.12 909.503 178.723C847.844 177.512 786.284 177.302 724.552 175.687C665.061 174.129 602.712 171.698 543.099 173.984C484.371 176.228 431.556 185.231 374.751 189.866C231.85 201.525 79.7356 181.105 -64.1016 179.474V175.461C79.2183 177.141 230.396 198.005 372.632 185.724C431.433 180.645 485.973 170.883 546.917 168.372C606.949 165.901 669.79 168.695 729.577 170.617C791.728 172.611 853.263 173.249 915.464 174.452C984.537 175.792 1050.06 183.673 1116.35 189.486C1184.54 195.469 1247.95 198.32 1316.85 192.062C1380.99 186.232 1436.62 177.246 1504.11 175.461C1504.11 177.068 1504.11 177.867 1504.11 179.474L1504.09 179.466Z" fill="#C4EE9A"/>
<path d="M1504.09 195.405C1436.2 197.496 1388.06 208.526 1325.79 215.881C1255.07 224.23 1187.52 219.442 1117.04 213.063C1043.26 206.394 969.215 196.939 892.136 195.397C831.931 194.186 770.518 195.146 710.165 194.718C651.217 194.299 590.396 192.91 531.594 194.678C479.839 196.236 432.123 202.72 381.525 206.031C235.495 215.583 82.3468 197.003 -64.1016 195.413V191.4C81.6816 192.966 234.855 212.014 380.121 202.018C431.975 198.449 480.676 191.432 533.861 189.761C592.736 187.904 653.828 189.478 712.801 190.132C773.45 190.81 834.936 190.051 895.387 191.255C971.284 192.772 1044.1 201.993 1116.8 208.542C1187.13 214.88 1253.88 219.361 1324.51 211.311C1386.98 204.19 1436.47 193.499 1504.09 191.4V195.413V195.405Z" fill="#C4EE9A"/>
<path d="M1504.09 211.336C1435.8 213.362 1389.1 224.715 1326.9 232.289C1256.2 240.896 1187.99 235.736 1117.44 229.414C1042.28 222.68 966.553 213.08 888.144 211.465C828.284 210.229 767.044 211.344 707.011 211.166C647.841 210.996 587.093 209.761 528.12 211.537C478.483 213.023 432.097 218.683 383.421 221.671C236.578 230.698 83.0599 213.209 -64.0781 211.328V207.323C83.6019 209.099 236.48 226.693 383.938 217.739C432.491 214.791 478.828 209.26 528.268 207.783C587.266 206.023 647.988 207.258 707.159 207.298C767.118 207.339 828.259 206.208 888.095 207.428C966.8 209.026 1042.55 218.764 1117.9 225.603C1188.18 231.974 1257.04 237.238 1327.46 228.518C1389.71 220.815 1435.39 209.228 1504.09 207.323V211.328V211.336Z" fill="#C4EE9A"/>
<path d="M1504.09 227.274C1436.69 229.293 1384.57 239.289 1321.5 245.886C1250.29 253.338 1183.87 249.091 1112.83 243.358C1038.95 237.391 964.658 228.978 888.219 227.436C827.521 226.208 766.257 226.515 705.436 225.401C646.043 224.311 584.73 222.527 525.338 224.489C474.37 226.168 427.541 232.636 377.756 236.035C234.683 245.805 79.8341 229.123 -64.1016 227.274V223.261C80.7948 225.167 235.446 242.115 379.653 232.587C429.093 229.317 475.75 223.1 526.323 221.485C585.567 219.596 646.659 221.162 705.978 221.969C766.528 222.793 827.841 222.187 888.244 223.423C965.298 225.005 1040.11 233.806 1114.38 240.008C1185.4 245.942 1252.16 250.48 1323.3 242.648C1386 235.744 1436.62 225.336 1504.11 223.261C1504.11 224.868 1504.11 225.668 1504.11 227.274H1504.09Z" fill="#C4EE9A"/>
<path d="M1504.09 243.213C1436.25 244.731 1377.69 252.773 1312.44 257.9C1241.69 263.456 1175.47 260.581 1105 255.898C1033.21 251.126 961.579 244.61 888.12 243.326C825.723 242.236 764.779 240.847 702.652 238.336C642.693 235.914 580.468 232.87 520.017 235.203C467.054 237.246 419.313 244.893 367.952 248.954C230.175 259.855 75.4739 244.594 -64.1016 243.213V239.2C76.6317 240.734 231.48 256.399 370.686 245.797C421.604 241.921 469.098 234.59 521.495 232.652C581.626 230.431 643.605 233.112 703.416 235.171C765.222 237.295 826.216 238.207 888.145 239.338C962.441 240.694 1034.79 247.735 1107.16 252.838C1177.86 257.82 1244.01 261.05 1314.95 254.986C1379.57 249.463 1436.49 240.88 1504.09 239.208C1504.09 240.815 1504.09 241.614 1504.09 243.221V243.213Z" fill="#C4EE9A"/>
<path d="M1504.09 259.152C1434.67 259.96 1369.86 265.717 1301.67 269.172C1232.18 272.701 1164.93 271.151 1095.64 267.792C963.377 261.373 830.255 259.37 699.277 250.674C638.801 246.661 575.443 242.099 513.489 244.877C458.21 247.355 409.361 256.358 356.201 261.203C224.312 273.234 70.7196 259.879 -64.1016 259.152V255.139C71.9266 256.035 225.839 269.899 359.207 258.143C411.923 253.5 460.477 244.836 515.164 242.478C576.674 239.822 639.811 243.964 700.139 247.598C832.078 255.527 965.446 257.763 1098.05 264.82C1167.64 268.526 1234.6 270.384 1304.43 266.363C1371.86 262.479 1435.16 256.132 1504.09 255.139V259.152Z" fill="#C4EE9A"/>
<path d="M1504.09 275.091C1363.41 275.349 1227.87 283.876 1086.5 279.774C953.327 275.906 825.502 274.695 696.002 263.1C634.984 257.634 570.887 251.489 507.134 254.703C449.59 257.61 399.607 267.937 344.699 273.549C218.475 286.451 66.1881 275.204 -64.125 275.091V271.086C67.272 271.336 219.854 283.117 347.458 270.391C401.948 264.957 451.634 254.953 508.637 252.151C571.946 249.043 635.871 254.816 696.766 259.935C826.34 270.819 956.013 272.216 1088.67 276.714C1230.29 281.518 1363.38 271.643 1504.07 271.086C1504.07 272.693 1504.07 273.492 1504.07 275.091H1504.09Z" fill="#C4EE9A"/>
<path d="M1504.09 291.03C1235.43 290.093 952.415 304.239 693.464 276.294C632.101 269.673 567.708 262.301 502.329 265.862C442.888 269.1 392.068 280.533 335.755 286.758C214.31 300.178 62.3687 290.812 -64.1016 291.03V287.017C63.2309 286.847 215.148 296.633 337.652 283.311C393.67 277.222 444.317 266.031 503.339 262.858C568.348 259.37 632.717 266.492 694.006 272.862C955.346 300.016 1234.3 286.266 1504.09 287.017C1504.09 288.623 1504.09 289.423 1504.09 291.03Z" fill="#C4EE9A"/>
<path d="M1504.09 306.968C1361.31 306.847 1218.56 307.073 1075.78 307.001C1013.28 306.968 950.246 307.727 887.799 306.952C818.381 306.088 757.042 298.66 692.28 290.965C630.868 283.666 566.697 275.858 500.407 279.564C439.808 282.955 388.692 295.059 331.517 301.599C266.681 309.011 198.519 307.001 130.899 306.985C65.9148 306.968 0.906003 306.944 -64.0781 306.968V302.956C1.05381 302.875 66.1857 302.988 131.318 303.069C199.012 303.149 267.124 305.063 332.034 297.675C389.062 291.183 440.202 279.201 500.579 275.826C566.721 272.128 631.04 279.919 692.452 287.106C757.092 294.671 818.652 302.067 887.799 302.923C950.394 303.698 1013.63 303.044 1076.3 303.198C1218.93 303.545 1361.53 302.616 1504.16 302.964V306.977L1504.09 306.968Z" fill="#C4EE9A"/>
<path d="M1504.09 322.907C1361.63 322.213 1219.54 326.008 1076.96 324.369C1013.9 323.642 950.74 323.537 887.751 322.819C817.397 322.019 755.418 314.462 689.695 306.686C628.159 299.403 562.485 291.207 495.974 295.002C434.98 298.49 385.491 311.611 328.513 318.563C264.637 326.355 195.613 324.207 128.609 323.739C64.3394 323.287 0.168186 322.722 -64.1016 322.907V318.902C0.46379 318.733 64.9799 319.088 129.545 319.379C196.746 319.678 265.746 321.777 329.942 314.155C387.043 307.372 437.074 294.582 497.994 291.167C564.358 287.445 629.44 295.487 690.852 302.778C756.157 310.529 817.815 318.063 887.776 318.838C950.518 319.532 1013.63 319.29 1076.45 319.75C1219.05 320.784 1361.53 318.257 1504.11 318.911V322.915L1504.09 322.907Z" fill="#C4EE9A"/>
<path d="M1504.09 338.838C1361.16 338.886 1223.93 348.971 1080.26 344.054C1015.9 341.85 952.366 339.88 887.776 338.773C815.007 337.522 750.91 330.021 682.551 322.068C620.153 314.809 550.784 305.677 483.411 310.117C422.122 314.163 375.416 328.971 319.3 336.868C206.255 352.782 55.619 338.854 -64.1016 338.83V334.817C56.4812 334.696 207.979 347.591 322.083 332.16C378.47 324.538 425.94 310.198 487.18 306.331C554.282 302.092 622.567 310.949 684.719 318.208C752.289 326.105 815.746 333.638 887.8 334.736C951.897 335.713 1015.33 337.15 1079.33 338.927C1222.45 342.907 1361.53 334.567 1504.14 334.809C1504.14 336.416 1504.14 337.215 1504.14 338.822L1504.09 338.838Z" fill="#C4EE9A"/>
<path d="M1504.09 354.777C1430.04 355.689 1361.34 362.407 1288.94 366.703C1219.84 370.796 1153.31 369.287 1084.65 365.048C1018.78 360.978 954.733 356.61 887.852 354.809C811.832 352.758 744.754 345.467 672.798 337.264C609.218 330.013 534.676 319.621 466.219 325.071C404.634 329.972 361.328 346.808 306.419 355.972C197.463 374.147 52.2712 355.633 -64.1484 354.793V350.78C53.0348 351.394 199.927 368.697 309.818 351.135C365.047 342.31 409.241 325.992 470.751 321.325C538.913 316.149 612.076 326.21 675.336 333.461C746.33 341.591 812.595 348.955 887.778 350.78C954.043 352.387 1017.94 356.125 1083.44 359.71C1151.75 363.449 1218.88 364.692 1287.56 361.164C1360.33 357.425 1430.02 351.442 1504.07 350.78C1504.07 352.387 1504.07 353.186 1504.07 354.793L1504.09 354.777Z" fill="#C4EE9A"/>
<path d="M1504.09 370.716C1429.57 372.661 1365.4 382.31 1294.33 388.826C1223.36 395.334 1159.49 392.637 1089.33 386.356C946.405 373.558 802.888 368.116 662.402 352.395C597.738 345.16 517.21 333.404 447.914 339.952C386.478 345.758 345.241 364.466 292.697 375.237C189.185 396.441 47.8359 372.476 -64.125 370.724V366.719C48.4271 368.237 191.87 390.958 296.071 370.409C349.01 359.969 391.06 341.785 452.422 336.214C521.545 329.932 600.546 341.357 664.963 348.6C804.096 364.24 945.937 369.262 1088.17 381.035C1157.94 386.808 1222.48 389.198 1292.98 383.304C1364.37 377.337 1429.75 368.406 1504.09 366.719C1504.09 368.326 1504.09 369.125 1504.09 370.724V370.716Z" fill="#C4EE9A"/>
<path d="M1504.09 386.655C1428.46 389.432 1369.02 401.673 1299.09 410.199C1226.91 418.992 1164.49 415.036 1093.44 407.002C1025.16 399.283 960.027 390.143 888.022 386.864C805.966 383.134 732.262 376.319 653.384 367.639C587.932 360.429 501.837 347.47 431.975 354.938C370.317 361.535 331.641 382.141 280.822 394.115C179.724 417.927 45.6669 389.077 -64.1016 386.655V382.65C46.0118 384.943 182.065 412.654 283.482 389.432C334.647 377.716 374.012 357.563 435.572 351.151C505.31 343.885 590.125 356.569 655.429 363.788C733.592 372.427 806.558 379.283 888.022 382.852C959.435 385.984 1024.49 394.6 1092.53 401.931C1163.45 409.57 1226.05 413.227 1298 404.959C1368.19 396.893 1428.81 385.266 1504.09 382.65C1504.09 384.256 1504.09 385.056 1504.09 386.655Z" fill="#C4EE9A"/>
<path d="M1504.09 402.593C1426.84 405.581 1371.56 419.792 1302.19 429.715C1230.09 440.026 1166.83 435.141 1096.13 426.009C1028.02 417.216 961.751 405.516 887.997 402.787C803.897 399.67 727.976 391.895 647.62 383.126C581.872 375.956 491.909 362.213 421.875 370.151C359.724 377.199 323.389 399.283 273.53 412.024C172.975 437.717 44.854 405.129 -64.1016 402.585V398.572C45.0018 401.156 174.206 432.945 274.786 407.632C324.818 395.044 361.645 373.259 423.674 366.283C493.683 358.402 582.931 372.008 648.655 379.186C728.715 387.93 804.267 395.658 888.046 398.782C961.381 401.52 1027.65 412.856 1095.66 421.423C1166.58 430.361 1229.4 435.069 1301.65 425.032C1371.09 415.383 1427.31 401.592 1504.11 398.572V402.585L1504.09 402.593Z" fill="#C4EE9A"/>
<path d="M1504.09 418.532C1426.64 421.496 1371.73 435.852 1302.39 445.864C1230.38 456.256 1166.88 451.322 1096.28 442.126C1028.07 433.244 961.899 421.504 887.997 418.718C804.168 415.561 727.803 407.842 647.521 399.299C581.7 392.299 491.589 378.621 421.801 386.55C359.921 393.574 322.995 415.391 273.111 428.02C171.497 453.737 45.6423 421.06 -64.1016 418.532V414.527C45.1743 416.909 171.447 450.345 272.52 424.265C322.207 411.443 358.271 389.133 420.496 382.06C490.407 374.107 581.084 387.971 646.807 395.06C727.852 403.805 804.045 410.611 887.973 414.689C962.49 418.306 1027.38 429.287 1096.57 438.452C1166.8 447.753 1231 452.792 1302.73 442.255C1372.13 432.065 1426.17 417.353 1504.11 414.527V418.532H1504.09Z" fill="#C4EE9A"/>
<path d="M1504.09 434.471C1428.32 437.313 1369.32 449.78 1299.48 458.476C1227.25 467.471 1164.86 463.393 1093.81 455.214C1025.4 447.342 960.273 438.048 888.022 434.689C807.592 430.942 732.829 425.072 654.591 417.515C588.4 411.128 503.438 399.38 434.143 406.429C373.248 412.622 332.134 431.564 280.255 442.626C174.28 465.226 48.5245 437.006 -64.1016 434.471V430.458C47.3913 433.058 173.591 462.667 277.816 438.993C328.882 427.398 369.085 407.64 430.103 401.156C499.546 393.784 586.159 406.17 652.276 412.751C731.326 420.623 806.656 426.752 888.022 430.668C960.815 434.18 1025.97 443.894 1094.6 452.114C1165.67 460.624 1228.12 464.976 1300.42 455.521C1370.08 446.413 1427.95 433.405 1504.09 430.45C1504.09 432.057 1504.09 432.856 1504.09 434.463V434.471Z" fill="#C4EE9A"/>
<path d="M1504.09 450.41C1429.5 452.453 1365.79 462.376 1294.85 469.11C1223.73 475.86 1160.05 473.034 1089.8 466.559C1022.55 460.366 957.735 453.05 887.971 450.555C812.099 447.842 740.587 443.232 666.291 437.224C600.125 431.871 522.996 423.248 454.563 428.545C394.062 433.228 347.997 448.383 292.891 456.837C179.231 474.27 53.5978 452.34 -64.0781 450.418V446.413C52.6371 448.545 177.284 472.017 289.393 453.292C343.883 444.193 388.273 427.963 448.947 422.844C517.675 417.047 596.848 426.526 663.089 432.178C738.493 438.605 810.892 443.571 888.021 446.575C958.449 449.32 1023.36 457.168 1090.93 463.821C1161.51 470.765 1224.64 473.931 1296.15 466.567C1366.78 459.3 1429.3 448.69 1504.11 446.405C1504.11 448.012 1504.11 448.811 1504.11 450.41H1504.09Z" fill="#C4EE9A"/>
<path d="M1504.09 466.349C1430.04 467.358 1361.75 474.375 1289.48 478.888C1220.21 483.216 1153.92 481.601 1085.14 477.152C950.246 468.432 815.105 465.743 680.012 457.588C614.757 453.648 545.093 448.432 478.483 451.637C418.179 454.544 365.536 465.178 307.893 470.87C187.138 482.78 58.5492 467.342 -64.0781 466.349V462.336C57.1698 463.571 185.192 480.673 304.075 467.342C361.078 460.947 412.144 449.158 472.398 445.807C539.55 442.069 610.939 448.125 676.514 452.453C813.232 461.472 949.95 464.726 1086.32 474.512C1155.5 479.478 1221.1 481.375 1290.86 476.458C1362.79 471.387 1429.97 463.619 1504.11 462.344C1504.11 463.95 1504.11 464.75 1504.11 466.357L1504.09 466.349Z" fill="#C4EE9A"/>
<path d="M1504.09 482.279C1360.97 482.473 1224.62 493.252 1080.66 487.956C951.429 483.2 822.274 482.53 693.119 477.75C629.736 475.408 565.244 473.067 501.369 474.447C440.4 475.763 382.289 481.932 322.182 484.944C194.579 491.355 64.0438 482.376 -64.1016 482.279V478.275C62.7136 478.573 192.78 489.126 318.807 481.391C378.323 477.742 435.227 470.491 495.949 468.811C560.539 467.027 626.09 469.998 690.015 472.752C820.55 478.363 951.109 479.478 1081.72 485.17C1226.64 491.492 1360.38 478.856 1504.09 478.283C1504.09 479.889 1504.09 480.689 1504.09 482.287V482.279Z" fill="#C4EE9A"/>
<path d="M1504.09 498.218C1361.66 497.54 1219.79 501.876 1077.23 499.97C952.464 498.299 827.792 498.646 703.046 496.894C578.547 495.142 456.929 497.265 332.725 499.308C200.663 501.48 68.0345 497.855 -64.1016 498.226V494.221C67.2216 493.906 199.431 498.8 330.582 495.667C455.574 492.679 575.393 489.829 700.977 492.235C826.659 494.633 952.218 494.464 1077.92 496.797C1220.58 499.446 1361.66 493.64 1504.07 494.229V498.234L1504.09 498.218Z" fill="#C4EE9A"/>
<path d="M1504.09 514.157H-64.1016V510.144C458.506 509.393 981.507 508.82 1504.09 510.144V514.157Z" fill="#C4EE9A"/>
</g>
</svg>
