<svg xmlns="http://www.w3.org/2000/svg" width="68" height="58" viewBox="7 6 68 58" fill="none">
<path d="M19.6195 56.8779H15.3403V58.5329H17.6206C16.7471 60.7984 12.5047 59.833 12.7566 57.3744C12.6242 54.9323 16.1329 54.0551 17.3539 55.861L19.0126 54.9397C16.8538 51.5101 10.6566 53.1026 10.8074 57.3633C10.8331 63.0805 20.3569 63.1762 19.6213 56.8779H19.6195Z" fill="#48387A"/>
<path d="M24.8624 55.5751L23.7168 59.1922L22.3633 55.5751H20.3516L22.7789 61.2132C22.5105 61.9341 22.1077 62.1934 21.2545 62.1934V63.8484C22.961 63.9311 24.046 63.1864 24.73 61.307L26.8154 55.5732H24.8643L24.8624 55.5751Z" fill="#48387A"/>
<path d="M32.1636 55.5777V56.133C30.4957 54.3952 27.2978 55.9914 27.4339 58.5328C27.2978 61.0742 30.4975 62.6722 32.1636 60.9326V61.488H33.9915V55.5777H32.1636ZM30.7127 59.9745C28.7965 60.0518 28.7965 57.0139 30.7127 57.0911C32.6288 57.0139 32.6288 60.0518 30.7127 59.9745Z" fill="#48387A"/>
<path d="M39.3915 55.4123C38.586 55.4123 37.9774 55.6955 37.6482 56.1332V55.5778H35.8203V61.4881H37.6482V58.2608C37.6482 57.4223 38.1116 57.0434 38.781 57.0434C39.3657 57.0434 39.842 57.3855 39.842 58.1192V61.4881H41.6699C41.5467 59.4671 42.4551 55.3682 39.3897 55.4105L39.3915 55.4123Z" fill="#48387A"/>
<path d="M46.9305 53.1955H43.5156V61.4688H46.9305C52.3737 61.5129 52.3719 53.1514 46.9305 53.1955ZM46.9305 59.6483H45.4667V55.016H46.9305C49.9316 54.8873 49.9298 59.7788 46.9305 59.6483Z" fill="#48387A"/>
<path d="M55.9306 55.3953C55.1269 55.3953 54.5164 55.6785 54.1873 56.1161V53.1978H52.3594V61.471H54.1873V58.2456C54.1873 57.407 54.6507 57.0282 55.3219 57.0282C55.9066 57.0282 56.3829 57.3703 56.3829 58.104V61.4729H58.2108C58.0876 59.4519 58.996 55.3548 55.9306 55.3989V55.3953Z" fill="#48387A"/>
<path d="M64.3745 55.5619V56.1172C62.7085 54.3794 59.5088 55.9756 59.6448 58.5152C59.5088 61.0547 62.7085 62.6527 64.3745 60.9131V61.4685H66.2024V55.56H64.3745V55.5619ZM62.9236 59.9587C61.0075 60.0359 61.0075 56.9981 62.9236 57.0753C64.8398 56.9981 64.8398 60.0359 62.9236 59.9587Z" fill="#48387A"/>
<path d="M71.6043 55.3955C70.7988 55.3955 70.1901 55.6787 69.861 56.1164V55.561H68.0312V61.4695H69.861V58.244C69.861 57.4054 70.3244 57.0266 70.9937 57.0266C71.5785 57.0266 72.0548 57.3687 72.0548 58.1024V61.4713H73.8827C73.7595 59.4503 74.6679 55.3532 71.6024 55.3973L71.6043 55.3955Z" fill="#48387A"/>
<path d="M26.0298 44.1735L26.6605 44.2452C25.9857 42.752 24.463 42.0992 22.5469 41.7535C21.6348 41.5898 21.0445 41.1062 21.2008 39.6019V39.5559C21.256 39.1183 21.2762 38.9638 20.6601 38.7303L20.6362 38.7211C20.0331 38.5078 19.9797 38.1418 20.2243 37.8347L20.2501 37.7998C20.6123 37.2279 20.5995 37.5055 20.0478 37.009L20.0368 36.9998C19.68 36.724 20 36.3378 20.2776 35.7659L20.285 35.7512C20.434 35.4643 20.4542 35.4791 20.217 35.297L20.2041 35.2897C19.8804 35.0175 18.6833 34.3481 19.8363 33.414L19.8749 33.3698C21.4251 32.0899 21.3865 31.1466 21.0371 29.8501L21.0077 29.7527C19.555 24.9255 24.0971 20.7824 28.9592 20.4183L29.4391 20.3962C29.5568 20.3907 29.6745 20.3907 29.7922 20.3962C30.2354 20.4165 30.4211 20.3871 32.5598 20.8339C30.7834 20.1866 28.9868 20.1204 27.9202 20.1627C22.0007 20.3926 15.022 24.8336 15.2887 32.5809C15.6215 42.2389 26.0316 44.1753 26.0316 44.1753L26.0298 44.1735Z" fill="#81C041"/>
<path d="M43.3838 30.7839L28.9814 30.7619C28.7368 30.7619 28.4849 30.898 28.4867 31.137L28.4702 34.5372C28.4702 34.7744 28.6688 34.9675 28.9115 34.9675L38.9281 34.9895L39.0532 33.7483C38.2312 38.4118 34.0899 44.5611 27.2087 44.3404C20.6621 44.1308 15.447 38.8439 15.2888 32.5806C15.1178 25.7269 20.6327 20.2984 27.4624 20.155C32.5949 20.0465 36.7232 22.8858 39.2407 27.792C39.3492 28.0035 39.6103 28.0899 39.8273 27.9869L42.7383 26.6041C42.9461 26.5048 43.0418 26.2639 42.9553 26.0542C40.5372 20.1513 34.546 15.9383 27.5728 15.9788C18.4315 16.0321 11.0372 23.2775 11.0391 32.2348C11.0391 41.2216 18.4168 48.4523 27.5195 48.5148C36.5945 48.5773 43.6891 41.3908 43.6596 30.7858H43.3856L43.3838 30.7839Z" fill="#48387C" stroke="#48387C" stroke-width="0.919459" stroke-miterlimit="10"/>
<path d="M53.2386 28.6525C53.2386 28.6525 59.4634 39.1784 68.4281 37.4076C68.4281 37.4076 67.5473 39.9287 64.7852 41.9901C57.8175 47.1906 51.2931 42.6834 46.7344 37.5565L48.7149 32.8728L53.2386 28.6506V28.6525Z" fill="#81C041"/>
<path d="M54.7768 25.5183C48.6624 27.0042 45.7734 32.1237 45.7734 32.1237C46.2626 32.9053 46.5274 33.0358 47.0018 33.6519C47.1085 33.2013 50.0342 28.4587 53.9217 27.4988C59.3244 38.4864 68.2653 37.4198 68.2653 37.4198C58.6937 36.3256 54.7768 25.5183 54.7768 25.5183Z" fill="#81C041"/>
<path d="M57.4817 22.5033C51.0216 22.6523 46.1797 26.7806 46.1797 26.7806C46.4206 27.6357 46.6836 28.4099 46.9631 29.1124C47.3051 28.7152 50.4662 25.1955 55.6372 24.4838C59.1496 36.1462 68.3791 37.4225 68.3791 37.4225C58.1602 32.6339 57.4835 22.5015 57.4835 22.5015L57.4817 22.5033Z" fill="#81C041"/>
<path d="M53.8051 39.545L57.5601 39.5634L58.5017 38.3423L54.5572 38.4564C54.7006 37.776 54.6418 37.1397 54.3825 36.5549C54.3604 36.5071 54.3365 36.463 54.3144 36.417L55.1548 35.3284L54.2629 34.67L53.6175 35.5067C53.4391 35.3412 53.2589 35.2052 53.0971 35.0985L53.7315 34.2765L52.8396 33.6182L50.3203 36.8896L51.2122 37.5479L52.4296 35.9701C52.5877 36.0676 52.7753 36.2018 52.9481 36.3821L51.7473 37.9415L52.6392 38.5998L53.498 37.4854C53.5476 37.8532 53.4998 38.2872 53.2938 38.7984L53.8106 39.5468L53.8051 39.545Z" fill="#48387B"/>
<path d="M68.4217 37.4504C68.4217 37.4504 59.867 40.4681 52.8571 30.5011C52.8571 30.5011 49.1939 32.8733 48.1145 37.4063C48.1145 37.4063 55.86 45.7366 63.2893 42.9451C63.2893 42.9451 56.2204 48.3938 46.7188 37.6766C46.7188 37.6766 47.4837 32.0329 53.2782 28.5813C53.2782 28.5813 59.4018 38.9638 68.4235 37.4522L68.4217 37.4504Z" fill="#48387B"/>
<path d="M51.7135 42.7572C51.7135 42.5182 51.5185 42.3251 51.274 42.3251L47.9253 42.3361C47.6844 42.3361 47.4895 42.5292 47.4895 42.7646L47.3828 48.399V48.513L57.2762 48.5038C57.335 48.5038 57.8187 48.4946 57.8775 48.491L57.9382 48.4873C66.3016 48.0846 73.0063 41.5821 73.7088 34.1106L73.7382 33.7318C73.9221 31.1095 73.8375 27.9227 71.5407 23.9285L71.274 23.4927C68.523 19.3423 63.4311 15.6626 55.8749 15.9973L55.2019 16.0028L47.3828 15.9899V16.1131L47.4288 22.2312C47.4288 22.4684 47.6237 22.6597 47.8646 22.6597L51.2133 22.6707C51.456 22.6707 51.6546 22.4776 51.6528 22.2386L51.6013 21.3743V20.1275L57.2633 20.1201L57.4196 20.1146C63.8779 20.3334 67.5613 24.3919 68.8485 27.9797L68.8835 28.0661C70.2093 31.4791 69.4682 34.7818 68.9533 36.1537L68.8191 36.503C68.0081 39.004 64.5877 43.9985 57.7341 44.3534L57.3314 44.3608L51.7006 44.4306L51.7153 42.7517L51.7135 42.7572Z" fill="#48387C" stroke="#48387C" stroke-width="0.919459" stroke-miterlimit="10"/>
<path d="M10.3372 20.4152C10.26 20.9264 10.0816 21.4137 9.88485 21.89C9.77084 22.1659 9.69728 22.4582 9.57407 22.7304C9.51523 22.8573 9.43615 23.0154 9.32766 23.1074C9.07756 23.317 9.03159 23.078 9.03527 22.8573C9.03527 22.9695 8.8146 23.0927 8.7153 23.0632C8.57738 23.021 8.55899 22.7929 8.3751 22.7635C8.14339 22.7249 7.88227 22.8867 7.90801 22.5355C7.95766 21.8624 8.31809 21.2372 8.66565 20.6763C8.89919 20.2957 9.30927 19.3909 9.84991 19.413C10.0798 19.4222 10.2673 19.5436 10.3372 19.7679C10.374 19.8874 10.3758 20.0143 10.3685 20.1394C10.363 20.2332 10.3538 20.3269 10.3391 20.4189L10.3372 20.4152Z" fill="#81C041"/>
<path d="M9.98982 19.6423C9.88868 19.6828 9.77098 19.6368 9.72501 19.5393C9.30574 18.6364 9.54112 17.7243 10.4256 16.8251C10.547 16.7019 10.6739 16.5823 10.7953 16.4665C11.1042 16.1723 11.3966 15.8964 11.6209 15.5636C12.0733 14.8961 12.145 14.1568 12.2204 13.3734C12.2388 13.1822 12.2572 12.9854 12.2829 12.7887C12.3914 11.9299 12.9707 11.1116 13.9122 10.4863C14.9494 9.79857 16.0748 9.23954 17.1634 8.70073C18.1951 8.18951 19.2616 7.65991 20.2363 7.02548C20.3301 6.96296 20.4569 6.9887 20.5213 7.08065C20.5838 7.17259 20.5581 7.29764 20.4643 7.36016C19.4694 8.00746 18.3918 8.54259 17.3492 9.05932C16.2716 9.59261 15.159 10.1461 14.1439 10.821C13.6548 11.1465 12.8181 11.8379 12.6912 12.8401C12.6673 13.0314 12.6489 13.2263 12.6305 13.4139C12.5533 14.212 12.4742 15.0358 11.9648 15.7879C11.7166 16.1557 11.3947 16.461 11.084 16.757C10.9644 16.871 10.8412 16.9887 10.7235 17.1064C9.95672 17.8861 9.7526 18.6272 10.102 19.3757C10.1498 19.4768 10.102 19.5963 10.0008 19.6423C9.99717 19.6423 9.99533 19.6441 9.99349 19.646H9.99165L9.98982 19.6423Z" fill="#81C041"/>
<path d="M9.86102 12.7112L15.444 7.13928C16.4995 6.08926 16.1704 6.21063 17.2958 6.19775L29.9328 6.2143C30.376 6.2143 30.0064 6.21246 30.2565 6.2143C30.3319 6.2143 30.3245 6.28418 30.308 6.29705C25.2068 9.9326 20.7309 12.9447 20.7309 12.9447C20.3704 13.2574 16.985 15.5339 16.5032 15.5192H7.24057C6.99415 15.5119 6.92059 15.5891 7.81431 14.7837L9.85919 12.713L9.86102 12.7112Z" fill="#81C041"/>
<path d="M12.5472 15.3218C14.6252 13.5068 18.8639 10.6565 24.6436 10.1691C24.982 10.1397 25.3001 10.3383 25.427 10.6546L26.8485 14.1559C20.3479 14.52 15.7929 17.9202 13.8455 19.7425L12.3413 16.2063C12.2125 15.8974 12.2953 15.5425 12.5472 15.3218Z" fill="#81C041"/>
</svg>
